<?xml version="1.0" standalone="no"?><!DOCTYPE svg PUBLIC "-//W3C//DTD SVG 1.1//EN" "http://www.w3.org/Graphics/SVG/1.1/DTD/svg11.dtd"><svg t="1616124305584" class="icon" viewBox="0 0 1024 1024" version="1.1" xmlns="http://www.w3.org/2000/svg" p-id="6862" width="32" height="32" xmlns:xlink="http://www.w3.org/1999/xlink"><defs><style type="text/css"></style></defs><path d="M878.933333 441.787733a25.3952 25.3952 0 0 1-15.9744-5.597866l-323.413333-258.730667a30.208 30.208 0 0 0-37.9904 0l-323.413333 258.730667a25.6 25.6 0 1 1-31.982934-39.970134l323.3792-258.730666a81.169067 81.169067 0 0 1 101.9904 0l323.413334 258.730666a25.6 25.6 0 0 1-16.042667 45.568z m-133.393066 452.266667H614.4a25.6 25.6 0 0 1-25.6-25.6v-176.366933a2.833067 2.833067 0 0 0-2.798933-2.833067h-130.901334a2.833067 2.833067 0 0 0-2.833066 2.833067v176.366933a25.6 25.6 0 0 1-25.6 25.6H293.956267a80.6912 80.6912 0 0 1-80.622934-80.5888v-320.477867a25.6 25.6 0 1 1 51.2 0v320.477867c0 16.213333 13.2096 29.3888 29.422934 29.3888h107.1104v-150.766933c0-29.7984 24.234667-54.033067 54.033066-54.033067h130.901334c29.764267 0 53.998933 24.234667 53.998933 54.033067v150.766933h105.540267a31.061333 31.061333 0 0 0 30.993066-30.993067v-318.8736a25.6 25.6 0 1 1 51.2 0v318.8736a82.295467 82.295467 0 0 1-82.193066 82.193067z" p-id="6863"></path></svg>