<?xml version="1.0" encoding="UTF-8"?>
<svg width="48px" height="48px" viewBox="0 0 48 48" version="1.1" xmlns="http://www.w3.org/2000/svg" xmlns:xlink="http://www.w3.org/1999/xlink">
    <title>ico_tjj</title>
    <defs>
        <linearGradient x1="12.1232974%" y1="37.1484285%" x2="100%" y2="29.1851574%" id="linearGradient-1">
            <stop stop-color="#0692DE" offset="0%"></stop>
            <stop stop-color="#0692DE" stop-opacity="0" offset="100%"></stop>
        </linearGradient>
    </defs>
    <g id="页面-1" stroke="none" stroke-width="1" fill="none" fill-rule="evenodd">
        <g id="部门信息资源" transform="translate(-1166.000000, -919.000000)" fill-rule="nonzero">
            <g id="政务信息资源分类" transform="translate(0.000000, 534.000000)">
                <g id="card" transform="translate(1075.000000, 353.000000)">
                    <g id="ico_tjj" transform="translate(91.000000, 32.000000)">
                        <rect id="矩形" fill-opacity="0" fill="#D8D8D8" x="0" y="0" width="48" height="48"></rect>
                        <path d="M23.8628308,2.03345769 L24.1170681,11.2324577 L24.5418831,11.1531304 C38.5496026,8.56425719 49.8647461,11.9294163 47.6554735,22.7848291 C46.1677479,30.0948714 38.3214546,37.4393037 24.1165937,44.8181262 L23.8620681,35.6124577 L23.8628308,35.6181818 C9.65979054,38.3545455 -1.90763748,35.0318182 0.323950996,24.0667548 C1.81167665,16.7567125 9.65796992,9.41228014 23.8628308,2.03345769 Z M24.0961484,13.1630516 L24.0960681,13.1614577 L23.363102,13.382033 C22.3752682,13.6881356 21.3774319,14.0408848 20.3769702,14.4408488 C10.3125919,18.4643795 3.79370154,25.742327 5.81659042,30.6966118 C7.55453434,34.9528833 15.0315654,36.1094242 23.4856265,33.7995389 L23.8786571,33.6900394 C25.1062273,33.3365899 26.352291,32.9105246 27.6024543,32.4107351 C37.6668327,28.3872044 44.185723,21.1092569 42.1628033,16.1549845 C40.3976853,11.8320862 32.712403,10.7067166 24.0961484,13.1630516 Z" id="合并形状" fill="#0692DE"></path>
                        <path d="M23.8628308,2.03345769 L24.1170681,11.2324577 L24.5418831,11.1531304 C38.5496026,8.56425719 49.8647461,11.9294163 47.6554735,22.7848291 C46.1677479,30.0948714 38.3214546,37.4393037 24.1165937,44.8181262 L23.8620681,35.6124577 L23.8628308,35.6181818 C9.65979054,38.3545455 -1.90763748,35.0318182 0.323950996,24.0667548 C1.81167665,16.7567125 9.65796992,9.41228014 23.8628308,2.03345769 Z M24.0961484,13.1630516 L24.0960681,13.1614577 L23.363102,13.382033 C22.3752682,13.6881356 21.3774319,14.0408848 20.3769702,14.4408488 C10.3125919,18.4643795 3.79370154,25.742327 5.81659042,30.6966118 C7.55453434,34.9528833 15.0315654,36.1094242 23.4856265,33.7995389 L23.8786571,33.6900394 C25.1062273,33.3365899 26.352291,32.9105246 27.6024543,32.4107351 C37.6668327,28.3872044 44.185723,21.1092569 42.1628033,16.1549845 C40.3976853,11.8320862 32.712403,10.7067166 24.0961484,13.1630516 Z" id="合并形状" fill="#0692DE" transform="translate(23.989712, 23.425792) scale(-1, -1) translate(-23.989712, -23.425792) "></path>
                        <path d="M17.3140032,34.3633008 C31.3077158,31.6276921 39.5453963,26.3126524 42.0270449,18.4181818 L20.3854279,21.2575764 L17.3140032,34.3633008 Z" id="路径-5" fill="url(#linearGradient-1)"></path>
                    </g>
                </g>
            </g>
        </g>
    </g>
</svg>