<?xml version="1.0" encoding="UTF-8"?>
<svg width="48px" height="48px" viewBox="0 0 48 48" version="1.1" xmlns="http://www.w3.org/2000/svg" xmlns:xlink="http://www.w3.org/1999/xlink">
    <title>ico_gdzy</title>
    <g id="页面-1" stroke="none" stroke-width="1" fill="none" fill-rule="evenodd">
        <g id="部门信息资源" transform="translate(-1396.000000, -1069.000000)">
            <g id="政务信息资源分类" transform="translate(0.000000, 534.000000)">
                <g id="card" transform="translate(1305.000000, 503.000000)">
                    <g id="ico_gdzy" transform="translate(91.000000, 32.000000)">
                        <rect id="矩形" fill="#D8D8D8" opacity="0" x="0" y="0" width="48" height="48"></rect>
                        <g id="编组-12" transform="translate(5.000000, 5.000000)" fill-rule="nonzero">
                            <path d="M36.2389714,20.3875428 L22.1485714,20.3875428 C21.1801143,20.3875428 20.3864571,21.1801142 20.3864571,22.1485714 L20.3864571,36.2389714 C20.3864571,37.2074285 21.1790285,38 22.1485714,38 L28.7529714,38 C33.8384571,38 38,33.8384571 38,28.7529714 L38,22.1485714 C38,21.1801143 37.2074286,20.3875428 36.2389714,20.3875428 M34.4779429,23.9096 L34.4779429,28.7529714 C34.4779429,30.2729714 33.8786286,31.7082857 32.7907429,32.7950857 C31.723367,33.8724599 30.2695552,34.4783777 28.7529714,34.4779431 L23.9096,34.4779431 L23.9096,23.9096 L34.4779429,23.9096 M15.8514286,20.3875428 L1.76102859,20.3875428 C0.792571462,20.3875428 0,21.1801143 0,22.1485714 L0,28.7269143 C0,33.8254286 4.17457144,38 9.27308571,38 L15.8525143,38 C16.8198857,38 17.6135429,37.2074286 17.6135429,36.2389714 L17.6135429,22.1485714 C17.6135429,21.1801143 16.8209715,20.3875428 15.8514286,20.3875428 M14.0904,23.9096 L14.0904,34.4779428 L9.27308571,34.4779428 C7.74823615,34.477697 6.28656395,33.8687972 5.21251432,32.7864 C4.13172819,31.7114458 3.52377604,30.2501726 3.52314287,28.7258285 L3.52314287,23.9096 L14.0904,23.9096 M15.4247429,0 L9.28611428,0 C4.18000003,0 0,4.17891428 0,9.28611428 L0,15.4247429 C0.00298633606,16.6321686 0.98137295,17.6100699 2.1888,17.6124571 L15.4204,17.6124571 C16.6274031,17.6094732 17.6051303,16.6317459 17.6081143,15.4247429 L17.6081143,2.1888 C17.6075215,0.982322703 16.631215,0.00358878084 15.4247429,0 M14.0904,3.52205608 L14.0904,14.0904 L3.52314287,14.0904 L3.52314287,9.28611428 C3.52314287,7.75851428 4.1257143,6.3145143 5.21685716,5.21794285 C6.29230946,4.13181245 7.75762612,3.52113352 9.28611428,3.52205608 L14.0904,3.52205608" id="形状" fill="#0080FF"></path>
                            <path d="M28.8669714,0 L22.3657143,0 C21.4102857,0 20.6285715,0.781714285 20.6285715,1.73714284 L20.6285715,8.22102857 C20.6285715,13.2544 24.7456,17.3714285 29.7789714,17.3714285 L36.2628572,17.3714285 C37.2182857,17.3714285 38,16.5897143 38,15.6342857 L38,9.13302857 C38,4.10834284 33.8916572,0 28.8669714,0 M28.8669714,3.47428573 C30.3696,3.47428573 31.7853714,4.06491428 32.8580571,5.13759998 C33.9227893,6.19275223 34.5216419,7.62968578 34.5213715,9.12868573 L34.5213715,13.8971429 L29.7789714,13.8971429 C28.2744644,13.8972665 26.8325096,13.2951487 25.7748572,12.2251428 C24.7048513,11.1674904 24.1027335,9.72553557 24.1028571,8.22102857 L24.1028571,3.47428573 L28.8669714,3.47428573" id="形状" fill="#3D3E49"></path>
                        </g>
                    </g>
                </g>
            </g>
        </g>
    </g>
</svg>