<?xml version="1.0" encoding="UTF-8"?>
<svg width="460px" height="436px" viewBox="0 0 460 436" version="1.1" xmlns="http://www.w3.org/2000/svg" xmlns:xlink="http://www.w3.org/1999/xlink">
    <title>box_bg</title>
    <g id="页面-1" stroke="none" stroke-width="1" fill="none" fill-rule="evenodd">
        <g id="00" transform="translate(-1221.000000, -336.000000)">
            <g id="box_bg" transform="translate(1220.999670, 336.000000)">
                <path d="M413.916474,13.0001047 C413.318799,15.2325429 413,17.5790432 413,20 C413,27.4558441 416.022078,34.2058441 420.908117,39.0918831 C425.794156,43.9779221 432.544156,47 440,47 C442.421159,47 444.767849,46.6811474 447.000455,46.0833764 L447.000455,46.0833764 L447.000001,435 L20.4142136,435 L1,415.585786 L1,13.0000003 Z" id="形状结合" stroke-opacity="0.4" stroke="#0348CC" stroke-width="2" fill="#021665"></path>
                <path d="M16.0003297,12 L16.0003297,15 L3.0003297,15 L3.0003297,28 L0.000329701443,28 L0.000329701443,12 L16.0003297,12 Z" id="形状结合" fill="#2C61C6"></path>
                <path d="M448.00033,420 L448.00033,423 L435.00033,423 L435.00033,436 L432.00033,436 L432.00033,420 L448.00033,420 Z" id="形状结合" fill="#2C61C6" transform="translate(440.000330, 428.000000) scale(-1, -1) translate(-440.000330, -428.000000) "></path>
                <polygon id="路径" fill="#2C61C6" points="1.77635684e-15 425.217459 10.721 435.938459 0.000329701443 435.939459"></polygon>
                <path d="M460,21.5785333 C459.232814,31.420897 451.3754,39.2587568 441.52352,40 L441.52352,34.0624576 C448.099398,33.3570285 453.31995,28.1466207 454.050241,21.5785333 L460,21.5785333 Z M425.950844,21.5785333 C426.67788,28.1086361 431.844176,33.2940825 438.367967,34.0450932 L438.367967,39.9945736 C428.567088,39.204493 420.765015,31.3850829 420,21.5785333 L425.950844,21.5785333 Z M443.801204,25.4942073 L445.763116,27.4553002 C442.437198,30.0284885 437.819977,30.0946903 434.441973,27.6365412 L436.435353,25.6428901 C438.68808,27.0656863 441.595139,27.0222753 443.801204,25.4942073 Z M432.545168,14.2377296 L434.50708,16.1999078 C432.872877,18.5571262 432.933644,21.7163632 434.673105,24.0193179 L432.713363,25.9793255 C429.920243,22.5737309 429.861646,17.7073555 432.545168,14.2377296 Z M447.636048,14.4417614 C450.094949,17.8191388 450.028756,22.4369862 447.455917,25.7633557 L445.494005,23.8011775 C447.021865,21.5948124 447.06527,18.6873593 445.642667,16.4354125 L447.636048,14.4417614 Z M440,17.6368125 C441.305409,17.6368125 442.363409,18.6949562 442.363409,20.0005426 C442.363409,21.3050438 441.305409,22.3631875 440,22.3631875 C438.695676,22.3631875 437.637676,21.3050438 437.637676,20.0005426 C437.637676,18.6949562 438.695676,17.6368125 440,17.6368125 Z M441.52352,-2.13162821e-14 C451.3754,0.742328459 459.232814,8.5801883 460,18.422552 L454.050241,18.422552 C453.31995,11.8544646 448.100483,6.64297148 441.52352,5.93862767 L441.52352,-2.13162821e-14 Z M438.367967,0.00542637762 L438.367967,5.9549068 C431.844176,6.70591746 426.676795,11.8913639 425.950844,18.422552 L420,18.422552 C420.765015,8.61491711 428.567088,0.796592235 438.367967,0.00542637762 Z M445.979057,12.7129175 L444.019315,14.6729251 C441.716673,12.9332284 438.557864,12.872453 436.199881,14.5068779 L434.237969,12.5446998 C437.707124,9.86081341 442.573924,9.91941829 445.979057,12.7129175 Z" id="形状结合" fill="#0EACFC"></path>
            </g>
        </g>
    </g>
</svg>