<?xml version="1.0" encoding="UTF-8"?>
<svg width="18px" height="18px" viewBox="0 0 18 18" version="1.1" xmlns="http://www.w3.org/2000/svg" xmlns:xlink="http://www.w3.org/1999/xlink">
    <title>user-sel</title>
    <g id="页面-1" stroke="none" stroke-width="1" fill="none" fill-rule="evenodd">
        <g id="00" transform="translate(-1285.000000, -491.000000)">
            <g id="登录" transform="translate(1220.999670, 336.000000)">
                <g id="用户名" transform="translate(48.000330, 140.000000)">
                    <g id="user-sel" transform="translate(16.000000, 15.000000)">
                        <path d="M9,0 C6.51375,0 4.5,2.01375 4.5,4.5 C4.5,6.98625 6.51375,9 9,9 C11.48625,9 13.5,6.98625 13.5,4.5 C13.5,2.01375 11.48625,0 9,0 L9,0 Z M9,10.125 C5.99625,10.125 0,11.6325 0,14.625 L0,18 L18,18 L18,14.625 C18,11.6325 12.00375,10.125 9,10.125 L9,10.125 Z" id="Fill-110" fill="#FFFFFF"></path>
                        <path d="M9,2.1375 C10.305,2.1375 11.3625,3.195 11.3625,4.5 C11.3625,5.805 10.305,6.8625 9,6.8625 C7.695,6.8625 6.6375,5.805 6.6375,4.5 C6.6375,3.195 7.695,2.1375 9,2.1375 L9,2.1375 Z" id="Path" fill="#0EACFC"></path>
                    </g>
                </g>
            </g>
        </g>
    </g>
</svg>