<?xml version="1.0" encoding="UTF-8"?>
<svg width="18px" height="18px" viewBox="0 0 18 18" version="1.1" xmlns="http://www.w3.org/2000/svg" xmlns:xlink="http://www.w3.org/1999/xlink">
    <title>lock</title>
    <g id="页面-1" stroke="none" stroke-width="1" fill="none" fill-rule="evenodd">
        <g id="00" transform="translate(-1285.000000, -579.000000)" fill="#657FCD">
            <g id="登录" transform="translate(1220.999670, 336.000000)">
                <g id="密码" transform="translate(48.000330, 228.000000)">
                    <path d="M29.3926721,21 L29.3926721,19.2857143 C29.3926721,16.92 27.4726986,15 25.107017,15 C22.7413354,15 20.8213619,16.92 20.8213619,19.2857143 L20.8213619,21 L17.714262,21 C16.7714179,21 16,21.7714286 16,22.7142857 L16,31.2857143 C16,32.2285714 16.7714179,33 17.714262,33 L32.285738,33 C33.2285821,33 34,32.2285714 34,31.2857143 L34,22.7142857 C34,21.7714286 33.2285821,21 32.285738,21 L29.3926721,21 Z M27.7641231,19.2857143 L27.7641231,21 L22.4499109,21 L22.4499109,19.2857143 C22.4499109,17.82 23.641323,16.6285714 25.107017,16.6285714 C26.572711,16.6285714 27.7641231,17.82 27.7641231,19.2857143 Z M32.285738,22.7142857 L32.285738,31.2857143 L17.714262,31.2857143 L17.714262,22.7142857 L32.285738,22.7142857 Z M25,25.1251399 C23.7625,25.1251399 22.75,26.1376539 22.75,27.375171 C22.75,28.6121256 23.7625,29.6252021 25,29.6252021 C26.2375,29.6252021 27.25,28.6121256 27.25,27.375171 C27.25,26.1376539 26.2375,25.1251399 25,25.1251399 Z" id="lock"></path>
                </g>
            </g>
        </g>
    </g>
</svg>