<?xml version="1.0" encoding="UTF-8"?>
<svg width="18px" height="18px" viewBox="0 0 18 18" version="1.1" xmlns="http://www.w3.org/2000/svg" xmlns:xlink="http://www.w3.org/1999/xlink">
    <title>user</title>
    <g id="页面-1" stroke="none" stroke-width="1" fill="none" fill-rule="evenodd">
        <g id="00" transform="translate(-1285.000000, -491.000000)" fill="#657FCD">
            <g id="登录" transform="translate(1220.999670, 336.000000)">
                <g id="用户名" transform="translate(48.000330, 140.000000)">
                    <path d="M25,17.1375 C26.305,17.1375 27.3625,18.195 27.3625,19.5 C27.3625,20.805 26.305,21.8625 25,21.8625 C23.695,21.8625 22.6375,20.805 22.6375,19.5 C22.6375,18.195 23.695,17.1375 25,17.1375 L25,17.1375 Z M25,27.2625 C28.34125,27.2625 31.8625,28.905 31.8625,29.625 L31.8625,30.8625 L18.1375,30.8625 L18.1375,29.625 C18.1375,28.905 21.65875,27.2625 25,27.2625 L25,27.2625 Z M25,15 C22.51375,15 20.5,17.01375 20.5,19.5 C20.5,21.98625 22.51375,24 25,24 C27.48625,24 29.5,21.98625 29.5,19.5 C29.5,17.01375 27.48625,15 25,15 L25,15 Z M25,25.125 C21.99625,25.125 16,26.6325 16,29.625 L16,33 L34,33 L34,29.625 C34,26.6325 28.00375,25.125 25,25.125 L25,25.125 Z" id="user"></path>
                </g>
            </g>
        </g>
    </g>
</svg>