<?xml version="1.0" encoding="UTF-8"?>
<svg width="48px" height="48px" viewBox="0 0 48 48" version="1.1" xmlns="http://www.w3.org/2000/svg" xmlns:xlink="http://www.w3.org/1999/xlink">
    <title>ico-005</title>
    <g id="页面-1" stroke="none" stroke-width="1" fill="none" fill-rule="evenodd">
        <g id="首页修改02" transform="translate(-1396.000000, -769.000000)" fill-rule="nonzero">
            <g id="政务信息资源分类" transform="translate(0.000000, 534.000000)">
                <g id="02" transform="translate(1305.000000, 203.000000)">
                    <g id="ico-005" transform="translate(91.000000, 32.000000)">
                        <path d="M0,45.9581625 L0,27 C-1.3527075e-16,25.8954305 0.8954305,25 2,25 L46,25 C47.1045695,25 48,25.8954305 48,27 L48,45.9581625 C48,47.062732 47.1045695,47.9581625 46,47.9581625 L2,47.9581625 C0.8954305,47.9581625 1.3527075e-16,47.062732 0,45.9581625 Z" id="形状" fill="#FEB581"></path>
                        <path d="M9,39.5 C9,38.1285714 10.1285714,37 11.5,37 C12.8714286,37 14,38.1285714 14,39.5 C14,40.8714286 12.8714286,42 11.5,42 C10.1285714,42 9,40.8714286 9,39.5 Z M24.5,42 C23.1285714,42 22,40.8714286 22,39.5 C22,38.1285714 23.1285714,37 24.5,37 C25.8714286,37 27,38.1285714 27,39.5 C27,40.8714286 25.8714286,42 24.5,42 Z M37.5,42 C36.1285714,42 35,40.8714286 35,39.5 C35,38.1285714 36.1285714,37 37.5,37 C38.8714286,37 40,38.1285714 40,39.5 C40,40.8714286 38.8714286,42 37.5,42 Z" id="形状" fill="#FFFFFF"></path>
                        <path d="M26.007,14.22 L26.007,14.221 L35.993,14.221 C38.8927325,14.2211335 41.3774312,16.295013 41.896,19.148 L43,25.22 L31.3210419,25.22 L30.8476097,22.6113437 C30.1093828,18.5498735 26.7145705,15.5409631 22.6522857,15.2449595 C23.6156557,14.5951816 24.7737953,14.2200568 26.007,14.22 Z M30.9999999,0 C34.3137085,0 36.9999999,2.6862915 36.9999999,6 C36.9999999,9.3137085 34.3137085,12 30.9999999,12 C28.8564064,12 26.8756443,10.8564065 25.8038475,9 C24.7320507,7.14359355 24.7320507,4.85640645 25.8038475,3 C26.8756443,1.1435935 28.8564064,0 30.9999999,0 Z" id="合并形状" fill="#FE9824"></path>
                        <path d="M17,16 C13.6862915,16 11,13.3137085 11,10 C11,6.6862915 13.6862915,4 17,4 C20.3137085,4 23,6.6862915 23,10 C23,13.3137085 20.3137085,16 17,16 Z M12.007,18.221 L21.993,18.221 C24.8927325,18.2211335 27.3774312,20.295013 27.896,23.148 L29,29.22 L5,29.22 L6.104,23.147 C6.62256883,20.294013 9.1072675,18.2201335 12.007,18.22 L12.007,18.221 Z" id="a" fill="#FE9824"></path>
                    </g>
                </g>
            </g>
        </g>
    </g>
</svg>