<?xml version="1.0" encoding="UTF-8"?>
<svg width="16px" height="16px" viewBox="0 0 16 16" version="1.1" xmlns="http://www.w3.org/2000/svg" xmlns:xlink="http://www.w3.org/1999/xlink">
    <title>bumen</title>
    <g id="页面-1" stroke="none" stroke-width="1" fill="none" fill-rule="evenodd">
        <g id="首页修改02" transform="translate(-460.000000, -434.000000)" fill="#3D485D" fill-rule="nonzero">
            <g id="编组-8" transform="translate(360.000000, 334.000000)">
                <g id="编组-7" transform="translate(100.000000, 22.000000)">
                    <g id="编组-6备份-3" transform="translate(0.000000, 72.000000)">
                        <g id="bumen" transform="translate(0.000000, 6.000000)">
                            <path d="M10.6666667,11.0769231 L10.6666667,16 L16,16 L16,11.0769231 L10.6666667,11.0769231 Z M14.6666667,14.7692308 L12,14.7692308 L12,12.3076923 L14.6666667,12.3076923 L14.6666667,14.7692308 Z M0,16 L5.33333333,16 L5.33333333,11.0769231 L0,11.0769231 L0,16 Z M1.33333334,12.3076923 L4.00000001,12.3076923 L4.00000001,14.7692308 L1.33333334,14.7692308 L1.33333334,12.3076923 Z M14,9.84615384 L14.6666667,9.84615384 L14.6666667,8.61538461 L8.66666666,8.61538461 L8.66666666,7.38461539 L12,7.38461539 L12,0 L4.00000001,0 L4.00000001,7.38461539 L7.33333334,7.38461539 L7.33333334,8.61538461 L1.33333334,8.61538461 L1.33333334,9.84615384 L14,9.84615384 L14,9.84615384 Z M6.66666666,4.92307692 L6.66666666,2.46153847 L9.33333334,2.46153847 L9.33333334,4.92307692 L6.66666666,4.92307692 Z" id="形状"></path>
                        </g>
                    </g>
                </g>
            </g>
        </g>
    </g>
</svg>