<?xml version="1.0" encoding="UTF-8"?>
<svg width="20px" height="16px" viewBox="0 0 20 16" version="1.1" xmlns="http://www.w3.org/2000/svg" xmlns:xlink="http://www.w3.org/1999/xlink">
    <title>24gf-folderShare</title>
    <g id="页面-1" stroke="none" stroke-width="1" fill="none" fill-rule="evenodd">
        <g id="首页修改02" transform="translate(-1071.000000, -434.000000)" fill="#3D485D" fill-rule="nonzero">
            <g id="编组-8" transform="translate(360.000000, 334.000000)">
                <g id="编组-7" transform="translate(100.000000, 22.000000)">
                    <g id="编组-6备份" transform="translate(611.000000, 72.000000)">
                        <g id="24gf-folderShare" transform="translate(0.000000, 6.000000)">
                            <path d="M18.9130435,2.52632241 L10.2701087,2.52632241 C10.2124213,2.5265009 10.1570687,2.50427228 10.1164402,2.46461193 L7.88980977,0.30829719 C7.6864012,0.110251162 7.40963345,-0.000759729667 7.12119565,3.91389598e-06 L1.08695652,3.91389598e-06 C0.486926359,0.000660484385 0.000673886128,0.471557393 0,1.05263894 L0,14.9473689 C0.000673897357,15.5284505 0.486926367,15.9993474 1.08695652,16.0000039 L18.9130435,16.0000039 C19.5130736,15.9993474 19.9993261,15.5284505 20,14.9473689 L20,3.57895349 C19.9993261,2.99787194 19.5130736,2.52697503 18.9130435,2.52632241 Z M12.173913,8.42105636 C11.7174044,8.42131181 11.279217,8.2471748 10.9544837,7.93645134 L9.49374999,8.78513514 C9.60643266,9.15399749 9.58533568,9.54910036 9.43396739,9.90473984 L10.21875,10.4747396 C10.9021475,9.94679707 11.8842807,9.99323165 12.5113243,10.5831309 C13.138368,11.1730301 13.2147465,12.1224039 12.6896133,12.7992355 C12.1644802,13.4760671 11.2016247,13.6692522 10.4420387,13.2501836 C9.68245278,12.831115 9.36305184,11.9305006 9.69646739,11.1478971 L8.91168477,10.5778974 C8.18257896,11.1431792 7.12260344,11.0498209 6.51076473,10.3664342 C5.89892602,9.68304756 5.9537167,8.65367545 6.63486952,8.0348331 C7.31602234,7.41599074 8.38029209,7.42867178 9.0455163,8.06355654 L10.50625,7.21487275 C10.2936036,6.51916217 10.5649321,5.76976252 11.179643,5.35498508 C11.7943539,4.94020765 12.6142687,4.95328863 13.2145379,5.38744996 C13.814807,5.82161128 14.0604983,6.5792595 13.8243035,7.26780924 C13.5881087,7.95635898 12.9231213,8.42103381 12.173913,8.42105636 Z" id="形状"></path>
                        </g>
                    </g>
                </g>
            </g>
        </g>
    </g>
</svg>