<?xml version="1.0" encoding="UTF-8"?>
<svg width="48px" height="48px" viewBox="0 0 48 48" version="1.1" xmlns="http://www.w3.org/2000/svg" xmlns:xlink="http://www.w3.org/1999/xlink">
    <title>ico-11</title>
    <g id="页面-1" stroke="none" stroke-width="1" fill="none" fill-rule="evenodd">
        <g id="首页修改01" transform="translate(-476.000000, -1069.000000)">
            <g id="政务信息资源分类" transform="translate(0.000000, 534.000000)">
                <g id="card" transform="translate(385.000000, 503.000000)">
                    <g id="ico-11" transform="translate(91.000000, 32.000000)">
                        <path d="M24.0000181,48 C16.5439523,48.0105641 10.6773496,45.8988088 6.40020999,41.6657548 C2.12307036,37.433231 -0.0101423117,31.6265668 0,24.2473168 C7.47003061,24.251064 13.3366333,26.3622891 17.5998444,30.5815581 C21.8550197,34.792344 23.9882324,40.5841629 24.0000181,47.9570147 C23.9978753,40.5979479 26.1310879,34.806129 30.4001919,30.5815581 C34.6773315,26.3485041 40.5439342,24.237279 48,24.2473168 C47.9967857,31.6403518 45.863573,37.4464858 41.5998263,41.6657548 C37.3366152,45.8850238 31.4700125,47.9962489 24.0000181,48 Z" id="路径" fill="#C0F5B6"></path>
                        <path d="M24.0000181,47.9999603 C30.6000131,41.4621611 33.8994749,34.4641551 33.8994749,27.0054121 C33.8994749,19.5466692 30.5994774,6.53779921 24.0000181,0 C17.4005588,6.51341037 14.1005613,19.5222803 14.1005613,27.0054121 C14.1005613,34.4885439 17.4005588,41.4865499 24.0000181,47.9999603 Z" id="路径" fill="#2ACF35"></path>
                        <path d="M33.886352,27.8183214 C33.6548255,34.9731543 30.3597005,41.7002091 24.0000181,47.9999603 C17.6412749,41.7241273 14.3456866,34.9984053 14.1137326,27.8223202 C15.3757162,28.6097658 16.5375563,29.5302193 17.5998444,30.5815581 C21.753706,34.6920872 23.8854479,40.3092583 23.9955684,47.4330713 L23.9997257,47.9081048 L24.0034966,47.4340325 C24.1006676,40.3230354 26.2327333,34.705544 30.4001919,30.5815581 C31.4185584,29.5736881 32.5270306,28.6861032 33.7256084,27.9187957 Z" id="合并形状" fill="#FFFFFF"></path>
                    </g>
                </g>
            </g>
        </g>
    </g>
</svg>