<?xml version="1.0" encoding="UTF-8"?>
<svg width="48px" height="48px" viewBox="0 0 48 48" version="1.1" xmlns="http://www.w3.org/2000/svg" xmlns:xlink="http://www.w3.org/1999/xlink">
    <title>ico-16</title>
    <g id="页面-1" stroke="none" stroke-width="1" fill="none" fill-rule="evenodd">
        <g id="首页修改01" transform="translate(-476.000000, -1219.000000)">
            <g id="政务信息资源分类" transform="translate(0.000000, 534.000000)">
                <g id="card" transform="translate(385.000000, 653.000000)">
                    <g id="ico-16" transform="translate(91.000000, 32.000000)">
                        <path d="M38.9879518,10.001381 L41.5421687,12.1317811 L38.262,16.509381 L41.663,19.207381 L45.060241,14.7947811 L47.6144578,16.9251812 L44.323,21.318381 L48,24.2363269 L42.6506024,31.0148725 C41.9277108,31.7411453 40.9156626,32.1769089 39.5180723,32.2253271 C38.1686747,32.2737453 37.1566265,31.8863998 36.4819277,31.0148725 L33.9759036,34.4525636 L31.087,32.185381 L31.373494,32.4189999 L24,42.0058002 L24,35.6630181 L28.3,29.998381 L25.8313253,28.0613634 L28.4819277,24.6720906 C27.0843373,23.8973996 26.3614457,22.7353632 26.3614457,21.1375632 C26.3614457,20.7017995 26.3614457,19.4429267 27.2771084,18.1356358 C28.7710843,15.9083994 30.3614457,13.7295811 32.0963855,11.6475992 L35.603,14.398381 L38.9879518,10.001381 Z" id="合并形状" fill="#8CE1C0"></path>
                        <path d="M6.36246334,0 L18.1571847,0 C19.3395895,0 20.3530792,0.968668512 20.3530792,2.22223954 L20.3530792,5.29918663 C20.3530792,6.49577717 19.3958944,7.52142617 18.1571847,7.52142617 L6.36246334,7.52142617 C5.18005863,7.52142617 4.16656892,6.55275765 4.16656892,5.29918663 L4.16656892,2.22223954 C4.16656892,0.968668512 5.18005863,0 6.36246334,0 Z" id="路径" fill="#20C082"></path>
                        <path d="M3.82873902,5.98295262 L20.5782991,5.98295262 C22.7178886,5.98295262 24.4070381,7.69236766 24.4070381,9.85762672 L24.4070381,44.1239418 C24.4070381,46.2892008 22.7178886,47.9986159 20.5782991,47.9986159 L3.82873902,47.9986159 C1.68914956,48.0555964 0,46.3461813 0,44.1809223 L0,9.9146072 C0,7.74934815 1.68914956,5.98295262 3.82873902,5.98295262 Z" id="路径" fill="#20C082"></path>
                        <path d="M4.61700881,29.0810895 L19.7337243,33.9244321 L19.7337243,39.4515407 C19.7337243,41.1609557 18.3260997,42.5854683 16.6369501,42.5854683 L7.77008797,42.5854683 C6.0809384,42.5854683 4.67331377,41.1609557 4.67331377,39.4515407 L4.67331377,29.0810895 L4.61700881,29.0810895 Z M4.84222873,16.3174572 L19.7337243,20.8758973 L19.7337243,30.961446 L4.84222873,26.4599864 L4.84222873,16.3174572 Z" id="形状" fill="#FFFFFF" fill-rule="nonzero"></path>
                    </g>
                </g>
            </g>
        </g>
    </g>
</svg>