<?xml version="1.0" encoding="UTF-8"?>
<svg width="48px" height="48px" viewBox="0 0 48 48" version="1.1" xmlns="http://www.w3.org/2000/svg" xmlns:xlink="http://www.w3.org/1999/xlink">
    <title>ico-10</title>
    <g id="页面-1" stroke="none" stroke-width="1" fill="none" fill-rule="evenodd">
        <g id="首页修改01" transform="translate(-1396.000000, -919.000000)" fill-rule="nonzero">
            <g id="政务信息资源分类" transform="translate(0.000000, 534.000000)">
                <g id="card" transform="translate(1305.000000, 353.000000)">
                    <g id="ico-10" transform="translate(91.000000, 32.000000)">
                        <path d="M0.0324983074,44.7108279 L5.65470548,44.7108279 L5.65470548,42.3245658 L7.18212593,40.1317844 L9.39201083,40.1317844 L9.39201083,8.48090451 L0,8.48090451 L0,4.5790435 L1.88490183,4.5790435 L10.2694651,1.5155989 L10.9844279,0 L12.9343263,0 L13.6492891,1.35436498 L25.5436696,4.54679671 L31.5233582,4.54679671 L33.6357481,5.99790205 L33.6357481,8.48090451 L29.8984428,8.48090451 L29.8984428,12.5762462 L30.2884225,12.5762462 L30.2884225,14.414313 L33.0182803,16.0266522 L33.40826,16.0266522 L33.40826,20.8314232 L25.478673,20.8314232 L25.478673,16.0266522 L25.8686527,16.0266522 L28.5985105,14.414313 L28.5985105,12.5762462 L28.9884902,12.5762462 L28.9884902,8.48090451 L14.5592417,8.48090451 L14.5592417,9.158087 L17.0616114,9.158087 L18.81652,11.2218813 L18.81652,16.058899 L14.5592417,16.058899 L14.5592417,40.0995376 L16.8016249,40.0995376 L18.3290454,42.292319 L18.3290454,44.6785811 L21.3838863,44.6785811 L21.3838863,31.884339 L24.9911984,31.884339 L24.9911984,34.1062745 L32.1083277,34.1062745 L32.1083277,30.7910409 L28.2410291,30.7910409 L28.2410291,28.533766 L32.1733243,28.533766 L32.1733243,26.727946 L36.4631009,26.727946 L36.4631009,28.533766 L43.5802302,28.533766 L43.5802302,24.2157894 L38.7054841,24.2157894 L38.7054841,21.9262676 L47.9675017,21.9262676 C47.9675017,32.2129921 48,48 48,48 L0.0974949221,48 L0.0974949221,44.7108279 L0.0324983074,44.7108279 Z M29.7684496,14.9625083 L29.18348,14.9625083 L27.3635748,16.0266522 L31.5558565,16.0266522 L29.7684496,14.9625083 Z M14.169262,2.25727496 L15.3716994,4.54679671 L22.7163169,4.54679671 L14.169262,2.25727496 Z M4.09478673,4.5790435 L8.8070413,4.5790435 L9.78199052,2.51524925 L4.09478673,4.5790435 Z M0.0324983074,9.19033378 L0.0324983074,12.2860252 L5.81719702,12.2860252 L5.81719702,9.19033378 L0.0324983074,9.19033378 Z M36.4631009,39.7770698 L43.5802302,39.7770698 L43.5802302,36.4602898 L36.4631009,36.4602898 L36.4631009,39.7770698 Z M36.4631009,34.1385213 L43.5802302,34.1385213 L43.5802302,30.8232877 L36.4631009,30.8232877 L36.4631009,34.1385213 Z M24.9911984,36.4602898 L24.9911984,39.7770698 L32.1083277,39.7770698 L32.1083277,36.4602898 L24.9911984,36.4602898 Z" id="形状" fill="#FFBF4D"></path>
                        <path d="M21.3838863,44.6785811 L21.3838863,31.884339 L24.9911984,31.884339 L24.9911984,34.1062745 L32.1083277,34.1062745 L32.1083277,30.7910409 L28.2410291,30.7910409 L28.2410291,28.533766 L32.1733243,28.533766 L32.1733243,26.727946 L36.4631009,26.727946 L36.4631009,28.533766 L43.5802302,28.533766 L43.5802302,24.2157894 L38.7054841,24.2157894 L38.7054841,21.9262676 L47.9675017,21.9262676 C47.9675017,32.2129921 48,48 48,48 L21.3838863,48 L21.3838863,44.6785811 Z M36.4631009,39.7770698 L43.5802302,39.7770698 L43.5802302,36.4602898 L36.4631009,36.4602898 L36.4631009,39.7770698 Z M36.4631009,34.1385213 L43.5802302,34.1385213 L43.5802302,30.8232877 L36.4631009,30.8232877 L36.4631009,34.1385213 Z M24.9911984,36.4602898 L24.9911984,39.7770698 L32.1083277,39.7770698 L32.1083277,36.4602898 L24.9911984,36.4602898 Z" id="形状" fill="#FFE4A6"></path>
                    </g>
                </g>
            </g>
        </g>
    </g>
</svg>