<?xml version="1.0" encoding="UTF-8"?>
<svg width="48px" height="48px" viewBox="0 0 48 48" version="1.1" xmlns="http://www.w3.org/2000/svg" xmlns:xlink="http://www.w3.org/1999/xlink">
    <title>ico-14</title>
    <g id="页面-1" stroke="none" stroke-width="1" fill="none" fill-rule="evenodd">
        <g id="首页修改01" transform="translate(-1166.000000, -1069.000000)">
            <g id="政务信息资源分类" transform="translate(0.000000, 534.000000)">
                <g id="card" transform="translate(1075.000000, 503.000000)">
                    <g id="ico-14" transform="translate(91.000000, 32.000000)">
                        <path d="M35.5400161,47.361452 C36.16442,48.0165755 37.148049,48.1873995 37.9595319,47.7816423 C39.3555566,47.2058333 40.6517016,46.4158389 41.8005132,45.4405819 C42.4609144,44.7644068 42.7632529,43.8198499 42.6170997,42.8894264 C42.419372,41.5091837 42.6294948,40.1016571 43.2219787,38.8375912 C43.8533179,37.6259949 44.9397154,36.7095904 46.2463734,36.2864357 C47.0811397,35.9666278 47.6882767,35.2390653 47.8493026,34.3655656 C48.0502325,32.8112276 48.0502325,31.2377829 47.8493026,29.6834449 C47.7120903,28.8366503 47.1552949,28.1149463 46.3673492,27.7625748 C45.0606911,27.33942 43.9742937,26.4230155 43.3429545,25.2114193 C42.6793193,23.9155499 42.426283,22.4507473 42.6170997,21.0095161 C42.7632529,20.0790927 42.4609144,19.1345357 41.8005132,18.4583606 C40.6517016,17.4831036 39.3555566,16.6931092 37.9595319,16.1173002 C37.148049,15.711543 36.16442,15.882367 35.5400161,16.5374905 C33.5015594,18.443258 30.3199255,18.443258 28.2814688,16.5374905 C27.657065,15.882367 26.6734359,15.711543 25.861953,16.1173002 C24.4659284,16.6931092 23.1697833,17.4831036 22.0209718,18.4583606 C21.2520706,19.0653357 20.929381,20.0734731 21.2043852,21.0095161 C21.8083168,23.7985853 20.2650282,26.606398 17.5751116,27.6125069 C16.6507164,27.7967525 15.9822937,28.5977568 15.9721824,29.5333769 C15.802173,30.3017113 15.7310363,31.0883401 15.7604747,31.8744373 C15.7310363,32.6605345 15.802173,33.4471633 15.9721824,34.2154976 C15.9822937,35.1511178 16.6507164,35.9521221 17.5751116,36.1363677 C18.8817696,36.5595225 19.968167,37.475927 20.5995063,38.6875232 C21.1919901,39.9515892 21.402113,41.3591157 21.2043852,42.7393585 C21.058232,43.6697819 21.3605705,44.6143389 22.0209718,45.290514 C23.1697833,46.2657709 24.4659284,47.0557654 25.861953,47.6315743 C26.6734359,48.0373316 27.657065,47.8665075 28.2814688,47.211384 C29.2101844,46.1951486 30.5282953,45.6155655 31.9107425,45.6155655 C33.2931896,45.6155655 34.6113005,46.1951486 35.5400161,47.211384 L35.5400161,47.361452 Z M26.8600033,32.0245052 C26.8600033,29.2563048 29.1212962,27.012235 31.9107425,27.012235 C34.7001887,27.012235 36.9614816,29.2563048 36.9614816,32.0245052 C36.9614816,34.7927057 34.7001887,37.0367755 31.9107425,37.0367755 C30.5637316,37.0614603 29.2645532,36.541314 28.3119103,35.5959269 C27.3592675,34.6505398 26.835129,33.3612566 26.8600033,32.0245052 Z" id="形状" fill="#FF7F41" fill-rule="nonzero"></path>
                        <path d="M12.1155869,34.7857559 C11.9361642,33.8658907 11.8628608,32.929808 11.8970067,31.9944916 C11.8628608,31.0591753 11.9361642,30.1230926 12.1155869,29.2032274 C12.3414135,27.0320403 13.9478219,25.2246645 16.1437073,24.6711746 C17.3037832,24.1260005 17.9042803,22.8712472 17.5800913,21.6698152 C17.0270651,19.5478971 17.8070542,17.3104787 19.5785387,15.9372186 C20.9712947,14.7907737 22.5408881,13.8592498 24.2311739,13.1759679 C24.9492797,12.8344953 25.7407237,12.6597351 26.5418786,12.6657368 C28.0536859,12.6641562 29.499406,13.2612495 30.5387732,14.3164845 C30.9113112,14.5997385 31.3754077,14.7484321 31.8502543,14.7366749 L31.8502543,6.00271888 L15.9563529,0 L0,6.00271888 L0,18.3983334 C0.177607225,26.1267657 5.07195512,33.0304071 12.4902958,36.0163133 C12.3110995,35.6232378 12.1851664,35.209669 12.1155869,34.7857559 Z" id="路径" fill="#FFCDB4"></path>
                    </g>
                </g>
            </g>
        </g>
    </g>
</svg>