<?xml version="1.0" encoding="UTF-8"?>
<svg width="48px" height="48px" viewBox="0 0 48 48" version="1.1" xmlns="http://www.w3.org/2000/svg" xmlns:xlink="http://www.w3.org/1999/xlink">
    <title>ico-06</title>
    <g id="页面-1" stroke="none" stroke-width="1" fill="none" fill-rule="evenodd">
        <g id="首页修改01" transform="translate(-476.000000, -919.000000)">
            <g id="政务信息资源分类" transform="translate(0.000000, 534.000000)">
                <g id="card" transform="translate(385.000000, 353.000000)">
                    <g id="ico-06" transform="translate(91.000000, 32.000000)">
                        <path d="M28.620776,45.0912703 L28.620776,8.726189 L30.0699127,8.726189 C30.8716892,8.726189 31.5190495,8.07649323 31.5190495,7.27182416 L31.5190495,1.45436483 C31.5190495,0.649695766 30.8716892,0 30.0699127,0 L1.44913677,0 C0.647360278,0 0,0.649695766 0,1.45436483 L0,7.27182416 C0,8.07649323 0.647360278,8.726189 1.44913677,8.726189 L2.89827354,8.726189 L2.97548164,45.0912703 L1.44913677,45.0912703 C0.647360278,45.0912703 0,45.7409661 0,46.5456352 C0,47.3503042 0.647360278,48 1.44913677,48 L44.5612804,48 C45.3630569,48 46.0104172,47.3503042 46.0104172,46.5456352 C46.0104172,45.7469266 45.3630569,45.0912703 44.5612804,45.0912703 L28.620776,45.0912703 Z" id="路径" fill="#FF7A7E"></path>
                        <path d="M41.864953,37.6763939 C45.7234796,36.9313299 48.3565783,33.5338383 47.9606709,29.8204396 C47.5647634,26.1070409 44.2655347,23.2817584 40.3315971,23.2817584 C36.3976596,23.2817584 33.0984309,26.1070409 32.7025234,29.8204396 C32.306616,33.5338383 34.9397147,36.9313299 38.7982413,37.6763939 L38.7982413,45.0912703 L41.864953,45.0912703 L41.864953,37.6763939 Z" id="路径" fill="#FFBFBB"></path>
                        <polygon id="路径" fill="#FFFFFF" points="4.38238104 5.81745933 2.92158736 5.81745933 2.92158736 2.90872967 28.8510026 2.90872967 28.8510026 5.81745933"></polygon>
                        <polygon id="路径" fill="#FFBFBB" points="12.3210657 33.0629579 19.6730381 33.0629579 19.6730381 44.936297 12.3210657 44.936297"></polygon>
                        <path d="M18.9905361,24.7242022 L21.9121235,24.7242022 C22.7203495,24.7242022 23.3729171,24.0745064 23.3729171,23.2698373 C23.3729171,22.4651683 22.7203495,21.8154725 21.9121235,21.8154725 L18.9905361,21.8154725 C18.1823101,21.8154725 17.5297424,22.4651683 17.5297424,23.2698373 C17.5297424,24.0745064 18.1823101,24.7242022 18.9905361,24.7242022 Z M9.86046647,24.7242022 L12.7820538,24.7242022 C13.5902798,24.7242022 14.2428475,24.0745064 14.2428475,23.2698373 C14.2428475,22.4651683 13.5902798,21.8154725 12.7820538,21.8154725 L9.86046647,21.8154725 C9.05224046,21.8154725 8.39967279,22.4651683 8.39967279,23.2698373 C8.39967279,24.0745064 9.05224046,24.7242022 9.86046647,24.7242022 Z M18.9905361,15.9980132 L21.9121235,15.9980132 C22.7203495,15.9980132 23.3729171,15.3483174 23.3729171,14.5436483 C23.3729171,13.7389793 22.7203495,13.0892835 21.9121235,13.0892835 L18.9905361,13.0892835 C18.1823101,13.0892835 17.5297424,13.7389793 17.5297424,14.5436483 C17.5297424,15.3483174 18.1823101,15.9980132 18.9905361,15.9980132 Z M9.86046647,15.9980132 L12.7820538,15.9980132 C13.5902798,15.9980132 14.2428475,15.3483174 14.2428475,14.5436483 C14.2428475,13.7389793 13.5902798,13.0892835 12.7820538,13.0892835 L9.86046647,13.0892835 C9.05224046,13.0892835 8.39967279,13.7389793 8.39967279,14.5436483 C8.39967279,15.3483174 9.05224046,15.9980132 9.86046647,15.9980132 Z" id="形状" fill="#FFFFFF" fill-rule="nonzero"></path>
                    </g>
                </g>
            </g>
        </g>
    </g>
</svg>