<?xml version="1.0" encoding="UTF-8"?>
<svg width="48px" height="48px" viewBox="0 0 48 48" version="1.1" xmlns="http://www.w3.org/2000/svg" xmlns:xlink="http://www.w3.org/1999/xlink">
    <title>ico-07</title>
    <g id="页面-1" stroke="none" stroke-width="1" fill="none" fill-rule="evenodd">
        <g id="首页修改01" transform="translate(-706.000000, -919.000000)" fill-rule="nonzero">
            <g id="政务信息资源分类" transform="translate(0.000000, 534.000000)">
                <g id="card" transform="translate(615.000000, 353.000000)">
                    <g id="ico-07" transform="translate(91.000000, 32.000000)">
                        <path d="M7.10742408,16.0768442 C7.60764985,16.5655784 7.94718968,16.5655784 8.44741545,16.0768442 L8.54552269,15.9895633 C8.482944,16.3429827 8.46820776,16.7418975 8.46820771,17.1128902 C8.46820771,17.1128902 8.49041307,30.3131335 8.47850294,30.2739737 L12.5398597,30.2739737 L12.5398597,17.1779116 C12.5398597,14.6748821 13.1163911,14.1627169 14.5845679,12.3950341 L20.88281,6.85181674 C22.9002661,5.07632358 24.5654648,4.99021422 26.4983388,7.00216646 L32.840386,12.6320789 C34.6184281,14.239649 34.5996545,16.8653014 34.5996545,17.1779116 L34.5996545,28.0278182 L38.4946732,28.0278182 C38.5041609,27.8868409 38.5310092,27.7505499 38.5310092,27.6070343 L38.5310092,17.0752052 C38.5310092,16.8215633 38.5114281,16.5728029 38.4817537,16.3269714 C38.9743085,16.6067781 39.6055458,16.5610874 40.0272454,16.1475281 L40.4824549,15.7007747 C40.9853049,15.2073544 40.9853049,14.4075721 40.4824549,13.9141518 L35.5183501,9.47610225 L35.5776989,3.80987153 C35.5776989,3.03461872 34.9279656,2.40615214 34.1264789,2.40615214 L33.1502514,2.40615214 C32.3487648,2.40615214 31.6990314,3.03461872 31.6990314,3.80987153 L31.6990314,6.06140695 L25.9793394,0.947760123 C25.2199168,0.396738275 24.8874423,0.00290018845 23.7232768,0.0198877561 C22.4573705,-0.122456311 21.5836913,0.529319367 21.0834655,1.01824873 L6.6544351,13.8643606 C6.15420933,14.3530947 6.15420933,15.1456524 6.6544351,15.6345818 L7.10742408,16.0768442 Z M21.7225756,29.7123205 L27.5278591,28.0278182 L27.5278591,16.161782 L21.7225756,16.161782 L21.7225756,29.7123205 Z" id="形状" fill="#8CE1C0"></path>
                        <path d="M33.8910846,31.1249069 C28.3355338,29.5733762 24.4577628,32.4204526 23.0067841,32.4204526 L11.5994883,32.4204526 C9.78566693,32.4204526 7.72897033,36.2096553 11.5994883,37.4108908 L21.0712311,37.4108908 C21.0712311,37.4108908 20.930681,39.6136114 19.0566799,39.6136114 L9.69000663,39.6136114 C9.69000663,39.6136114 5.87770812,35.5334722 5.25709228,34.8881401 C3.89804941,33.1944607 2.51450337,34.7286133 2.51450337,34.7286133 C2.51450337,34.7286133 -1.82431889,34.4679421 0.896903267,38.7314297 C0.292165454,38.1312025 8.09200906,46.8805782 8.09200902,46.8805782 L22.7654771,46.8805782 C26.2719763,46.8805782 32.8427417,42.5352769 40.0990074,48 C40.6427813,47.3989917 48,39.6928867 48,39.6928867 C48,39.6928866 34.6796941,31.409595 33.8910846,31.1249069 Z" id="路径" fill="#20C082"></path>
                    </g>
                </g>
            </g>
        </g>
    </g>
</svg>