<?xml version="1.0" encoding="UTF-8"?>
<svg width="48px" height="48px" viewBox="0 0 48 48" version="1.1" xmlns="http://www.w3.org/2000/svg" xmlns:xlink="http://www.w3.org/1999/xlink">
    <title>ico-004</title>
    <g id="页面-1" stroke="none" stroke-width="1" fill="none" fill-rule="evenodd">
        <g id="首页修改02" transform="translate(-1166.000000, -769.000000)">
            <g id="政务信息资源分类" transform="translate(0.000000, 534.000000)">
                <g id="03" transform="translate(1075.000000, 203.000000)">
                    <g id="ico-004" transform="translate(91.000000, 32.000000)">
                        <path d="M33.1176608,26.3160975 C33.199074,25.684794 33.2967699,25.0586371 33.3846962,24.4290491 C33.4270311,24.1133974 33.4547116,23.7960302 33.4905334,23.4803785 L33.6745273,22.0222048 C33.7103491,21.740863 33.7461709,21.4560903 33.7754797,21.173033 C33.8161863,20.7493049 33.8454951,20.3238613 33.8894582,19.9001332 C33.9122539,19.6736874 33.9578454,19.4489571 33.9790128,19.2225113 C34.0246042,18.7558957 33.8422386,18.3355986 33.7233752,17.9015775 C33.6842969,17.7471826 33.6273076,17.5927877 33.6077684,17.4366774 C33.6028836,17.3869279 33.6956947,17.2754205 33.7429144,17.2754205 C34.6058947,17.2651275 35.4672467,17.2685585 36.3285987,17.2685585 C36.4523468,17.2685585 36.4979382,17.2994375 36.4523468,17.4452549 C36.3546509,17.7523291 36.2797508,18.0628343 36.1983375,18.371624 C36.1657722,18.4951399 36.1250656,18.6186558 36.1055264,18.7456027 C36.0371393,19.1779083 36.0957568,19.603352 36.1804266,20.0322266 C36.2423007,20.3358698 36.2618398,20.646375 36.2895204,20.9551647 C36.3285987,21.4046253 36.3513944,21.8558014 36.4034989,22.3035465 C36.4832839,22.958867 36.582608,23.6107564 36.668906,24.2643613 C36.7096126,24.555996 36.7438062,24.8476308 36.7698584,25.1392655 C36.8121933,25.5801486 36.8431303,26.0227472 36.883837,26.4619148 C36.9082609,26.7312481 36.9424545,26.9988659 36.9831611,27.2647681 C36.9896742,27.3162331 37.0548048,27.357405 37.1345897,27.4517574 C37.2550813,26.9662714 37.3511489,26.5476897 37.4618709,26.1325391 C37.5725929,25.7070955 37.6995976,25.2867984 37.8152044,24.8630703 C37.8949893,24.5680045 37.9617482,24.2677923 38.0366483,23.9710111 C38.1229464,23.6484973 38.2141292,23.3276991 38.2971707,23.0034699 C38.3753274,22.7084042 38.440458,22.4099075 38.520243,22.1148417 C38.6016562,21.7974745 38.6912108,21.4818228 38.7758805,21.1644556 C38.8507807,20.8728208 38.9240526,20.5743241 39.0022093,20.2809738 C39.0885073,19.9481671 39.1813184,19.6187914 39.2676164,19.2842692 C39.3441449,18.980626 39.4092755,18.6735518 39.4874322,18.371624 C39.5688454,18.0542568 39.6632848,17.7403206 39.7479545,17.4263844 C39.824483,17.1381806 39.8912418,16.8482614 39.966142,16.5600577 C39.9987073,16.4279643 40.0019638,16.2512679 40.083377,16.179217 C40.1810729,16.0934421 40.3748364,16.0385461 40.4871867,16.0797181 C41.0082314,16.2752849 41.5129934,16.5137392 42.0275251,16.7247455 C42.5583393,16.9426138 43.0956667,17.1450426 43.6281092,17.3577644 C44.051458,17.5275988 44.4748068,17.6991486 44.8948991,17.875845 C45.4371113,18.1040063 45.9548994,18.3733395 46.4287245,18.7353097 C46.8553298,19.0629699 47.1907523,19.4661121 47.3812593,19.9704686 C47.4675573,20.1934834 48,22.33271 48,26.3984414 C48,29.1011469 48,31.8038524 48,34.506558 C48,35.6111275 47.1045695,36.506558 46,36.506558 L24.0004394,36.506558 C22.8958699,36.506558 22.0004395,35.6111275 22.0004395,34.506558 C22.0004395,34.5029937 22.000449,34.4994295 22.000468,34.4958654 L22.0470893,25.7757154 L22.0470893,25.7757154 C22.0584872,25.7276815 22.0829111,25.681363 22.0829111,25.6350446 C22.1236177,25.110102 22.1512982,24.5851595 22.2001462,24.0619325 C22.2441093,23.6159029 22.3141247,23.1715888 22.3694857,22.7272747 L22.377627,22.6535082 C22.4150771,22.1302812 22.408564,21.5967612 22.5013751,21.0838271 C22.5909297,20.5846171 22.5144012,20.054528 22.8384259,19.589628 C23.1640788,19.1315899 23.5483493,18.7558957 23.9993786,18.4556835 C24.6865063,17.9959299 25.4680733,17.7454671 26.2268447,17.4418239 C26.8244178,17.2016541 27.4122214,16.9374673 28.0081662,16.6870045 C28.5080435,16.4777137 29.0128055,16.2701384 29.5191959,16.0762871 C29.753666,15.9836502 29.9669686,16.1534845 30.0207014,16.4056628 C30.092345,16.7316075 30.1981822,17.0524057 30.2812237,17.3783504 C30.3577522,17.6734162 30.4228828,17.9719129 30.4994112,18.2686941 C30.5824527,18.5929234 30.6785203,18.9137216 30.7631901,19.2396663 C30.836462,19.5261545 30.9048491,19.8160737 30.9813775,20.1042775 C31.1002408,20.5606001 31.2256172,21.0134917 31.3444805,21.4715298 C31.421009,21.758018 31.4877678,22.0462218 31.5594115,22.33271 C31.6473378,22.6672322 31.7417771,22.9966079 31.8280751,23.3294146 C31.9046036,23.6261959 31.9681059,23.9246926 32.0462626,24.2214738 C32.1309324,24.545703 32.2237435,24.8665012 32.306785,25.1907305 C32.3849417,25.4875117 32.4549571,25.7842929 32.528229,26.0827897 C32.6291814,26.4945093 32.7268772,26.9079444 32.835971,27.3179486 C32.8473688,27.3694135 32.922269,27.398577 33.0004257,27.4671969 C33.0427606,27.0468998 33.0704411,26.6780676 33.1176608,26.3160975 Z M28.5687292,4.8328185 C28.7155712,4.09781837 29.0526405,3.43516721 29.4647996,2.80704628 C30.05846,1.89070492 30.8874272,1.14531716 31.8676699,0.646441824 C32.3182081,0.416240438 32.7921075,0.228790735 33.3027175,0.153153129 C33.6815033,0.0988913647 34.0586205,0.0035222155 34.4374063,0.000112532588 C34.83121,-0.00305494859 35.2300198,0.0610725748 35.6188175,0.138354478 C35.9825854,0.210703488 36.3480219,0.31100553 36.6900972,0.449126361 C37.6330908,0.827059972 38.4628972,1.43537629 39.1013109,2.21674414 C39.5802163,2.7955362 39.9573334,3.42201283 40.2309937,4.10110693 C40.3895164,4.49080499 40.4679434,4.91338897 40.5563824,5.32610717 C40.6331408,5.69936228 40.7232484,6.08248315 40.7200011,6.46067115 C40.7031348,6.98463736 40.6518547,7.50697759 40.5663943,8.0243963 C40.5246778,8.33023529 40.4345702,8.6278528 40.3628178,8.9287589 C40.2276564,9.50426236 39.9690141,10.030437 39.6920165,10.5516787 C39.2197857,11.4395983 38.580689,12.1926857 37.7847382,12.8290281 C37.2696985,13.2465687 36.6799897,13.5655594 36.0459945,13.7695652 C35.4769814,13.9504377 34.8996251,14.0754042 34.3039135,14.0375854 C33.3529117,13.9801506 32.4352109,13.6711431 31.6474068,13.1430886 C30.939895,12.6711757 30.3208221,12.105538 29.8619406,11.4017795 C29.5366441,10.9158246 29.244002,10.4093935 28.9858941,9.88573896 C28.7739743,9.43849054 28.6338069,8.95506763 28.4936395,8.47986618 C28.4202184,8.24144331 28.4085378,7.98657749 28.3768333,7.73993315 C28.3334481,7.39463107 28.2950689,7.05261759 28.2400031,6.57577184 C28.3334481,6.07426169 28.441911,5.45271792 28.5687292,4.8328185 Z" id="形状" fill="#FFC116" fill-rule="nonzero"></path>
                        <path d="M1.79999999,20.9476779 L35.7,20.9476779 C36.6941126,20.9476779 37.5,21.7535653 37.5,22.7476779 L37.5,46.2 C37.5,47.1941126 36.6941126,48 35.7,48 L1.79999999,48 C0.805887445,48 -2.32074698e-15,47.1941126 0,46.2 L0,22.7476779 C-1.21743674e-16,21.7535653 0.805887445,20.9476779 1.79999999,20.9476779 Z" id="Rectangle" fill="#FFE473"></path>
                        <path d="M4.49999997,26.2604662 L16.5,26.2604662 L16.5,27.7784057 L4.49999997,27.7784057 L4.49999997,26.2604662 Z M4.49999997,30.8142848 L16.5,30.8142848 L16.5,32.3322243 L4.49999997,32.3322243 L4.49999997,30.8142848 Z M4.49999997,35.3681033 L16.5,35.3681033 L16.5,36.8860428 L4.49999997,36.8860428 L4.49999997,35.3681033 Z M4.49999997,39.9219219 L29.2499998,39.9219219 L29.2499998,41.4398614 L4.49999997,41.4398614 L4.49999997,39.9219219 Z" id="Combined-Shape" fill="#FFFFFF" fill-rule="nonzero"></path>
                        <path d="M22.4999999,20.9476779 L35.6999998,20.9476779 C36.6941123,20.9476779 37.4999999,21.7632035 37.4999999,22.7692053 L37.4999999,36.506558 L27.8999998,36.506558 C24.9176622,36.506558 22.4999999,34.0599811 22.4999999,31.0419757 L22.4999999,20.9476779 Z" id="Combined-Shape" fill="#FFFFFF"></path>
                        <g id="time-circle-fill" transform="translate(25.000000, 23.679969)">
                            <rect id="Rectangle" fill="#000000" opacity="0" x="0.199999999" y="0" width="9.23076918" height="9.34116628"></rect>
                            <ellipse id="椭圆形" fill="#FECA3B" fill-rule="nonzero" cx="1.49999999" cy="4.91020436" rx="1.49999999" ry="1.50474004"></ellipse>
                            <ellipse id="椭圆形-copy-3" fill="#FECA3B" fill-rule="nonzero" cx="5.49999997" cy="4.91020436" rx="1.49999999" ry="1.50474004"></ellipse>
                            <ellipse id="椭圆形-copy-4" fill="#FECA3B" fill-rule="nonzero" cx="9.49999994" cy="4.91020436" rx="1.49999999" ry="1.50474004"></ellipse>
                        </g>
                    </g>
                </g>
            </g>
        </g>
    </g>
</svg>