<?xml version="1.0" encoding="UTF-8"?>
<svg width="49px" height="49px" viewBox="0 0 49 49" version="1.1" xmlns="http://www.w3.org/2000/svg" xmlns:xlink="http://www.w3.org/1999/xlink">
    <title>ico-001</title>
    <g id="页面-1" stroke="none" stroke-width="1" fill="none" fill-rule="evenodd">
        <g id="首页修改02" transform="translate(-476.000000, -769.000000)" fill-rule="nonzero">
            <g id="政务信息资源分类" transform="translate(0.000000, 534.000000)">
                <g id="01" transform="translate(385.000000, 203.000000)">
                    <g id="ico-001" transform="translate(91.000000, 32.000000)">
                        <path d="M40,0 L40.0010183,15.8012397 C37.2648992,14.0290198 34.0026199,13 30.5,13 C20.8350169,13 13,20.8350169 13,30.5 C13,34.9023266 14.6255572,38.924984 17.309179,42.0004796 L0,42 L0,0 L40,0 Z" id="合并形状" fill="#1E9CF8"></path>
                        <polygon id="路径" fill="#FFFFFF" points="18 9.77704059 18 6 6 6 6 18 10.0005336 18 10.0005336 9.77704059"></polygon>
                        <path d="M30.5,48 C25.4833333,48 20.9333333,45.9 17.7833333,42.5166667 L17.6666667,42.4 C14.75,39.1333333 13,35.05 13,30.5 C13,25.95 14.75,21.8666667 17.55,18.7166667 L17.6666667,18.6 C20.9333333,15.1 25.4833333,13 30.5,13 C35.5166667,13 40.0666667,15.1 43.2166667,18.4833333 L43.3333333,18.6 C46.25,21.8666667 48,25.95 48,30.5 C48,35.05 46.25,39.1333333 43.45,42.2833333 C43.45,42.4 43.3333333,42.4 43.3333333,42.5166667 C40.0666667,45.9 35.5166667,48 30.5,48 Z M31.6666667,37.5 L31.6666667,45.4333333 C33.5333333,44.7333333 35.2833333,42.2833333 36.3333333,38.6666667 C34.9333333,38.0833333 33.3,37.6166667 31.6666667,37.5 Z M24.6666667,38.6666667 C25.7166667,42.2833333 27.5833333,44.7333333 29.3333333,45.4333333 L29.3333333,37.5 C27.7,37.6166667 26.0666667,38.0833333 24.6666667,38.6666667 Z M38.4333333,39.7166667 C37.85,41.5833333 37.0333333,43.2166667 36.1,44.5 C37.85,43.8 39.4833333,42.75 40.8833333,41.4666667 C40.0666667,40.8833333 39.3666667,40.3 38.4333333,39.7166667 L38.4333333,39.7166667 Z M20.1166667,41.5833333 C21.5166667,42.8666667 23.15,43.9166667 24.9,44.6166667 C23.9666667,43.3333333 23.15,41.7 22.5666667,39.8333333 C21.6333333,40.3 20.9333333,40.8833333 20.1166667,41.5833333 Z M39.1333333,37.3833333 C40.3,38.0833333 41.4666667,38.9 42.5166667,39.8333333 C44.2666667,37.5 45.4333333,34.7 45.6666667,31.6666667 L39.8333333,31.6666667 C39.7166667,33.7666667 39.4833333,35.6333333 39.1333333,37.3833333 L39.1333333,37.3833333 Z M15.3333333,31.6666667 C15.5666667,34.7 16.7333333,37.6166667 18.4833333,39.8333333 C19.5333333,38.9 20.5833333,38.0833333 21.8666667,37.3833333 C21.5166667,35.6333333 21.2833333,33.7666667 21.1666667,31.6666667 L15.3333333,31.6666667 Z M31.6666667,35.1666667 C33.5333333,35.2833333 35.2833333,35.75 36.9166667,36.3333333 C37.15,34.9333333 37.3833333,33.3 37.5,31.55 L31.6666667,31.55 L31.6666667,35.1666667 Z M23.5,31.6666667 C23.6166667,33.4166667 23.7333333,34.9333333 24.0833333,36.45 C25.7166667,35.75 27.5833333,35.4 29.3333333,35.2833333 L29.3333333,31.7833333 L23.5,31.7833333 L23.5,31.6666667 Z M39.8333333,29.3333333 L45.6666667,29.3333333 C45.4333333,26.3 44.2666667,23.3833333 42.5166667,21.1666667 C41.4666667,22.1 40.4166667,22.9166667 39.1333333,23.6166667 C39.4833333,25.3666667 39.7166667,27.2333333 39.8333333,29.3333333 L39.8333333,29.3333333 Z M31.6666667,29.3333333 L37.5,29.3333333 C37.3833333,27.5833333 37.2666667,26.0666667 36.9166667,24.55 C35.2833333,25.25 33.4166667,25.6 31.6666667,25.7166667 L31.6666667,29.3333333 Z M23.5,29.3333333 L29.3333333,29.3333333 L29.3333333,25.8333333 C27.4666667,25.7166667 25.7166667,25.25 24.0833333,24.6666667 C23.7333333,26.0666667 23.6166667,27.5833333 23.5,29.3333333 Z M15.3333333,29.3333333 L21.1666667,29.3333333 C21.2833333,27.2333333 21.5166667,25.3666667 21.8666667,23.6166667 C20.7,22.9166667 19.5333333,22.1 18.4833333,21.1666667 C16.7333333,23.3833333 15.5666667,26.3 15.3333333,29.3333333 Z M24.6666667,22.3333333 C26.1833333,22.9166667 27.7,23.3833333 29.3333333,23.5 L29.3333333,15.5666667 C27.4666667,16.2666667 25.7166667,18.7166667 24.6666667,22.3333333 Z M31.6666667,15.5666667 L31.6666667,23.5 C33.3,23.3833333 34.9333333,23.0333333 36.3333333,22.3333333 C35.2833333,18.7166667 33.5333333,16.2666667 31.6666667,15.5666667 Z M20.1166667,19.4166667 C20.8166667,20.1166667 21.6333333,20.7 22.45,21.2833333 C23.0333333,19.4166667 23.85,17.7833333 24.7833333,16.5 C23.15,17.0833333 21.5166667,18.1333333 20.1166667,19.4166667 Z M36.1,16.3833333 C37.0333333,17.6666667 37.85,19.3 38.4333333,21.1666667 C39.25,20.7 40.0666667,20 40.7666667,19.3 C39.4833333,18.1333333 37.85,17.0833333 36.1,16.3833333 Z" id="形状" stroke="#89C5F5" stroke-width="0.625" fill="#89C5F5"></path>
                    </g>
                </g>
            </g>
        </g>
    </g>
</svg>