<?xml version="1.0" encoding="UTF-8"?>
<svg width="48px" height="48px" viewBox="0 0 48 48" version="1.1" xmlns="http://www.w3.org/2000/svg" xmlns:xlink="http://www.w3.org/1999/xlink">
    <title>ico-01</title>
    <g id="页面-1" stroke="none" stroke-width="1" fill="none" fill-rule="evenodd">
        <g id="首页修改01" transform="translate(-476.000000, -769.000000)">
            <g id="政务信息资源分类" transform="translate(0.000000, 534.000000)">
                <g id="card" transform="translate(385.000000, 203.000000)">
                    <g id="ico-01" transform="translate(91.000000, 32.000000)">
                        <rect id="矩形" fill="#D8D8D8" opacity="0" x="0" y="0" width="48" height="48"></rect>
                        <polygon id="路径" fill="#89C5F5" fill-rule="nonzero" points="48 21.5435485 48 41.1411287 43.7676279 41.1411287 43.7676279 46 36.5893953 41.1411287 19.1787907 41.1411287 19.1787907 21.5435485"></polygon>
                        <polygon id="路径" fill="#1E9CF8" fill-rule="nonzero" points="0 2 0 28.9675034 6 28.9675034 6 35.0270158 15.2143256 28.9675034 39.5893953 28.9675034 39.5893953 2"></polygon>
                        <polygon id="路径" fill="#FFFFFF" fill-rule="nonzero" points="11.3302326 6.25826633 16.3093953 6.25826633 19.7944186 13.7743595 23.3737674 6.25826633 28.2591628 6.25826633 22.759814 14.7912929 26.4574884 14.7912929 26.4574884 16.7739717 21.9270698 16.7739717 21.9270698 18.1588894 26.4574884 18.1588894 26.4574884 20.1409995 21.9270698 20.1409995 21.9270698 23.508596 17.7097674 23.508596 17.7097674 20.1409995 13.131907 20.1409995 13.131907 18.1588894 17.7097674 18.1588894 17.7097674 16.7739717 13.131907 16.7739717 13.131907 14.8834311 16.8647442 14.8834311"></polygon>
                    </g>
                </g>
            </g>
        </g>
    </g>
</svg>