<?xml version="1.0" encoding="UTF-8"?>
<svg width="48px" height="48px" viewBox="0 0 48 48" version="1.1" xmlns="http://www.w3.org/2000/svg" xmlns:xlink="http://www.w3.org/1999/xlink">
    <title>ico-04</title>
    <g id="页面-1" stroke="none" stroke-width="1" fill="none" fill-rule="evenodd">
        <g id="首页修改01" transform="translate(-1166.000000, -769.000000)">
            <g id="政务信息资源分类" transform="translate(0.000000, 534.000000)">
                <g id="card" transform="translate(1075.000000, 203.000000)">
                    <g id="ico-04" transform="translate(91.000000, 32.000000)">
                        <rect id="矩形" fill="#D8D8D8" opacity="0" x="0" y="0" width="48" height="48"></rect>
                        <path d="M15.4285714,8 C6.90760672,8 0,14.9275594 0,23.4731369 C0,32.0187145 6.90760672,38.9462738 15.4285714,38.9462738 C23.9495361,38.9462738 30.8571429,32.0187145 30.8571429,23.4731369 C30.8571429,14.9275594 23.9495361,8 15.4285714,8 L15.4285714,8 Z" id="路径" fill="#32A339" fill-rule="nonzero"></path>
                        <path d="M32.5714286,8.05372617 C24.0504639,8.05372617 17.1428571,14.9812855 17.1428571,23.5268631 C17.1428571,32.0724406 24.0504639,39 32.5714286,39 C41.0923933,39 48,32.0724406 48,23.5268631 C48,14.9812855 41.0923933,8.05372617 32.5714286,8.05372617 L32.5714286,8.05372617 Z" id="路径" fill="#B1D6AA" fill-rule="nonzero"></path>
                        <path d="M23.9598214,36.3674177 C19.8476786,33.5881629 17.1428571,28.8742288 17.1428571,23.5268631 C17.1428571,18.1445754 19.8830357,13.4043154 24.0401786,10.6325823 C28.1523214,13.4118371 30.8571429,18.1257712 30.8571429,23.4731369 C30.8571429,28.8554246 28.1169643,33.5956846 23.9598214,36.3674177 Z" id="路径" fill="#FFFFFF" fill-rule="nonzero"></path>
                    </g>
                </g>
            </g>
        </g>
    </g>
</svg>