<?xml version="1.0" encoding="UTF-8"?>
<svg width="48px" height="48px" viewBox="0 0 48 48" version="1.1" xmlns="http://www.w3.org/2000/svg" xmlns:xlink="http://www.w3.org/1999/xlink">
    <title>ico-08</title>
    <g id="页面-1" stroke="none" stroke-width="1" fill="none" fill-rule="evenodd">
        <g id="首页修改01" transform="translate(-936.000000, -919.000000)">
            <g id="政务信息资源分类" transform="translate(0.000000, 534.000000)">
                <g id="card" transform="translate(845.000000, 353.000000)">
                    <g id="ico-08" transform="translate(91.000000, 32.000000)">
                        <path d="M0,17.1428571 C0,26.6116071 7.67410714,34.2857143 17.1428571,34.2857143 C26.6116071,34.2857143 34.2857143,26.6116071 34.2857143,17.1428571 C34.2857143,7.67410714 26.6116071,0 17.1428571,0 C7.67410714,0 0,7.67410714 0,17.1428571 Z" id="路径" fill="#FFE988"></path>
                        <path d="M19.7745536,14.859375 L19.7745536,16.8013393 L15.4285714,16.8013393 L15.4285714,18.4017857 L19.7745536,18.4017857 L19.7745536,20.34375 L15.4285714,20.34375 C15.4285714,21.0267857 15.5424107,21.7165179 15.7700893,22.171875 C15.9977679,22.6272321 16.2254464,23.0892857 16.5669643,23.3169643 C16.9084821,23.6584821 17.3638393,23.7723214 17.8258929,24 C18.28125,24.1138393 18.8571429,24.2276786 19.4263393,24.2276786 C19.8816964,24.2276786 20.2232143,24.2276786 20.6852679,24.1138393 C21.140625,24 21.4821429,24 21.8303571,23.7723214 L22.2857143,26.859375 C21.8303571,26.9732143 21.2544643,27.0870536 20.6852679,27.0870536 C20.1160714,27.2008929 19.5401786,27.2008929 18.9709821,27.2008929 C17.9397321,27.2008929 16.9151786,27.0870536 15.9977679,26.7455357 C15.0803571,26.5178571 14.2834821,26.0625 13.7142857,25.4866071 C13.03125,24.9174107 12.5691964,24.2276786 12.1138393,23.3169643 C11.7723214,22.5200893 11.5446429,21.4888393 11.5446429,20.34375 L9.375,20.34375 L9.375,18.4017857 L11.5446429,18.4017857 L11.5446429,16.8013393 L9.375,16.8013393 L9.375,14.859375 L11.5446429,14.859375 C11.6584821,13.7142857 11.8861607,12.8035714 12.2276786,11.8861607 C12.6830357,11.0892857 13.1450893,10.2857143 13.828125,9.71651786 C14.5111607,9.14732143 15.3147321,8.68526786 16.2254464,8.45758929 C17.1428571,8.11607143 18.1674107,8.00223214 19.1986607,8.00223214 C19.6540179,8.00223214 20.2299107,8.00223214 20.6852679,8.11607143 C21.140625,8.22991071 21.7165179,8.22991071 22.171875,8.45758929 L21.7165179,11.5446429 C21.375,11.4308036 21.0334821,11.3169643 20.5714286,11.203125 C20.1160714,11.0892857 19.7745536,11.0892857 19.3125,11.0892857 C18.7433036,11.0892857 18.1674107,11.203125 17.7120536,11.3169643 C17.2566964,11.4308036 16.7946429,11.6584821 16.5669643,12 C16.2254464,12.3415179 15.9977679,12.6830357 15.7700893,13.1450893 C15.5424107,13.6004464 15.4285714,14.1763393 15.4285714,14.859375 L19.7745536,14.859375 L19.7745536,14.859375 Z" id="路径" fill="#FFFFFF"></path>
                        <path d="M13.7142857,30.8571429 C13.7142857,40.3258929 21.3883929,48 30.8571429,48 C40.3258929,48 48,40.3258929 48,30.8571429 C48,21.3883929 40.3258929,13.7142857 30.8571429,13.7142857 C21.3883929,13.7142857 13.7142857,21.3883929 13.7142857,30.8571429 L13.7142857,30.8571429 Z" id="路径" fill="#FFCB3A"></path>
                        <path d="M29.0290179,27.4285714 C29.1428571,27.65625 29.2566964,27.8839286 29.484375,28.1116071 C29.7120536,28.3392857 29.9397321,28.5669643 30.28125,28.6808036 C30.6227679,28.9084821 31.078125,29.0223214 31.5401786,29.25 C32.3370536,29.5915179 33.140625,29.9330357 33.8236607,30.28125 C34.5066964,30.6227679 35.0825893,31.078125 35.5379464,31.5401786 C35.9933036,31.9955357 36.4553571,32.5714286 36.6830357,33.140625 C36.9107143,33.7098214 37.1383929,34.5133929 37.1383929,35.3102679 C37.1383929,36.1138393 37.0245536,36.796875 36.796875,37.3660714 C36.5691964,37.9352679 36.2276786,38.5111607 35.765625,38.9665179 C35.3102679,39.421875 34.734375,39.7633929 34.1651786,39.9977679 C33.4821429,40.2254464 32.7924107,40.453125 32.109375,40.5669643 L32.109375,43.078125 L30.0535714,43.078125 L30.0535714,40.5669643 C29.3705357,40.453125 28.6808036,40.3392857 27.9977679,40.1116071 C27.3147321,39.8839286 26.7388393,39.5424107 26.2834821,38.9665179 C25.7142857,38.5111607 25.3660714,37.8214286 25.0245536,37.1383929 C24.6830357,36.4553571 24.5691964,35.5379464 24.5691964,34.5066964 L28.3392857,34.5066964 C28.3392857,35.0758929 28.453125,35.6517857 28.5669643,35.9933036 C28.6808036,36.4486607 28.9084821,36.6763393 29.25,37.0245536 C29.4776786,37.2522321 29.8191964,37.4799107 30.1674107,37.59375 C30.5089286,37.7075893 30.8504464,37.7075893 31.1986607,37.7075893 C31.6540179,37.7075893 31.9955357,37.7075893 32.2299107,37.59375 C32.5714286,37.4799107 32.7991071,37.3660714 33.0267857,37.1383929 C33.2544643,36.9107143 33.3683036,36.6830357 33.4821429,36.4553571 C33.5959821,36.2276786 33.5959821,35.8861607 33.5959821,35.5379464 C33.5959821,35.1964286 33.5959821,34.8549107 33.4821429,34.6205357 C33.3683036,34.3928571 33.2544643,34.0513393 33.0267857,33.8236607 C32.7991071,33.5959821 32.5714286,33.3683036 32.2299107,33.2544643 C31.8883929,33.0267857 31.4330357,32.9129464 30.9709821,32.6852679 C30.1741071,32.34375 29.3705357,32.0022321 28.6875,31.6540179 C28.0044643,31.3125 27.4285714,30.8571429 26.9732143,30.3950893 C26.5178571,29.9397321 26.0558036,29.3638393 25.828125,28.7946429 C25.6004464,28.2254464 25.3727679,27.421875 25.3727679,26.625 C25.3727679,25.9419643 25.4866071,25.2522321 25.7142857,24.6830357 C25.9419643,24.1138393 26.2834821,23.5379464 26.7455357,23.0825893 C27.2008929,22.6272321 27.7767857,22.2857143 28.3459821,21.9375 C28.9151786,21.7098214 29.71875,21.4821429 30.4017857,21.3683036 L30.4017857,18.6227679 L32.4575893,18.6227679 L32.4575893,21.3683036 C33.140625,21.4821429 33.8303571,21.7098214 34.5133929,22.0513393 C35.0825893,22.3928571 35.6584821,22.734375 36,23.3102679 C36.4553571,23.765625 36.796875,24.4553571 37.03125,25.1383929 C37.2589286,25.8214286 37.3727679,26.625 37.3727679,27.421875 L33.6026786,27.421875 C33.6026786,26.390625 33.375,25.59375 32.9196429,25.1383929 C32.4642857,24.6830357 31.8883929,24.3415179 31.2053571,24.3415179 C30.8638393,24.3415179 30.5223214,24.4553571 30.1741071,24.5691964 C29.9464286,24.6830357 29.71875,24.796875 29.4910714,25.0245536 C29.2633929,25.2522321 29.1495536,25.4799107 29.1495536,25.7075893 C29.0357143,25.9352679 29.0357143,26.2767857 29.0357143,26.625 C28.9151786,26.859375 29.0290179,27.2008929 29.0290179,27.4285714 L29.0290179,27.4285714 Z" id="路径" fill="#FFFFFF"></path>
                    </g>
                </g>
            </g>
        </g>
    </g>
</svg>