<?xml version="1.0" encoding="UTF-8"?>
<svg width="16px" height="16px" viewBox="0 0 16 16" version="1.1" xmlns="http://www.w3.org/2000/svg" xmlns:xlink="http://www.w3.org/1999/xlink">
    <title>yanfaguanli-xuqiuguanli</title>
    <g id="页面-1" stroke="none" stroke-width="1" fill="none" fill-rule="evenodd">
        <g id="首页修改02" transform="translate(-1351.000000, -434.000000)" fill="#3D485D" fill-rule="nonzero">
            <g id="编组-8" transform="translate(360.000000, 334.000000)">
                <g id="编组-7" transform="translate(100.000000, 22.000000)">
                    <g id="编组-6" transform="translate(891.000000, 72.000000)">
                        <g id="yanfaguanli-xuqiuguanli" transform="translate(0.000000, 6.000000)">
                            <path d="M5.82204003,6.05040396 C6.25223053,6.05040396 6.63419339,6.30700591 6.79816735,6.7025202 L6.79816735,6.7025202 L7.4965035,8.38683227 L14.8811189,8.38683227 C15.176272,8.38683227 15.4598505,8.50452189 15.6720521,8.71289039 C15.8823246,8.92318823 16,9.20873025 16,9.50584831 L16,9.50584831 L16,14.8790546 C16,15.1761727 15.8823246,15.4617147 15.6720521,15.6720125 C15.4617796,15.8823104 15.176272,16 14.8791898,16 L14.8791898,16 L1.12081022,16 C0.823727996,16 0.5382204,15.8823104 0.327947914,15.6720125 C0.117675428,15.4617147 0,15.1761727 0,14.8790546 L0,14.8790546 L0,9.50198963 C0,9.47112022 0.00385821075,9.43832148 0.00578731613,9.40745207 C0.00192910538,9.37658266 0,9.34378391 0,9.31291451 L0,9.31291451 L0,7.10575184 C0,6.52309176 0.472630817,6.05040396 1.05522064,6.05040396 L1.05522064,6.05040396 Z M3.09621413,9.92451465 C2.60622136,9.72193416 2.04099349,9.8357651 1.66674705,10.2100567 C1.2905715,10.5843482 1.17868339,11.1496443 1.38123945,11.6396961 C1.58379551,12.129748 2.06221365,12.4500181 2.59271763,12.4500181 C3.31613214,12.4500181 3.90450928,11.86157 3.90643839,11.1361389 C3.90643839,10.6075003 3.5862069,10.1270951 3.09621413,9.92451465 Z M12.8478418,0 C13.6947191,0 14.3834097,0.663692271 14.3834097,1.48173158 L14.3834097,1.48173158 L14.3834097,7.64982515 L7.83409694,7.64982515 L7.13576079,6.02532256 C6.96407041,5.63945496 6.58017844,5.3924997 6.16156258,5.39828771 L6.16156258,5.39828771 L2.48082952,5.39828771 L2.48082952,1.48173158 C2.48082952,0.661762933 3.16952014,0 4.0163974,0 L4.0163974,0 Z M11.1540873,2.30555891 L5.71401013,2.30555891 C5.44972269,2.30555891 5.23366289,2.52164476 5.23366289,2.78596407 C5.23366289,3.05028337 5.44586448,3.26636923 5.71401013,3.26636923 L5.71401013,3.26636923 L11.1540873,3.26636923 C11.4183747,3.26636923 11.6344345,3.05028337 11.6344345,2.78596407 C11.6344345,2.52164476 11.4183747,2.30555891 11.1540873,2.30555891 L11.1540873,2.30555891 Z" id="形状结合"></path>
                        </g>
                    </g>
                </g>
            </g>
        </g>
    </g>
</svg>