<?xml version="1.0" encoding="UTF-8"?>
<svg width="16px" height="16px" viewBox="0 0 16 16" version="1.1" xmlns="http://www.w3.org/2000/svg" xmlns:xlink="http://www.w3.org/1999/xlink">
    <title>ziyuanmulu-2</title>
    <g id="页面-1" stroke="none" stroke-width="1" fill="none" fill-rule="evenodd">
        <g id="首页修改02" transform="translate(-750.000000, -434.000000)" fill="#3D485D" fill-rule="nonzero">
            <g id="编组-8" transform="translate(360.000000, 334.000000)">
                <g id="编组-7" transform="translate(100.000000, 22.000000)">
                    <g id="编组-6备份-2" transform="translate(290.000000, 72.000000)">
                        <g id="ziyuanmulu-2" transform="translate(0.000000, 6.000000)">
                            <path d="M15.4492724,5.83577571 L4.3585287,5.83577571 C4.078669,5.83473693 3.85086145,6.0445325 3.84963622,6.30443176 L3.84963622,6.48235964 C3.84910136,6.6071857 3.7951788,6.72669896 3.69973685,6.81459463 C3.6042949,6.9024903 3.47515607,6.95156438 3.34074373,6.95101569 L2.48524656,6.95101569 L2.48524656,4.07338875 C2.4857815,3.94854557 2.53969759,3.82901311 2.63513368,3.74108764 C2.73056976,3.65316217 2.85970805,3.60404625 2.99413905,3.60454502 L6.76576395,3.60454502 C7.04668553,3.60454502 7.27485853,3.3952733 7.27485853,3.13645204 L7.27485853,0.468659885 C7.2736333,0.208760627 7.04582575,-0.00103494064 6.76596605,0 L0.508892482,0 C0.229032783,-0.00103494064 0.00122522927,0.208760627 0,0.468659885 L0,3.13645204 C0,3.3952733 0.227970897,3.60473271 0.508892482,3.60473271 C0.643339744,3.60413406 0.772530548,3.65318606 0.868016265,3.74108713 C0.963501983,3.8289882 1.01745232,3.94853003 1.01798707,4.07338875 L1.01798707,16 L2.48484236,16 L2.48484236,14.0897152 L3.34033953,14.0897152 C3.47478675,14.0891665 3.60395614,14.1382663 3.6994039,14.2262026 C3.79485166,14.3141388 3.84875065,14.4337003 3.84923201,14.5585589 L3.84923201,14.7650153 C3.85045724,15.0250182 4.07835528,15.2348978 4.3583266,15.233859 L15.4909054,15.233859 C15.6253713,15.2344077 15.7545616,15.1853139 15.8500414,15.097383 C15.9455213,15.0094521 15.9994651,14.8898911 16,14.7650153 L16,12.0641901 C15.9986637,11.8042907 15.7707653,11.5945789 15.4909054,11.5957218 L4.3587308,11.5957218 C4.0788711,11.594683 3.85106355,11.8044786 3.84983832,12.0643778 L3.84983832,12.2708342 C3.84935695,12.3956929 3.79545797,12.5152543 3.7000102,12.6031906 C3.60456244,12.6911268 3.47539305,12.7402266 3.34094584,12.739678 L2.48524656,12.739678 L2.48524656,8.30142827 L3.34054163,8.30142827 C3.4749889,8.30082963 3.6041797,8.34988163 3.69966542,8.4377827 C3.79515113,8.52568377 3.84910147,8.64522559 3.84963622,8.77008432 L3.84963622,8.94819989 C3.8509727,9.20805582 4.07871472,9.41779104 4.3585287,9.41685593 L15.4490703,9.41685593 C15.5835014,9.41740469 15.7126611,9.36833658 15.8081351,9.28044626 C15.9036092,9.19255594 15.9575766,9.07304313 15.9581649,8.94819989 L15.9581649,6.30443176 C15.9576301,6.1796057 15.9037075,6.06009244 15.8082655,5.97219677 C15.7128236,5.8843011 15.5836848,5.83522702 15.4492724,5.83577571 L15.4492724,5.83577571 Z" id="路径"></path>
                        </g>
                    </g>
                </g>
            </g>
        </g>
    </g>
</svg>