<?xml version="1.0" encoding="UTF-8"?>
<svg width="200px" height="200px" viewBox="0 0 200 200" version="1.1" xmlns="http://www.w3.org/2000/svg" xmlns:xlink="http://www.w3.org/1999/xlink">
    <title>标注错误类型-WBS分解-禁用</title>
    <g id="页面-1" stroke="none" stroke-width="1" fill="none" fill-rule="evenodd">
        <g id="编组-4" transform="translate(-872.000000, -449.000000)">
            <g id="标注错误类型-WBS分解-禁用" transform="translate(872.000000, 449.000000)">
                <rect id="矩形" fill-opacity="0" fill="#FFFFFF" fill-rule="nonzero" x="0" y="0" width="200" height="200"></rect>
                <g id="编组" transform="translate(18.992573, 4.000000)">
                    <path d="M97.4563028,2.99257324 L142.014854,47.481 L142.014854,184.019805 C142.014854,185.311018 141.524197,186.487631 140.71916,187.373369 L140.554013,187.546586 C139.651431,188.449168 138.404525,189.007427 137.027232,189.007427 L137.027232,189.007427 L4.98762208,189.007427 C3.61032827,189.007427 2.36342276,188.449168 1.46084069,187.546586 C0.55825862,186.644004 1.33226763e-15,185.397098 1.33226763e-15,184.019805 L1.33226763e-15,184.019805 L1.33226763e-15,7.98019532 C1.33226763e-15,6.60290151 0.55825862,5.355996 1.46084069,4.45341393 C2.36342276,3.55083186 3.61032827,2.99257324 4.98762208,2.99257324 L4.98762208,2.99257324 L97.4563028,2.99257324 Z" id="形状结合" stroke="#E8EAED" stroke-width="5.98514649" fill="#FFFFFF" fill-rule="nonzero"></path>
                    <g id="编组-5" transform="translate(15.266926, 74.259499)" stroke="#F0F2F5" stroke-width="4.51899842">
                        <rect id="矩形" x="0" y="9.99989425e-09" width="111.481002" height="81.4810016" rx="4.51899842"></rect>
                        <polygon id="矩形" transform="translate(32.178001, 40.740501) rotate(90.000000) translate(-32.178001, -40.740501) " points="72.9185016 30.3125 72.9185016 51.1685016 -8.56250001 51.1685016 -8.56250001 30.3125"></polygon>
                        <polygon id="矩形" transform="translate(61.178001, 40.740501) rotate(90.000000) translate(-61.178001, -40.740501) " points="101.918502 30.3125001 101.918502 51.1685017 20.4374999 51.1685017 20.4374999 30.3125001"></polygon>
                        <path d="M140.428001,30.3125001 C140.805074,30.3125001 141.146449,30.465339 141.393556,30.712446 C141.640663,30.9595531 141.793502,31.3009283 141.793502,31.6780009 L141.793502,31.6780009 L141.793502,51.1685017 L60.3124999,51.1685017 L60.3124999,31.6780009 C60.3124999,31.3009283 60.4653388,30.9595531 60.7124458,30.712446 C60.9595529,30.465339 61.3009281,30.3125001 61.6780007,30.3125001 L61.6780007,30.3125001 L140.428001,30.3125001 Z" id="矩形" transform="translate(101.053001, 40.740501) rotate(90.000000) translate(-101.053001, -40.740501) "></path>
                        <path d="M42.6060016,64.5 L42.6060016,80.1155008 C42.6060016,80.4925734 42.4531627,80.8339486 42.2060557,81.0810557 C41.9589486,81.3281627 41.6175734,81.4810016 41.2405008,81.4810016 L41.2405008,81.4810016 L1.36550079,81.4810016 C0.98842816,81.4810016 0.64705296,81.3281627 0.39994592,81.0810557 C0.15283888,80.8339486 0,80.4925734 0,80.1155008 L0,80.1155008 L0,64.5 L42.6060016,64.5 Z" id="矩形"></path>
                        <path d="M42.6060016,64.5 L42.6060016,80.1155008 C42.6060016,80.4925734 42.4531627,80.8339486 42.2060557,81.0810557 C41.9589486,81.3281627 41.6175734,81.4810016 41.2405008,81.4810016 L41.2405008,81.4810016 L23.4905008,81.4810016 C23.1134282,81.4810016 22.772053,81.3281627 22.5249459,81.0810557 C22.2778389,80.8339486 22.125,80.4925734 22.125,80.1155008 L22.125,80.1155008 L22.125,64.5 L42.6060016,64.5 Z" id="矩形" fill="#F0F2F5" fill-rule="nonzero"></path>
                        <rect id="矩形" x="0" y="35.8333333" width="42.6060016" height="13.3976683"></rect>
                        <rect id="矩形" fill="#F0F2F5" fill-rule="nonzero" x="22.125" y="35.8333333" width="20.4810016" height="13.3976683"></rect>
                        <rect id="矩形" x="50.75" y="28.6666667" width="60.7310016" height="13.3976683"></rect>
                        <rect id="矩形" x="50.75" y="53.75" width="60.7310016" height="13.3976683"></rect>
                        <rect id="矩形" x="50.75" y="68.0833333" width="60.7310016" height="13.3976683"></rect>
                        <path d="M41.2405008,9.99989425e-09 C41.6175734,9.99989425e-09 41.9589486,0.15283889 42.2060557,0.39994593 C42.4531627,0.64705297 42.6060016,0.98842817 42.6060016,1.3655008 L42.6060016,1.3655008 L42.6060016,16.9810016 L0,16.9810016 L0,1.3655008 C0,0.98842817 0.15283888,0.64705297 0.39994592,0.39994593 C0.64705296,0.15283889 0.98842816,9.99989425e-09 1.36550079,9.99989425e-09 L1.36550079,9.99989425e-09 L41.2405008,9.99989425e-09 Z" id="矩形" fill="#FFFFFF" fill-rule="nonzero"></path>
                        <path d="M110.115501,9.99989425e-09 C110.492574,9.99989425e-09 110.833949,0.15283889 111.081056,0.39994593 C111.328163,0.64705297 111.481002,0.98842817 111.481002,1.3655008 L111.481002,1.3655008 L111.481002,16.9810016 L50.75,16.9810016 L50.75,1.3655008 C50.75,0.98842817 50.9028389,0.64705297 51.1499459,0.39994593 C51.397053,0.15283889 51.7384282,9.99989425e-09 52.1155008,9.99989425e-09 L52.1155008,9.99989425e-09 L110.115501,9.99989425e-09 Z" id="矩形" fill="#FFFFFF" fill-rule="nonzero"></path>
                    </g>
                    <path d="M98.6945018,0 L145.007427,46.2408377 L107.033806,46.2408377 C102.428135,46.2408377 98.6945018,42.5072041 98.6945018,37.9015336 L98.6945018,0 L98.6945018,0 Z" id="矩形" fill="#E8EAED" fill-rule="nonzero"></path>
                    <rect id="矩形" fill="#F0F2F5" fill-rule="nonzero" x="19.5291659" y="22.4" width="54.3673469" height="6.03141361" rx="2.99257324"></rect>
                    <rect id="矩形" fill="#F0F2F5" fill-rule="nonzero" x="58.1378616" y="35.2" width="16.1088435" height="6.03141361" rx="2.99257324"></rect>
                </g>
                <g id="WBS" transform="translate(4.000000, 36.000000)">
                    <rect id="矩形" fill="#E8EAED" fill-rule="nonzero" x="0" y="0" width="64" height="32" rx="6.4"></rect>
                    <circle id="椭圆形" fill="#FFFFFF" cx="16" cy="17" r="4"></circle>
                    <circle id="椭圆形备份" fill="#FFFFFF" cx="32" cy="17" r="4"></circle>
                    <circle id="椭圆形备份-2" fill="#FFFFFF" cx="48" cy="17" r="4"></circle>
                </g>
                <g id="circle" transform="translate(96.000000, 100.000000)" fill-rule="nonzero">
                    <circle id="椭圆形" fill="#E8EAED" cx="50" cy="50" r="50"></circle>
                    <path d="M69.5446043,23.88 C72.3504294,23.88 74.625,26.1545706 74.625,28.9603957 L74.625,73.0782088 C74.625,74.4811213 73.4877147,75.6184066 72.0848021,75.6184066 C71.6184496,75.6184066 71.161097,75.4900253 70.7628695,75.2473329 L51.8019511,63.6919512 L32.7119144,75.2632034 C31.5121893,75.9904059 29.9501059,75.6073506 29.2229035,74.4076255 C28.9822433,74.0105888 28.855,73.5551885 28.855,73.090909 L28.855,28.9603957 C28.855,26.1545706 31.1295706,23.88 33.9353957,23.88 L69.5446043,23.88 Z M64.9428959,28.9962892 L38.5371041,28.9962892 C35.9985004,28.9962892 33.9405556,31.0542341 33.9405556,33.5928378 L33.9405556,33.5928378 L33.9405556,65.2078225 C33.9405556,65.4240314 33.9957492,65.6366614 34.100909,65.8255734 C34.4420834,66.4384689 35.2155099,66.6587424 35.8284054,66.317568 L35.8284054,66.317568 L51.7881842,57.4333972 L67.6490392,66.3104327 C67.8385736,66.4165117 68.0521451,66.4722125 68.2693455,66.4722125 C68.9708018,66.4722125 69.5394444,65.9035698 69.5394444,65.2021135 L69.5394444,65.2021135 L69.5394444,33.5928378 C69.5394444,31.0542341 67.4814996,28.9962892 64.9428959,28.9962892 L64.9428959,28.9962892 Z M60.6423021,36.6707231 C62.0452147,36.6707231 63.1825,37.8080084 63.1825,39.210921 L63.1825,39.2468145 C63.1825,40.649727 62.0452147,41.7870123 60.6423021,41.7870123 L42.8376979,41.7870123 C41.4347853,41.7870123 40.2975,40.649727 40.2975,39.2468145 L40.2975,39.210921 C40.2975,37.8080084 41.4347853,36.6707231 42.8376979,36.6707231 L60.6423021,36.6707231 Z" id="形状结合" fill="#FFFFFF"></path>
                </g>
            </g>
        </g>
    </g>
</svg>