<?xml version="1.0" standalone="no"?><!DOCTYPE svg PUBLIC "-//W3C//DTD SVG 1.1//EN" "http://www.w3.org/Graphics/SVG/1.1/DTD/svg11.dtd"><svg t="1616124379345" class="icon" viewBox="0 0 1024 1024" version="1.1" xmlns="http://www.w3.org/2000/svg" p-id="8692" width="32" height="32" xmlns:xlink="http://www.w3.org/1999/xlink"><defs><style type="text/css"></style></defs><path d="M320 512m-42.666667 0a42.666667 42.666667 0 1 0 85.333334 0 42.666667 42.666667 0 1 0-85.333334 0Z" p-id="8693"></path><path d="M512 512m-42.666667 0a42.666667 42.666667 0 1 0 85.333334 0 42.666667 42.666667 0 1 0-85.333334 0Z" p-id="8694"></path><path d="M704 512m-42.666667 0a42.666667 42.666667 0 1 0 85.333334 0 42.666667 42.666667 0 1 0-85.333334 0Z" p-id="8695"></path><path d="M512 149.333333C288 149.333333 106.666667 311.466667 106.666667 512c0 76.8 27.733333 147.2 72.533333 206.933333-8.533333 34.133333-23.466667 78.933333-49.066667 117.333334-8.533333 12.8 0 34.133333 14.933334 36.266666 14.933333 0 34.133333 2.133333 55.466666 2.133334 44.8 0 98.133333-8.533333 134.4-36.266667C388.266667 861.866667 448 874.666667 512 874.666667c224 0 405.333333-162.133333 405.333333-362.666667S736 149.333333 512 149.333333z m0 682.666667c-55.466667 0-108.8-10.666667-160-34.133333l-23.466667-8.533334-19.2 14.933334c-23.466667 19.2-61.866667 27.733333-108.8 27.733333h-19.2c17.066667-29.866667 29.866667-66.133333 38.4-104.533333l4.266667-19.2-10.666667-17.066667C170.666667 637.866667 149.333333 576 149.333333 512c0-177.066667 162.133333-320 362.666667-320s362.666667 142.933333 362.666667 320-162.133333 320-362.666667 320z" p-id="8696"></path></svg>