<?xml version="1.0" encoding="UTF-8"?>
<svg width="16px" height="16px" viewBox="0 0 16 16" version="1.1" xmlns="http://www.w3.org/2000/svg" xmlns:xlink="http://www.w3.org/1999/xlink">
    <title>ico_03</title>
    <g id="页面-1" stroke="none" stroke-width="1" fill="none" fill-rule="evenodd">
        <g id="目录资源" transform="translate(-1489.000000, -379.000000)">
            <g id="object-1备份" transform="translate(640.000000, 376.000000)">
                <g id="间距-&lt;h24-&gt;" transform="translate(701.000000, 3.000000)">
                    <g id="ico_03" transform="translate(148.000000, 0.000000)">
                        <rect id="矩形" fill="#000000" opacity="0" x="0" y="0" width="16" height="16"></rect>
                        <g id="R_jiucuo" transform="translate(1.000000, 0.000000)" fill="#3D3E49" fill-rule="nonzero">
                            <path d="M9.69048626,0 C9.92332629,0 10.144327,0.0922999749 10.3081043,0.258841234 L10.3081043,0.258841234 L13.731642,3.73814898 C13.8934461,3.90469024 13.9861875,4.13142714 13.9861875,4.36619012 L13.9861875,4.36619012 L13.9861875,5.77677452 L14,15.1070981 C14,15.6007023 13.6073291,16 13.1238901,16 L13.1238901,16 L0.874136716,16 C0.390697674,16 0,15.6027088 0,15.1111111 L0,15.1111111 L0,0.888888889 C0,0.397291196 0.390697674,0 0.874136716,0 L0.874136716,0 Z M8.30528541,1.77777778 L1.74827343,1.77777778 L1.74827343,14.2242287 L12.2517266,14.2242287 L12.2398872,5.77878104 L9.18139535,5.77878104 C8.69795631,5.77878104 8.30528541,5.37948332 8.30528541,4.88788563 L8.30528541,4.88788563 L8.30528541,1.77777778 Z M7.82184637,6.7880612 C8.16321353,6.44093303 8.71768851,6.44093303 9.05905567,6.78605468 C9.40042283,7.13318284 9.40042283,7.6970153 9.05905567,8.04414347 L9.05905567,8.04414347 L7.82184637,9.30223225 L9.05905567,10.5623276 C9.40042283,10.9114623 9.40042283,11.4732882 9.05905567,11.8204164 C8.71768851,12.1675445 8.16321353,12.1675445 7.82184637,11.8204164 L7.82184637,11.8204164 L6.58661029,10.5623276 L5.34940099,11.8204164 C5.00803383,12.1675445 4.45355884,12.1675445 4.11219168,11.8204164 C3.77082452,11.4732882 3.77082452,10.9094557 4.11219168,10.5623276 L4.11219168,10.5623276 L5.34940099,9.30423878 L4.11219168,8.04614999 C3.77082452,7.69902182 3.77082452,7.13518937 4.11219168,6.7880612 C4.45553206,6.44093303 5.00803383,6.44093303 5.34940099,6.7880612 L5.34940099,6.7880612 L6.58661029,8.04614999 Z M10.0515856,2.51417106 L10.0515856,4.00100326 L11.5137421,4.00100326 L10.0515856,2.51417106 Z" id="形状结合"></path>
                        </g>
                    </g>
                </g>
            </g>
        </g>
    </g>
</svg>