<?xml version="1.0" encoding="UTF-8"?>
<svg width="232px" height="208px" viewBox="0 0 232 208" version="1.1" xmlns="http://www.w3.org/2000/svg" xmlns:xlink="http://www.w3.org/1999/xlink">
    <title>编组 2</title>
    <defs>
        <path d="M4,0 L228,0 C230.209139,-4.05812251e-16 232,1.790861 232,4 L232,204 C232,206.209139 230.209139,208 228,208 L4,208 C1.790861,208 2.705415e-16,206.209139 0,204 L0,4 C-2.705415e-16,1.790861 1.790861,4.05812251e-16 4,0 Z" id="path-1"></path>
        <path d="M4,0 L228,0 C230.209139,-4.05812251e-16 232,1.790861 232,4 L232,204 C232,206.209139 230.209139,208 228,208 L4,208 C1.790861,208 2.705415e-16,206.209139 0,204 L0,4 C-2.705415e-16,1.790861 1.790861,4.05812251e-16 4,0 Z" id="path-3"></path>
        <linearGradient x1="100%" y1="55.2419138%" x2="0%" y2="53.9758041%" id="linearGradient-5">
            <stop stop-color="#FFFFFF" stop-opacity="0" offset="0%"></stop>
            <stop stop-color="#FFFFFF" stop-opacity="0.05" offset="35.9592519%"></stop>
            <stop stop-color="#FFFFFF" stop-opacity="0.2" offset="100%"></stop>
        </linearGradient>
        <linearGradient x1="97.5102161%" y1="56.1929571%" x2="0%" y2="56.212119%" id="linearGradient-6">
            <stop stop-color="#FFFFFF" stop-opacity="0" offset="0%"></stop>
            <stop stop-color="#FFFFFF" stop-opacity="0.1" offset="35.9592519%"></stop>
            <stop stop-color="#FFFFFF" stop-opacity="0.2" offset="100%"></stop>
        </linearGradient>
        <linearGradient x1="100%" y1="56.3327883%" x2="0%" y2="56.3327883%" id="linearGradient-7">
            <stop stop-color="#FFFFFF" stop-opacity="0" offset="0%"></stop>
            <stop stop-color="#FFFFFF" stop-opacity="0.05" offset="35.9592519%"></stop>
            <stop stop-color="#FFFFFF" stop-opacity="0.2" offset="100%"></stop>
        </linearGradient>
        <linearGradient x1="50%" y1="50%" x2="50%" y2="5.55111512e-15%" id="linearGradient-8">
            <stop stop-color="#FFFFFF" stop-opacity="0.05" offset="0%"></stop>
            <stop stop-color="#FFFFFF" stop-opacity="0.05" offset="35.9592519%"></stop>
            <stop stop-color="#FFFFFF" stop-opacity="0.2" offset="100%"></stop>
        </linearGradient>
    </defs>
    <g id="页面-1" stroke="none" stroke-width="1" fill="none" fill-rule="evenodd">
        <g id="个人中心01" transform="translate(-360.000000, -122.000000)">
            <g id="编组-2" transform="translate(360.000000, 122.000000)">
                <mask id="mask-2" fill="white">
                    <use xlink:href="#path-1"></use>
                </mask>
                <use id="矩形" fill="#00AA71" fill-rule="nonzero" xlink:href="#path-1"></use>
                <g id="编组" mask="url(#mask-2)">
                    <g id="logo_bg">
                        <mask id="mask-4" fill="white">
                            <use xlink:href="#path-3"></use>
                        </mask>
                        <use id="矩形" fill="#0080FF" fill-rule="nonzero" xlink:href="#path-3"></use>
                        <path d="M54.6632558,98.5559922 L54.6632558,144.377284 L-14.735814,144.377284 C-40.2874419,144.377284 -61,123.86301 -61,98.5559922 C-61,73.2489743 -40.2874419,52.7319369 -14.735814,52.7319369 C10.815814,52.7319369 31.5311628,73.2489743 31.5311628,98.5559922 L54.6632558,98.5559922 L54.6632558,98.5559922 Z" id="路径" fill="url(#linearGradient-5)" fill-rule="nonzero" mask="url(#mask-4)"></path>
                        <path d="M141.409302,64.1886418 C141.409302,90.1673073 128.937674,113.257612 109.60093,127.912244 L109.60093,144.377284 L60.4455814,144.377284 C15.7302326,144.377284 -20.5181395,108.475923 -20.5181395,64.1886418 C-20.5181395,19.9013604 15.7302326,-16 60.4455814,-16 C105.16093,-16 141.409302,19.9013604 141.409302,64.1886418 Z" id="路径" fill="url(#linearGradient-6)" fill-rule="nonzero" mask="url(#mask-4)"></path>
                        <path d="M51.772093,82.372317 C51.772093,117.168999 80.2530301,145.377284 115.386047,145.377284 C150.519063,145.377284 179,117.168999 179,82.372317 C179,47.5756348 150.519063,19.3673505 115.386047,19.3673505 C80.2530301,19.3673505 51.772093,47.5756348 51.772093,82.372317 L51.772093,82.372317 Z" id="路径" fill="url(#linearGradient-7)" fill-rule="nonzero" mask="url(#mask-4)"></path>
                        <path d="M-1,169 L23,169 L23,200 L-1,200 L-1,169 Z M48,168 L72,168 L72,208 L48,208 L48,168 Z M97,169 L121,169 L121,200 L97,200 L97,169 Z" id="形状" fill="url(#linearGradient-8)" fill-rule="nonzero" mask="url(#mask-4)"></path>
                    </g>
                    <g id="system_user" transform="translate(72.026884, 41.026884)" fill="#FFFFFF" fill-rule="nonzero">
                        <path d="M43.9731161,87.9462322 C19.7238289,87.9462322 9.09494702e-13,68.2224033 9.09494702e-13,43.9731161 C9.09494702e-13,19.7238289 19.7238289,0 43.9731161,0 C68.2224033,0 87.9462322,19.7238289 87.9462322,43.9731161 C87.9462322,68.2224033 68.2224033,87.9462322 43.9731161,87.9462322 Z" id="路径" opacity="0.200000003"></path>
                        <path d="M32.20978,50.3572749 L34.5217434,52.5258811 L31.5528161,53.6590231 C23.58264,56.7009898 17.0429221,62.5999547 13.1647282,70.3499001 C12.7153807,71.2462788 13.0832222,72.3338616 13.9871586,72.780402 C14.8901331,73.2264673 15.9857187,72.8613126 16.4346344,71.9657976 C21.6633951,61.5084718 32.2215629,55.0090084 43.9732277,55.0090084 C55.7196808,55.0090084 66.2804037,61.5126874 71.5139791,71.970127 C71.822142,72.5902187 72.4566667,72.9731161 73.1463189,72.9731161 C73.4180844,72.9731161 73.6988285,72.9075412 73.9592968,72.780402 C74.8632332,72.3338616 75.2310747,71.2462788 74.781105,70.3486578 C70.9035326,62.5999533 64.3638141,56.7009895 56.3936367,53.6590267 L53.4247108,52.5258823 L55.7366754,50.3572749 C59.1480395,47.1574382 61.1163969,42.7270161 61.1163969,37.9910623 C61.1163969,28.6103399 53.4229762,20.9731161 43.9732277,20.9731161 C34.5234792,20.9731161 26.8300585,28.6103399 26.8300585,37.9910623 C26.8300585,42.7270161 28.7984159,47.1574382 32.20978,50.3572749 Z M43.9731161,24.9731161 C51.1434286,24.9731161 56.9731161,30.8028036 56.9731161,37.9731161 C56.9731161,45.1434286 51.1434286,50.9731161 43.9731161,50.9731161 C36.8028036,50.9731161 30.9731161,45.1434286 30.9731161,37.9731161 C30.9731161,30.8028036 36.8028036,24.9731161 43.9731161,24.9731161 Z" id="合并形状"></path>
                        <path d="M43.9731161,87.9731161 C19.7090036,87.9731161 -0.0268839104,68.2372286 -0.0268839104,43.9731161 C-0.0268839104,19.7090036 19.7090036,-0.0268839104 43.9731161,-0.0268839104 C68.2372286,-0.0268839104 87.9731161,19.7090036 87.9731161,43.9731161 C87.9731161,68.2372286 68.2372286,87.9731161 43.9731161,87.9731161 Z M44,4 C21.942265,4 4,21.942265 4,44 C4,66.057735 21.942265,84 44,84 C66.057735,84 84,66.057735 84,44 C84,21.942265 66.057735,4 44,4 Z" id="形状"></path>
                    </g>
                </g>
            </g>
        </g>
    </g>
</svg>