<?xml version="1.0" encoding="UTF-8"?>
<svg width="20px" height="20px" viewBox="0 0 20 20" version="1.1" xmlns="http://www.w3.org/2000/svg" xmlns:xlink="http://www.w3.org/1999/xlink">
    <title>ico_ztly</title>
    <g id="页面-1" stroke="none" stroke-width="1" fill="none" fill-rule="evenodd">
        <g id="目录资源" transform="translate(-376.000000, -216.000000)">
            <g id="object-4" transform="translate(360.000000, 194.000000)">
                <g id="ico_ztly" transform="translate(16.000000, 22.000000)">
                    <polygon id="路径" fill="#98BFFF" points="0.714285714 0.705128205 19.2857143 0.705128205 19.2857143 15.6410256 0.714285714 15.6410256"></polygon>
                    <path d="M19.2857143,16.3461538 L0.714285714,16.3461538 C0.319796607,16.3461538 0,16.0304572 0,15.6410256 L0,0.705128205 C0,0.315696651 0.319796607,0 0.714285714,0 L19.2857143,0 C19.6802034,0 20,0.315696651 20,0.705128205 L20,15.6410256 C20,16.0304572 19.6802034,16.3461538 19.2857143,16.3461538 Z M1.42857143,14.9358974 L18.5714286,14.9358974 L18.5714286,1.41025641 L1.42857143,1.41025641 L1.42857143,14.9358974 Z M17.1428571,20 L2.85714286,20 C2.46265375,20 2.14285714,19.6843033 2.14285714,19.2948718 C2.14285714,18.9054402 2.46265375,18.5897436 2.85714286,18.5897436 L17.1428571,18.5897436 C17.5373462,18.5897436 17.8571429,18.9054402 17.8571429,19.2948718 C17.8571429,19.6843033 17.5373462,20 17.1428571,20 Z" id="形状" fill="#0052D9" fill-rule="nonzero"></path>
                    <path d="M7.14285714,11.1747436 C6.74836804,11.1747436 6.42857143,10.8590469 6.42857143,10.4696154 L6.42857143,8.94230769 C6.42857143,8.55287614 6.74836804,8.23717949 7.14285714,8.23717949 C7.53734625,8.23717949 7.85714286,8.55287614 7.85714286,8.94230769 L7.85714286,10.4696154 C7.85714286,10.8590469 7.53734625,11.1747436 7.14285714,11.1747436 Z M10,11.1747436 C9.60551089,11.1747436 9.28571429,10.8590469 9.28571429,10.4696154 L9.28571429,8.94230769 C9.28571429,8.55287614 9.60551089,8.23717949 10,8.23717949 C10.3944891,8.23717949 10.7142857,8.55287614 10.7142857,8.94230769 L10.7142857,10.4696154 C10.7142857,10.8590469 10.3944891,11.1747436 10,11.1747436 Z M12.8571429,11.1747436 C12.4626538,11.1747436 12.1428571,10.8590469 12.1428571,10.4696154 L12.1428571,8.94230769 C12.1428571,8.55287614 12.4626538,8.23717949 12.8571429,8.23717949 C13.251632,8.23717949 13.5714286,8.55287614 13.5714286,8.94230769 L13.5714286,10.4696154 C13.5714286,10.8590469 13.251632,11.1747436 12.8571429,11.1747436 Z" id="形状" fill="#0052D9" fill-rule="nonzero"></path>
                    <path d="M15.7142857,11.1747436 L4.28571429,11.1747436 C3.89122518,11.1747436 3.57142857,10.8590469 3.57142857,10.4696154 L3.57142857,6.70987179 C3.57142857,6.32044024 3.89122518,6.00474359 4.28571429,6.00474359 L15.7142857,6.00474359 C16.1087748,6.00474359 16.4285714,6.32044024 16.4285714,6.70987179 L16.4285714,10.4696154 C16.4285714,10.8590469 16.1087748,11.1747436 15.7142857,11.1747436 Z M5,9.76448718 L15,9.76448718 L15,7.415 L5,7.415 L5,9.76448718 Z" id="形状" fill="#0052D9" fill-rule="nonzero"></path>
                </g>
            </g>
        </g>
    </g>
</svg>