<?xml version="1.0" encoding="UTF-8"?>
<svg width="20px" height="20px" viewBox="0 0 20 20" version="1.1" xmlns="http://www.w3.org/2000/svg" xmlns:xlink="http://www.w3.org/1999/xlink">
    <title>ico_jclb</title>
    <g id="页面-1" stroke="none" stroke-width="1" fill="none" fill-rule="evenodd">
        <g id="目录资源" transform="translate(-376.000000, -144.000000)">
            <g id="object-2" transform="translate(360.000000, 122.000000)">
                <g id="ico_jclb" transform="translate(16.000000, 22.000000)">
                    <polygon id="路径" fill="#0052D9" points="5.38461538 16.3738462 14.6153846 16.3738462 14.6153846 17.9123077 5.38461538 17.9123077"></polygon>
                    <path d="M5.38461538,20 L0.769230769,20 C0.344396346,20 0,19.6556037 0,19.2307692 L0,14.6153846 C0,14.1905502 0.344396346,13.8461538 0.769230769,13.8461538 L5.38461538,13.8461538 C5.80944981,13.8461538 6.15384615,14.1905502 6.15384615,14.6153846 L6.15384615,19.2307692 C6.15384615,19.6556037 5.80944981,20 5.38461538,20 Z M1.53846154,18.4615385 L4.61538462,18.4615385 L4.61538462,15.3846154 L1.53846154,15.3846154 L1.53846154,18.4615385 Z M19.2307692,20 L14.6153846,20 C14.1905502,20 13.8461538,19.6556037 13.8461538,19.2307692 L13.8461538,14.6153846 C13.8461538,14.1905502 14.1905502,13.8461538 14.6153846,13.8461538 L19.2307692,13.8461538 C19.6556037,13.8461538 20,14.1905502 20,14.6153846 L20,19.2307692 C20,19.6556037 19.6556037,20 19.2307692,20 Z M15.3846154,18.4615385 L18.4615385,18.4615385 L18.4615385,15.3846154 L15.3846154,15.3846154 L15.3846154,18.4615385 Z M9.23076923,10 L10.7692308,10 L10.7692308,16.9230769 L9.23076923,16.9230769 L9.23076923,10 Z" id="形状" fill="#0052D9" fill-rule="nonzero"></path>
                    <path d="M13.4684615,3.70230769 C13.0315385,2.02076923 11.4361538,0.769230769 9.52076923,0.769230769 C7.54846154,0.769230769 5.90384615,2.09307692 5.52846154,3.85 C3.74615385,3.87 2.30769231,5.23692308 2.30769231,6.92307692 C2.30769231,8.62230769 3.76692308,10 5.56692308,10 L14.0253846,10 C16.05,10 17.6923077,8.45076923 17.6923077,6.53846154 C17.6923077,4.77538462 16.3238462,2.77846154 13.4684615,3.70230769 Z" id="路径" fill="#98BFFF"></path>
                    <path d="M14.0246154,10.7692308 L5.56692308,10.7692308 C3.34538462,10.7692308 1.53846154,9.04384615 1.53846154,6.92307692 C1.53846154,5.01846154 3.01615385,3.42 4.93538462,3.12769231 C5.59307692,1.28538462 7.43384615,0 9.52076923,0 C11.4761538,0 13.2023077,1.11307692 13.9576923,2.78384615 C14.2569231,2.72769231 14.5484615,2.69923077 14.8292308,2.69923077 C17.1884615,2.69923077 18.4615385,4.67769231 18.4615385,6.53846154 C18.4615385,8.87153846 16.4715385,10.7692308 14.0246154,10.7692308 Z M9.52076923,1.53846154 C7.94923077,1.53846154 6.58692308,2.57846154 6.28076923,4.01076923 C6.20560399,4.36257418 5.8966467,4.61529933 5.53692308,4.61923077 C4.18076923,4.63461538 3.07692308,5.66846154 3.07692308,6.92307692 C3.07692308,8.19538462 4.19384615,9.23076923 5.56692308,9.23076923 L14.0253846,9.23076923 C15.6230769,9.23076923 16.9230769,8.02307692 16.9230769,6.53846154 C16.9230769,5.74230769 16.4853846,4.23769231 14.8284615,4.23769231 C14.4459463,4.24445892 14.0668063,4.31063324 13.7046154,4.43384615 C13.5031184,4.49865175 13.2838297,4.47765488 13.0982914,4.37579069 C12.912753,4.27392649 12.7773278,4.10017844 12.7238462,3.89538462 C12.3630769,2.50769231 11.0461538,1.53846154 9.52076923,1.53846154 Z" id="形状" fill="#0052D9" fill-rule="nonzero"></path>
                </g>
            </g>
        </g>
    </g>
</svg>