<?xml version="1.0" encoding="UTF-8"?>
<svg width="16px" height="16px" viewBox="0 0 16 16" version="1.1" xmlns="http://www.w3.org/2000/svg" xmlns:xlink="http://www.w3.org/1999/xlink">
    <title>ico_01</title>
    <g id="页面-1" stroke="none" stroke-width="1" fill="none" fill-rule="evenodd">
        <g id="目录资源" transform="translate(-1341.000000, -379.000000)" fill-rule="nonzero">
            <g id="object-1备份" transform="translate(640.000000, 376.000000)">
                <g id="ico_01" transform="translate(701.000000, 3.000000)">
                    <rect id="矩形" fill-opacity="0" fill="#D8D8D8" x="0" y="0" width="16" height="16"></rect>
                    <path d="M8,1 C12.8629869,1 15.9843861,5.4798853 16,7.37100121 L16,7.62385544 C15.9843861,9.5201147 12.8629869,14 8,14 C3.18839955,14 1.36424205e-12,9.46283719 1.36424205e-12,7.62385544 L1.36424205e-12,7.37614458 C1.36424205e-12,5.53716281 3.18839956,1 8,1 Z M8,4.24997696 C6.21844296,4.24997696 4.76923041,5.70796295 4.76923041,7.49993549 C4.76923041,9.29190803 6.21844296,10.749894 8,10.749894 C9.78155704,10.749894 11.2307696,9.29190805 11.2307696,7.49993549 C11.2307696,5.70796293 9.78155704,4.24997696 8,4.24997696 Z M8,5.79757538 C8.93298362,5.79757538 9.69230876,6.56124458 9.69230876,7.49993549 C9.69230876,8.4386264 8.93300194,9.20229558 8,9.20229558 C7.06699806,9.20229558 6.30769124,8.43862642 6.30769124,7.49993549 C6.30769124,6.56124456 7.06699806,5.79757538 8,5.79757538 Z" fill="#3D3E49"></path>
                </g>
            </g>
        </g>
    </g>
</svg>