<?xml version="1.0" encoding="UTF-8"?>
<svg width="20px" height="20px" viewBox="0 0 20 20" version="1.1" xmlns="http://www.w3.org/2000/svg" xmlns:xlink="http://www.w3.org/1999/xlink">
    <title>ico_bmlx</title>
    <g id="页面-1" stroke="none" stroke-width="1" fill="none" fill-rule="evenodd">
        <g id="目录资源" transform="translate(-376.000000, -288.000000)">
            <g id="object-3" transform="translate(360.000000, 266.000000)">
                <g id="分组-7-copy" transform="translate(0.000000, 0.000000)">
                    <g id="ico_bmlx" transform="translate(16.000000, 22.000000)">
                        <rect id="矩形" fill-opacity="0" fill="#D8D8D8" fill-rule="nonzero" x="0" y="0" width="20" height="20"></rect>
                        <path d="M7.56416667,18.410524 C4.345625,18.0623411 3.3940625,17.1804682 3.19208333,16.9421628 C3.27739583,13.4589075 5.77697917,9.9942029 10.4808333,9.9942029 C13.2239583,9.9942029 15.2102083,11.1757414 16.4140625,12.8481605 L18.0933333,12.8481605 C17.1359375,11.1464883 15.5908333,9.72664437 13.4813542,9.03241918 C14.8023985,8.09550916 15.5850368,6.59624836 15.5864583,4.99977703 C15.5864583,2.2464214 13.2961458,0.00606465998 10.4822917,0.00606465998 C7.6684375,0.00606465998 5.378125,2.2464214 5.378125,4.99977703 C5.38012331,6.59644878 6.16327783,8.09565989 7.4846875,9.03241918 C3.7309375,10.2681828 1.73229167,13.7814047 1.73229167,17.12767 C1.73229167,17.2111483 1.74760417,17.2924861 1.77677083,17.3716834 C1.91458333,17.7426979 2.80489583,19.3587514 7.565625,19.8410702 L7.56416667,18.410524 Z M6.835,4.99977703 C6.83741149,3.0306242 8.46841253,1.43500925 10.4808333,1.43304348 C12.491875,1.43304348 14.1266667,3.03268673 14.1266667,4.99977703 C14.1250589,6.96948714 12.4938228,8.56597045 10.4808333,8.56793757 C8.47125,8.56793757 6.835,6.96758082 6.835,4.99977703 L6.835,4.99977703 Z" id="形状" fill="#40D1E7" fill-rule="nonzero"></path>
                        <path d="M6.04166667,4.99977703 C6.04166667,7.36407295 8.00042089,9.28071349 10.4166667,9.28071349 C12.8329124,9.28071349 14.7916667,7.36407295 14.7916667,4.99977703 C14.7916667,2.63548112 12.8329124,0.71884058 10.4166667,0.71884058 C8.00042089,0.71884058 6.04166667,2.63548112 6.04166667,4.99977703 Z" id="路径" fill="#98BFFF"></path>
                        <path d="M10.4166667,9.9942029 C7.60208333,9.9942029 5.3125,7.75384615 5.3125,4.99977703 C5.3125,2.24570792 7.60208333,0.00535117057 10.4166667,0.00535117057 C13.2305208,0.00535117057 15.5208333,2.24570792 15.5208333,4.99977703 C15.5208333,7.75384615 13.2305208,9.9942029 10.4166667,9.9942029 Z M10.4166667,1.43232999 C8.40635417,1.43232999 6.77083333,3.03268673 6.77083333,4.99977703 C6.77083333,6.96686734 8.40635417,8.56722408 10.4166667,8.56722408 C12.4269792,8.56722408 14.0625,6.96686734 14.0625,4.99977703 C14.0625,3.03268673 12.4269792,1.43232999 10.4166667,1.43232999 Z" id="形状" fill="#0052D9" fill-rule="nonzero"></path>
                        <path d="M10.4166667,9.28142698 C5.02229167,9.28142698 2.39583333,13.6708138 2.39583333,17.1283835 C2.39583333,17.1283835 3.19354167,19.2702787 10.4166667,19.2702787" id="路径" fill="#98BFFF"></path>
                        <path d="M10.4166667,19.9830546 C3.05572917,19.9830546 1.87302083,17.8076254 1.71114583,17.3723969 C1.68179983,17.2939962 1.66666667,17.2111638 1.66666667,17.12767 C1.66666667,13.5737793 4.38135417,8.56722408 10.4166667,8.56722408 C10.8193743,8.56722408 11.1458333,8.88666417 11.1458333,9.28071349 C11.1458333,9.67476281 10.8193743,9.9942029 10.4166667,9.9942029 C5.49041667,9.9942029 3.2190625,13.996165 3.12791667,16.9435897 C3.383125,17.2432553 4.80427083,18.5560758 10.4166667,18.5560758 C10.8193743,18.5560758 11.1458333,18.8755159 11.1458333,19.2695652 C11.1458333,19.6636145 10.8193743,19.9830546 10.4166667,19.9830546 Z" id="路径" fill="#0052D9"></path>
                        <path d="M10.4166667,9.28142698 C15.8110417,9.28142698 18.4375,13.6708138 18.4375,17.1283835 C18.4375,17.1283835 17.6397917,19.2702787 10.4166667,19.2702787" id="路径" fill="#98BFFF"></path>
                        <path d="M10.4166667,19.9830546 C10.013959,19.9830546 9.6875,19.6636145 9.6875,19.2695652 C9.6875,18.8755159 10.013959,18.5560758 10.4166667,18.5560758 C15.9503125,18.5560758 17.4101042,17.2796433 17.7046875,16.9307469 C17.6077083,13.9847492 15.335625,9.99491639 10.4166667,9.99491639 C10.013959,9.99491639 9.6875,9.6754763 9.6875,9.28142698 C9.6875,8.88737766 10.013959,8.56793757 10.4166667,8.56793757 C16.4519792,8.56793757 19.1666667,13.5737793 19.1666667,17.1283835 C19.1666667,17.2118618 19.1513542,17.293913 19.1221875,17.3731104 C18.9603125,17.8076254 17.7776042,19.9830546 10.4166667,19.9830546 L10.4166667,19.9830546 Z" id="路径" fill="#0052D9"></path>
                        <path d="M14.9827083,14.2301904 C14.7549368,14.2305302 14.5401412,14.1264977 14.4022917,13.9490747 C13.8752176,13.2632227 13.156495,12.7413459 12.3329167,12.446466 C12.0825352,12.362926 11.8980324,12.1532463 11.8507967,11.8985567 C11.803561,11.6438672 11.9010022,11.3841214 12.1054182,11.2198208 C12.3098342,11.0555203 12.5891578,11.0124391 12.8353125,11.1072464 C13.9201334,11.4944876 14.8669105,12.1812487 15.5609375,13.0843255 C15.7287113,13.2998167 15.757294,13.5896908 15.6347197,13.8325937 C15.5121453,14.0754965 15.2595605,14.2295225 14.9827083,14.2301904 L14.9827083,14.2301904 Z" id="路径" fill="#0052D9"></path>
                    </g>
                </g>
            </g>
        </g>
    </g>
</svg>