<?xml version="1.0" encoding="UTF-8"?>
<svg width="17px" height="12px" viewBox="0 0 17 12" version="1.1" xmlns="http://www.w3.org/2000/svg" xmlns:xlink="http://www.w3.org/1999/xlink">
    <title>ico_to_white</title>
    <g id="页面-1" stroke="none" stroke-width="1" fill="none" fill-rule="evenodd">
        <g id="首页02" transform="translate(-992.000000, -1648.000000)" fill="#FFFFFF">
            <g id="最新上线" transform="translate(0.000000, 1131.000000)">
                <g id="边距-&lt;16-24-16-24&gt;" transform="translate(888.000000, 499.000000)">
                    <path d="M120.686205,23.2930262 C121.104598,23.6835294 121.104598,24.3165483 120.686205,24.7070515 L115.329016,29.7071227 C114.910623,30.0976258 114.232392,30.0976258 113.813998,29.7071227 C113.395604,29.3166195 113.395604,28.6836006 113.813998,28.2930974 L117.342258,25.0000356 L105.07145,25.0000356 C104.479478,25.0000356 104,24.5525202 104,24 C104,23.4474992 104.479478,22.9999838 105.07145,22.9999838 L117.342258,22.9999838 L113.813998,19.706922 C113.605051,19.5119229 113.500068,19.2559113 113.500068,18.9998997 C113.500068,18.7438881 113.604531,18.4878959 113.813998,18.2928773 C114.232392,17.9023742 114.910623,17.9023742 115.329016,18.2928773 L120.686205,23.2930262 Z" id="ico_to_white"></path>
                </g>
            </g>
        </g>
    </g>
</svg>