<?xml version="1.0" encoding="UTF-8"?>
<svg width="168px" height="18px" viewBox="0 0 168 18" version="1.1" xmlns="http://www.w3.org/2000/svg" xmlns:xlink="http://www.w3.org/1999/xlink">
    <title>logo</title>
    <g id="页面-1" stroke="none" stroke-width="1" fill="none" fill-rule="evenodd">
        <g id="首页02" transform="translate(-360.000000, -21.000000)" fill="#FFFFFF">
            <g id="logo" transform="translate(360.000000, 14.000000)">
                <path d="M6.03715323,7.58734444 C5.90462969,8.08919641 5.75443721,8.57279723 5.58657527,9.0381481 L5.555,9.121 L5.47978092,9.12115248 L5.458,9.376 L5.41282349,9.49741569 C5.0535402,10.4037844 4.62357839,11.2371549 4.12293391,11.9975367 L2.35596224,25 L0.515366739,25 L1.91421932,14.9630108 C1.4233914,15.4192398 0.785324672,15.9008077 0,16.4077289 L0.441742919,13.5943304 C0.834405255,13.2901777 1.25160273,12.8593012 1.69334786,12.3016879 C2.08601019,11.7440746 2.50320767,11.0343956 2.9449528,10.1726295 C3.38669792,9.31086353 3.70573129,8.44911045 3.90206245,7.58734444 L6.03715323,7.58734444 Z M14.8873435,18.2310325 C15.3651814,18.2310325 15.6909751,18.3475555 15.8647343,18.580605 C15.9950537,18.8719169 16.0167733,19.3671396 15.9298937,20.0662881 L15.473778,24.960303 L4.65732002,24.960303 L5.37407326,18.2310325 L14.8873435,18.2310325 Z M121.825344,16.2944367 C122.18133,16.2944367 122.35932,16.447182 122.35932,16.7526772 C122.308465,17.1090883 122.232183,17.3891214 122.130473,17.5927849 C122.028763,17.8473642 121.799918,18.0764822 121.443932,18.2801457 C120.274263,18.8402203 118.850341,19.3493713 117.172121,19.8076141 L124.342661,19.8076141 L124.113814,21.411456 L116.790709,21.411456 L116.256733,24.9246335 L111.984922,24.9246335 L111.450945,23.397165 L114.273392,23.397165 L114.578521,21.411456 L107.179134,21.411456 L107.407981,19.8076141 L114.883651,19.8076141 L114.959933,19.0438799 C116.180456,18.7383847 117.299253,18.3565214 118.316356,17.8982786 C118.367211,17.8982786 118.418065,17.872821 118.468921,17.8219052 L110.230428,17.8219052 L109.772734,16.2944367 L121.825344,16.2944367 Z M68.6920631,17.842313 C67.687736,20.666273 66.7489226,22.976751 65.8755947,24.7738165 L63.8451174,24.7738165 C64.9367773,22.6173379 65.9410894,20.3068599 66.8580837,17.842313 L68.6920631,17.842313 Z M53.1864928,18.2801457 C53.0847825,18.6874726 52.9576465,19.1457086 52.8050811,19.6548673 C52.6016605,20.2149419 52.3982429,20.6477203 52.1948224,20.9532155 L53.4153398,20.9532155 C54.8901391,22.0733646 56.8734602,23.3462423 59.3653624,24.7718866 L55.7038101,24.7718866 C54.6358519,24.0590644 53.2882107,23.0153048 51.660846,21.6405763 C50.643743,22.7607254 49.067257,23.8044851 46.9313408,24.7718866 L42.4306827,24.7718866 C46.0413982,23.6008216 48.4569815,22.2770289 49.6775051,20.8004686 C49.9317808,20.5458893 50.1860528,20.2149411 50.4403285,19.8076141 C50.6437491,19.4512031 50.7963123,18.942052 50.8980225,18.2801457 L53.1864928,18.2801457 Z M28.6540918,18.8911331 L27.8912684,23.0916713 L34.9855261,23.0916713 L34.4515497,24.7718866 L25.3739511,24.7718866 L26.5181862,18.8911331 L28.6540918,18.8911331 Z M130.923281,9.80269578 L132.753284,11.101044 L130.850081,24.6955132 L128.800477,24.6955132 L130.923281,9.80269578 Z M145.929308,7.43511968 C146.319711,7.43511968 146.588109,7.51149233 146.73451,7.66423994 C146.880911,7.86790342 146.92971,8.17339406 146.88091,8.58072101 L144.831306,24.6955132 L141.024899,24.6955132 L140.585699,22.9389245 L143.001303,22.9389245 L144.758106,9.64994893 C144.758106,9.49720132 144.733706,9.36991356 144.684906,9.26808182 C144.636106,9.21716595 144.489707,9.1917084 144.245705,9.1917084 L137.145292,9.1917084 L136.413291,7.43511968 L145.929308,7.43511968 Z M160.984927,7.33510331 C161.47984,8.11577743 161.957149,8.81162205 162.416863,9.42264952 L166.987417,9.42082866 C167.366397,9.42082866 167.650628,9.52265888 167.840118,9.72632235 C167.982236,9.92998583 168.029608,10.1845614 167.982235,10.4900566 L167.129534,16.2944367 L155.333837,16.2944367 C154.433759,20.1131269 153.628439,22.8880002 152.917851,24.6191398 L150.643982,24.6191398 L153.202085,16.523557 C153.533692,14.7415015 153.794237,12.3739491 153.983727,9.42082866 L159.858,9.42 L158.741927,7.33510331 L160.984927,7.33510331 Z M82.7535283,7.35874625 L82.5246813,9.03896155 L78.8631289,9.03896155 C78.6597083,9.59903612 78.4308636,10.1081872 78.1765878,10.56643 L80.3124934,10.56643 C80.9227552,10.56643 81.3041631,10.6682602 81.4567285,10.8719237 C81.609294,11.0755872 81.6347212,11.482908 81.5330109,12.0938985 L80.6939051,17.8982786 L77.7951761,17.8982786 L76.879788,24.6191398 L73.4470827,24.6191398 L73.065671,23.0152979 L75.0490118,23.0152979 L75.8118353,17.8982786 L72.6842593,17.8982786 L73.6759297,10.56643 L76.0406823,10.56643 C76.294958,10.0572713 76.4983756,9.54812025 76.650941,9.03896155 L72.7605416,9.03896155 C72.5062659,11.9411661 72.2265667,14.3087185 71.9214358,16.1416899 C71.4637395,18.8911468 70.6246421,21.7169352 69.4041186,24.6191398 L67.1156483,24.6191398 C68.5395925,21.5132717 69.4549714,18.6111107 69.8618126,15.9125696 C70.0652332,14.7415046 70.2686508,13.3158816 70.4720714,11.6356579 C70.675492,10.0063501 70.8280551,8.58072712 70.9297654,7.35874625 L82.7535283,7.35874625 Z M98.9711541,19.5784939 C99.4288505,20.2404002 100.039103,21.0550419 100.80193,22.0224434 C101.564758,22.9898449 102.302146,23.8299442 103.014118,24.5427663 L99.9628246,24.5427663 C98.8440113,23.0662061 97.7252148,21.4114652 96.6064015,19.5784939 L98.9711541,19.5784939 Z M94.2416489,19.5784939 C93.4279666,20.4949795 92.563442,21.4114514 91.6480493,22.3279371 C90.6818015,23.2953386 89.8681313,24.0336076 89.2070144,24.5427663 L85.7743091,24.5427663 C86.7405569,23.9317759 87.7576446,23.1425918 88.8256027,22.1751902 C89.8935608,21.2077887 90.7580854,20.3422319 91.4192023,19.5784939 L94.2416489,19.5784939 Z M25.6027981,19.2730002 C24.8908261,20.8004763 24.0771559,22.3024719 23.1617632,23.7790321 L20.6444459,23.7790321 C21.9158247,21.8951449 22.8312036,20.3931493 23.3906102,19.2730002 L25.6027981,19.2730002 Z M36.2823259,19.2730002 C36.994298,20.6986445 37.782541,22.2006402 38.6470785,23.7790321 L36.1297612,23.7790321 C35.366934,22.0478925 34.705827,20.5458969 34.1464204,19.2730002 L36.2823259,19.2730002 Z M80.1599287,18.8911331 C80.3633493,20.1640298 80.6684756,21.6660254 81.0753168,23.397165 L79.0156936,23.397165 C78.7614179,22.0224365 78.5325731,20.5204409 78.3291525,18.8911331 L80.1599287,18.8911331 Z M74.8964472,18.8911331 C74.1336199,20.5204409 73.3199498,22.0224365 72.4554122,23.397165 L70.395789,23.397165 C71.412892,21.8696889 72.2519894,20.3676933 72.9131063,18.8911331 L74.8964472,18.8911331 Z M13.9751121,19.978895 L6.87273912,19.978895 L6.5469422,23.2124405 L13.9751121,23.2124405 L14.1705903,20.3284675 C14.2140301,20.095418 14.1488713,19.978895 13.9751121,19.978895 Z M57.3057392,16.0653164 C57.916001,16.0653164 58.3228361,16.1671466 58.5262567,16.3708101 C58.7296767,16.6253895 58.7805317,17.0327103 58.6788214,17.5927849 L57.915998,22.2515637 L55.7800924,22.2515637 L56.5429158,18.0510254 C56.5429158,17.8473619 56.441207,17.7455317 56.2377864,17.7455317 L47.6178819,17.7455317 L46.8550585,22.5570574 L44.7191529,22.5570574 L45.7871057,16.0653164 L57.3057392,16.0653164 Z M31.6291031,18.509266 C31.9850891,19.5784992 32.4173514,20.673174 32.9259029,21.7933231 L30.5611503,21.7933231 C30.2560194,20.7750057 29.9508931,19.680331 29.6457622,18.509266 L31.6291031,18.509266 Z M94.699343,7.35874625 L94.2416489,10.6428034 L98.284613,10.6428034 L98.7423071,7.35874625 L101.030777,7.35874625 L100.573083,10.6428034 L103.853224,10.6428034 L103.548095,12.3993921 L100.344236,12.3993921 L99.7339775,16.6763038 L103.853224,16.6763038 L103.548095,18.509266 L86.7659795,18.509266 L87.0711089,16.6763038 L91.114073,16.6763038 L91.7243317,12.3993921 L88.5204733,12.3993921 L88.7493204,10.6428034 L91.9531787,10.6428034 L92.4108728,7.35874625 L94.699343,7.35874625 Z M32.8496206,7.20599941 C32.6970551,7.61332636 32.4427832,8.14793498 32.0867972,8.80984128 L37.197714,8.80984128 C37.6554104,8.80984128 37.9605367,8.91167149 38.1131021,9.11533497 C38.2656676,9.31899845 38.316522,9.64994664 38.2656668,10.1081895 L37.197714,17.8982786 L23.7720219,17.8982786 L25.0688217,8.80984128 L29.6457622,8.80984128 C30.0017483,8.19885085 30.2560202,7.66424223 30.4085856,7.20599941 L32.8496206,7.20599941 Z M16.0085552,15.3779556 L15.7571503,16.9817975 L5.53335176,16.9817975 L5.78475664,15.3779556 L16.0085552,15.3779556 Z M98.055766,12.3993921 L94.0128019,12.3993921 L93.4025432,16.6763038 L97.4455073,16.6763038 L98.055766,12.3993921 Z M67.3820778,12.0660602 L69.0195595,16.3019789 L66.9890822,16.3019789 L65.6135976,12.0660602 L67.3820778,12.0660602 Z M35.3669378,15.3015822 L26.2893392,15.3015822 L26.1367745,16.2944367 L35.2143732,16.2944367 L35.3669378,15.3015822 Z M79.1682583,14.9197151 L75.0490118,14.9197151 L74.8964472,16.2944367 L78.9394113,16.2944367 L79.1682583,14.9197151 Z M56.6191982,10.56643 C56.4157776,11.0246728 56.0343697,11.6101965 55.474963,12.3230187 L57.0768922,12.3230187 C58.5516915,13.6977472 59.7721968,14.7669644 60.7384446,15.5307025 L57.8397156,15.5307025 C57.4837296,15.1233755 57.0006129,14.5887669 56.3903511,13.9268606 C55.7292342,13.3158702 55.3223991,12.9085493 55.1698337,12.7048858 C54.7121373,13.2649604 54.2035935,13.7741115 53.6441868,14.2323543 C53.0847802,14.741513 52.5762363,15.1233763 52.11854,15.3779556 L48.53327,15.3779556 C49.6520832,14.9197128 50.6183166,14.3851042 51.4319989,13.7741138 C52.2456813,13.2140392 52.8813611,12.6285155 53.3390575,12.017525 C53.7967538,11.4574505 54.1018801,10.973757 54.2544456,10.56643 L56.6191982,10.56643 Z M121.857386,10.9756133 C122.426455,10.9756133 122.814451,11.0534403 123.021385,11.2090967 C123.176586,11.4036672 123.202452,11.734432 123.098985,12.2014011 L122.555785,15.4701687 L109.674191,15.4701687 L110.527791,10.9756133 L121.857386,10.9756133 Z M49.6012227,10.7191768 C48.4824095,12.5012323 47.4144674,14.0032279 46.3973644,15.2252088 L43.6512001,15.2252088 C44.312317,14.5633025 44.9734241,13.8250334 45.634541,13.0103795 C46.2448028,12.1957256 46.7787738,11.431999 47.2364702,10.7191768 L49.6012227,10.7191768 Z M165.566249,11.1774174 L155.973363,11.1774174 L155.618071,14.537848 L165.282015,14.537848 L165.779424,11.4829111 C165.826797,11.2792476 165.755739,11.1774174 165.566249,11.1774174 Z M120.770986,12.1430303 L112.31259,12.1430303 L111.92459,14.3027517 L120.770986,14.3027517 L121.003786,12.3765137 C121.05552,12.2208573 120.97792,12.1430303 120.770986,12.1430303 Z M16.3899669,12.552139 L16.138562,14.1559809 L5.91476347,14.1559809 L6.16616835,12.552139 L16.3899669,12.552139 Z M35.7483495,12.7812593 L26.5944686,12.7812593 L26.5181862,13.7741138 L35.5957849,13.7741138 L35.7483495,12.7812593 Z M79.320823,12.1702719 L75.3541412,12.1702719 L75.2015765,13.3922466 L79.3971053,13.3922466 L79.4733876,12.3993921 C79.5242428,12.2466445 79.4733884,12.1702719 79.320823,12.1702719 Z M54.1018809,7.20599941 L53.6441868,8.35160075 L60.3570329,8.35160075 C60.9672947,8.35160075 61.272421,8.52980362 61.272421,8.8862147 C61.272421,9.24262579 61.1707122,9.67540419 60.9672916,10.1845629 C60.7130159,10.8464692 60.4587439,11.4319929 60.2044682,11.9411516 L57.915998,11.9411516 C58.2211289,11.381077 58.500828,10.8210109 58.7551037,10.2609363 C58.8059589,10.1081887 58.7551045,10.031816 58.602539,10.031816 L52.8813634,10.031816 C52.4236671,10.9483017 51.9914048,11.7629434 51.5845636,12.4757656 L48.990964,12.4757656 C50.2623427,10.5409625 51.2031489,8.78439137 51.8134106,7.20599941 L54.1018809,7.20599941 Z M35.9009142,10.4136832 L26.9758803,10.4136832 L26.8233156,11.3301642 L35.9009142,11.3301642 L36.0534789,10.56643 C36.0534789,10.4645983 36.0026245,10.4136832 35.9009142,10.4136832 Z M12.1987774,7 L12.424626,9.12115248 L17.844993,9.12115248 L17.6756065,11.1539236 L5.31039445,11.1539236 L5.458,9.376 L5.555,9.121 L10.6742992,9.12115248 L10.4484506,7 L12.1987774,7 Z M67.9715712,7.1369911 L69.6745521,11.1418597 L67.7095742,11.1418597 L66.1375918,7.1369911 L67.9715712,7.1369911 Z M134.290487,7.20599941 L135.75449,10.4900566 L133.631686,10.4900566 L132.314084,7.20599941 L134.290487,7.20599941 Z M117.437857,7.06502742 L117.744047,8.73655375 L125.092629,8.73655375 L124.862986,10.3384331 L108.099034,10.3384331 L108.328677,8.73655375 L115.371068,8.73655375 L115.064877,7.06502742 L117.437857,7.06502742 Z M47.6178819,7.20599941 C48.3298539,8.2243168 49.0163882,9.19170381 49.6775051,10.1081895 L47.0839055,10.1081895 C46.3210783,8.8862086 45.7362528,7.91882158 45.3294116,7.20599941 L47.6178819,7.20599941 Z" id="合并形状"></path>
            </g>
        </g>
    </g>
</svg>