<?xml version="1.0" encoding="UTF-8"?>
<svg width="60px" height="60px" viewBox="0 0 60 60" version="1.1" xmlns="http://www.w3.org/2000/svg" xmlns:xlink="http://www.w3.org/1999/xlink">
    <title>信息资源管理</title>
    <defs>
        <ellipse id="path-1" cx="26.754386" cy="30" rx="26.754386" ry="30"></ellipse>
    </defs>
    <g id="页面-1" stroke="none" stroke-width="1" fill="none" fill-rule="evenodd">
        <g id="首页02" transform="translate(-1420.000000, -1382.000000)">
            <g id="最新上线" transform="translate(0.000000, 1131.000000)">
                <g id="box-2备份-4" transform="translate(1340.000000, 211.000000)">
                    <g id="信息资源管理" transform="translate(80.000000, 40.000000)">
                        <g id="Rectangle-Clipped" transform="translate(3.210526, 0.000000)">
                            <mask id="mask-2" fill="white">
                                <use xlink:href="#path-1"></use>
                            </mask>
                            <g id="path-1"></g>
                            <path d="M42.2056696,54.4917469 C45.1542286,57.5365816 46.9298246,61.4491314 46.9298246,65.7352941 C46.9298246,75.5305945 37.6563524,83.374613 26.3157895,83.374613 C14.9752265,83.374613 5.70175439,75.5305945 5.70175439,65.7352941 C5.70175439,61.2615946 7.6361285,57.1949173 10.818339,54.0966516 C8.38219721,52.0686256 6.26546391,49.5874792 4.56614033,46.7655457 L7.691082,46.7651636 C9.16020541,48.9099166 10.9041762,50.7995789 12.8621233,52.3667467 C13.7992198,51.6752128 14.8097839,51.055801 15.881946,50.5170498 C15.3971045,49.3431701 14.9543126,48.0892337 14.5578932,46.7658254 L16.3976837,46.765341 C16.7301892,47.8292654 17.0928149,48.8403987 17.4823044,49.7922541 C19.9132064,48.805107 22.6035145,48.2134415 25.4373991,48.111713 L25.4370492,46.764387 L28.0700492,46.764387 L28.0701922,48.1589977 C30.872363,48.3611627 33.5190328,49.0431748 35.8944391,50.1103735 C36.3341445,49.0669794 36.7411002,47.9493561 37.1108252,46.7664289 L38.9509269,46.7658395 C38.5116479,48.232462 38.0154201,49.6138493 37.4681208,50.8956193 C38.4426583,51.4322666 39.3611934,52.0373708 40.214276,52.703202 C42.3482774,51.0730118 44.2409939,49.0658668 45.8172934,46.7650369 L48.9431581,46.7649544 C47.1319748,49.7730105 44.846577,52.3939433 42.2056696,54.4917469 Z M12.9521214,55.7019764 L12.8510083,55.7946315 C10.0367137,58.4496656 8.33333333,61.9369007 8.33333333,65.7352941 C8.33333333,73.9704664 16.3400989,80.7430341 26.3157895,80.7430341 C36.29148,80.7430341 44.2982456,73.9704664 44.2982456,65.7352941 C44.2982456,62.0542965 42.6985299,58.6655207 40.0383114,56.043176 C37.2645312,57.8251169 34.1778558,59.0658066 30.8906787,59.636718 C29.5871698,60.4438535 28.2003251,60.877193 26.754386,60.877193 C25.3085788,60.877193 23.9218553,60.4439326 22.6184695,59.6367638 C19.1244756,59.0299524 15.8573342,57.6666403 12.9521214,55.7019764 Z M25.4374852,50.7451295 C22.9889223,50.8433528 20.6729323,51.3500506 18.5821462,52.1837588 C19.5563352,54.070183 20.6510497,55.6296486 21.8295735,56.7891328 C23.0039086,57.0656131 24.2091453,57.2453964 25.438338,57.320547 L25.4374852,50.7451295 Z M28.0704451,50.7980627 L28.0704339,57.320547 C29.3000799,57.2453687 30.5057523,57.0654805 31.6805333,56.7885428 C32.7947117,55.6916799 33.8342027,54.237582 34.7677663,52.487707 C32.7386427,51.5823154 30.4757727,50.9924441 28.0704451,50.7980627 Z M16.9836538,52.9072369 L16.8511942,52.9745595 C16.2565733,53.2828478 15.6852318,53.6192433 15.1397767,53.9814534 C16.2847549,54.6976552 17.4856576,55.3100286 18.7331572,55.8092517 C18.1135692,54.9377537 17.5289409,53.9666746 16.9836538,52.9072369 Z M36.3326398,53.2726979 C35.8429586,54.1905255 35.3229539,55.0383832 34.7756494,55.8088868 C35.8558111,55.3769707 36.9009305,54.8599368 37.9048095,54.2650806 C37.4036956,53.9106878 36.878862,53.5795375 36.3326398,53.2726979 Z M26.3157895,-23.374613 C37.6563524,-23.374613 46.9298246,-15.5305945 46.9298246,-5.73529412 C46.9298246,-1.44866356 45.1538409,2.46427258 42.2058391,5.50964513 C44.8463874,7.6066784 47.1315303,10.2269317 48.9425929,13.2343645 L45.8175737,13.2346668 C44.2414136,10.9336895 42.3489058,8.92632379 40.215217,7.29580316 L39.9491827,7.50044511 C39.1718643,8.08656029 38.3426497,8.6231617 37.468364,9.10466837 C38.0156067,10.3863714 38.511791,11.7677073 38.9510367,13.2342904 L37.1109461,13.2342044 C36.7410896,12.0508143 36.3339683,10.9327395 35.8940637,9.8889071 L35.8000841,9.93175142 C33.4491455,10.9747209 30.8355856,11.6414414 28.0706192,11.8409715 L28.0700492,13.234387 L25.4370492,13.234387 L25.4373991,11.8882873 C22.6035148,11.7865617 19.9132092,11.1949278 17.4823344,10.2081191 C17.0928535,11.1598323 16.7302321,12.1708557 16.3977282,13.2346966 L14.5577663,13.2344234 C14.9541787,11.9108899 15.3969694,10.6567697 15.881819,9.48263221 C14.8096793,8.9439371 13.7991337,8.32457141 12.8617931,7.63403069 L12.8252198,7.66284994 C10.8823923,9.22408417 9.15120774,11.1033084 7.69138396,13.2343956 L4.56604925,13.2343225 C6.26531917,10.4123114 8.38196719,7.93104165 10.8179735,5.90281956 C7.6361285,2.80508268 5.70175439,-1.2615946 5.70175439,-5.73529412 C5.70175439,-15.5305945 14.9752265,-23.374613 26.3157895,-23.374613 Z M25.438338,2.67945304 C24.3005197,2.74901717 23.1832281,2.908236 22.091944,3.15104049 L21.8295057,3.21075577 C20.6509297,4.37015402 19.5561227,5.92946736 18.5817697,7.81562179 C20.6723964,8.64981813 22.9888361,9.1566937 25.4379542,9.25488906 L25.438338,2.67945304 Z M28.0704339,2.67945304 L28.0704425,9.20194395 C30.4757592,9.00759018 32.7385728,8.41786187 34.7674054,7.51320902 C33.8337147,5.76242395 32.793969,4.30775608 31.6792397,3.21097528 C30.5043881,2.93431597 29.2993842,2.75458882 28.0704339,2.67945304 Z M18.7335255,4.19031144 L18.4308757,4.31430656 C17.2910805,4.79001873 16.1913287,5.36061287 15.1391775,6.01772086 C15.7252629,6.40737218 16.3412173,6.76678048 16.9838255,7.09354194 C17.5291831,6.03379695 18.1138762,5.06248459 18.7335255,4.19031144 Z M34.7767677,4.19120971 L34.8052713,4.23209869 C35.3418674,4.99140455 35.8520938,5.82516347 36.3330896,6.72637448 C36.8791805,6.41968519 37.4038948,6.08868048 37.9050526,5.73527811 C36.9012414,5.14024741 35.8564584,4.62334953 34.7767677,4.19120971 Z M26.3157895,-20.7430341 C16.3400989,-20.7430341 8.33333333,-13.9704664 8.33333333,-5.73529412 C8.33333333,-1.89221262 10.0770299,1.6323459 12.9507991,4.29873142 C15.8568595,2.33348608 19.1246965,0.969857523 22.6190922,0.363108473 C23.9221792,-0.444033823 25.3087476,-0.877192982 26.754386,-0.877192982 C28.2003251,-0.877192982 29.5871698,-0.443853529 30.8906592,0.363457162 C34.1778558,0.934193385 37.2645312,2.17488305 40.0378735,3.95607437 C42.6985299,1.33447925 44.2982456,-2.05429652 44.2982456,-5.73529412 C44.2982456,-13.9704664 36.29148,-20.7430341 26.3157895,-20.7430341 Z" id="合并形状" fill="#3D3E49" fill-rule="nonzero" mask="url(#mask-2)"></path>
                        </g>
                        <g id="IRM" transform="translate(0.000000, 18.000000)" fill="#0080FF" fill-rule="nonzero">
                            <polygon id="路径" points="0 0 6.78286853 0 6.78286853 24 0 24"></polygon>
                            <path d="M11.7280876,24 L11.7280876,0 L23.0079681,0 C25.0996016,0 26.6982072,0.196452933 27.8037849,0.589358799 C28.9093625,0.982264666 29.8007968,1.71077763 30.4780876,2.77489768 C31.1553785,3.83901774 31.4940239,5.13506139 31.4940239,6.66302865 C31.4940239,7.99454297 31.2350598,9.14324693 30.7171315,10.1091405 C30.1992032,11.0750341 29.4870518,11.8581173 28.5806773,12.4583902 C28.002988,12.840382 27.2111554,13.1568895 26.2051793,13.4079127 C27.0119522,13.7025921 27.5996016,13.9972715 27.9681275,14.2919509 C28.2171315,14.4884038 28.5781873,14.9085948 29.0512948,15.5525239 C29.5244024,16.1964529 29.8406375,16.6930423 30,17.042292 L33.2719124,24 L25.62251,24 L22.0069721,16.6657572 C21.5488048,15.7162347 21.1404382,15.0995907 20.7818725,14.8158254 C20.2938247,14.4447476 19.7410359,14.2592087 19.123506,14.2592087 L18.5258964,14.2592087 L18.5258964,24 L11.7280876,24 Z M18.5258964,9.72442019 L21.3794821,9.72442019 C21.688247,9.72442019 22.2858566,9.61527967 23.1723108,9.39699864 C23.6205179,9.29877217 23.9865538,9.04774898 24.2704183,8.64392906 C24.5542829,8.24010914 24.6962151,7.77626194 24.6962151,7.25238745 C24.6962151,6.47748977 24.4721116,5.88267394 24.0239044,5.46793997 C23.5756972,5.053206 22.7340637,4.84583902 21.499004,4.84583902 L18.5258964,4.84583902 L18.5258964,9.72442019 Z" id="形状"></path>
                            <polygon id="路径" points="35.3635458 0 44.2679283 0 47.7041833 14.6030014 51.125498 0 60 0 60 24 54.4721116 24 54.4721116 5.69713506 50.1842629 24 45.1792829 24 40.9063745 5.69713506 40.9063745 24 35.3635458 24"></polygon>
                        </g>
                    </g>
                </g>
            </g>
        </g>
    </g>
</svg>