<?xml version="1.0" encoding="UTF-8"?>
<svg width="48px" height="48px" viewBox="0 0 48 48" version="1.1" xmlns="http://www.w3.org/2000/svg" xmlns:xlink="http://www.w3.org/1999/xlink">
    <title>ico-18</title>
    <g id="页面-1" stroke="none" stroke-width="1" fill="none" fill-rule="evenodd">
        <g id="首页01" transform="translate(-936.000000, -1045.000000)">
            <g id="政务信息资源分类" transform="translate(0.000000, 360.000000)">
                <g id="card" transform="translate(845.000000, 653.000000)">
                    <g id="ico-18" transform="translate(91.000000, 32.000000)">
                        <rect id="矩形" fill-opacity="0" fill="#D8D8D8" fill-rule="nonzero" x="0" y="0" width="48" height="48"></rect>
                        <path d="M24,0 C25.6461806,1.50160714 27.3780258,2.80232143 29.1960813,3.90107143 C34.1248016,6.97071429 39.8506944,8.91803571 46,9.37553571 L46,19.5819643 C46,32.83125 37.0019345,44.4541071 24,48 C10.9980655,44.4541071 2,32.83125 2,19.5819643 L2,9.37553571 C8.90064484,8.86178571 15.2676587,6.47303571 20.5739583,2.72625 C21.7514385,1.90660714 22.8934524,0.9975 24,0 Z M20.0877944,17 C19.4132762,19.3058824 18.379015,21.342246 17,23.0791444 L17,23.0791444 L17.4646681,24.6064171 C17.9143469,24.0973262 18.3190578,23.5882353 18.7087794,23.0791444 L18.7087794,23.0791444 L18.7087794,31 L20.1027837,31 L20.1027837,20.8481283 C20.6423983,19.8149733 21.0770878,18.7368984 21.4218415,17.628877 L21.4218415,17.628877 Z M30.0406852,25.5497326 L22.1862955,25.5497326 L22.1862955,30.9700535 L23.5653105,30.9700535 L23.5653105,30.1914439 L28.6616702,30.1914439 L28.6616702,30.9700535 L30.0406852,30.9700535 L30.0406852,25.5497326 Z M28.6616702,26.8673797 L28.6616702,28.8588235 L23.5653105,28.8588235 L23.5653105,26.8673797 L28.6616702,26.8673797 Z M29.7259101,23.3187166 L22.51606,23.3187166 L22.51606,24.6064171 L29.7259101,24.6064171 L29.7259101,23.3187166 Z M29.7259101,21.2074866 L22.51606,21.2074866 L22.51606,22.4802139 L29.7259101,22.4802139 L29.7259101,21.2074866 Z M26.2334047,17.1048128 L24.869379,17.4791444 C25.124197,17.9582888 25.3490364,18.4524064 25.5438972,18.9614973 L25.5438972,18.9614973 L21.1520343,18.9614973 L21.1520343,20.2941176 L31,20.2941176 L31,18.9614973 L26.9528908,18.9614973 C26.7880086,18.3925134 26.5481799,17.7786096 26.2334047,17.1048128 L26.2334047,17.1048128 Z" id="合并形状" fill="#0080FF"></path>
                        <path d="M24,11 C26.2444465,11 28.488893,11.5805566 30.5,12.7416697 C32.511107,13.9027829 34.136107,15.5562523 35.2583303,17.4999999 C36.3805535,19.4437476 37,21.6777736 37,24 C37,26.3222263 36.3805535,28.5562523 35.2583302,30.5 C34.136107,32.4437477 32.511107,34.0972171 30.5,35.2583302 C28.488893,36.4194434 26.2444465,37 24,37 C21.7555535,37 19.511107,36.4194434 17.5,35.2583302 C15.488893,34.0972171 13.863893,32.4437477 12.7416698,30.5 C11.6194465,28.5562523 11,26.3222263 11,24 C11,21.6777736 11.6194465,19.4437476 12.7416697,17.4999999 C13.863893,15.5562523 15.488893,13.9027829 17.5,12.7416697 L17.5,12.7416697 C19.511107,11.5805566 21.7555535,11 24,11 Z" id="合并形状" stroke="#FFFFFF" stroke-width="2" fill="#3D3E49"></path>
                        <path d="M18.7087794,23.0791444 C18.3190578,23.5882353 17.9143469,24.0973262 17.4646681,24.6064171 L17,23.0791444 C18.379015,21.342246 19.4132762,19.3058824 20.0877944,17 L21.4218415,17.628877 C21.0770878,18.7368984 20.6423983,19.8149733 20.1027837,20.8481283 L20.1027837,31 L18.7087794,31 L18.7087794,23.0791444 Z M21.1520343,18.9614973 L25.5438972,18.9614973 C25.3490364,18.4524064 25.124197,17.9582888 24.869379,17.4791444 L26.2334047,17.1048128 C26.5481799,17.7786096 26.7880086,18.3925134 26.9528908,18.9614973 L31,18.9614973 L31,20.2941176 L21.1520343,20.2941176 L21.1520343,18.9614973 Z M22.51606,21.2074866 L29.7259101,21.2074866 L29.7259101,22.4802139 L22.51606,22.4802139 L22.51606,21.2074866 Z M22.51606,23.3187166 L29.7259101,23.3187166 L29.7259101,24.6064171 L22.51606,24.6064171 L22.51606,23.3187166 Z M30.0406852,25.5497326 L30.0406852,30.9700535 L28.6616702,30.9700535 L28.6616702,30.1914439 L23.5653105,30.1914439 L23.5653105,30.9700535 L22.1862955,30.9700535 L22.1862955,25.5497326 L30.0406852,25.5497326 Z M23.5653105,28.8588235 L28.6616702,28.8588235 L28.6616702,26.8673797 L23.5653105,26.8673797 L23.5653105,28.8588235 Z" id="信" fill="#FFFFFF"></path>
                    </g>
                </g>
            </g>
        </g>
    </g>
</svg>