<?xml version="1.0" encoding="UTF-8"?>
<svg width="48px" height="48px" viewBox="0 0 48 48" version="1.1" xmlns="http://www.w3.org/2000/svg" xmlns:xlink="http://www.w3.org/1999/xlink">
    <title>ico-11</title>
    <g id="页面-1" stroke="none" stroke-width="1" fill="none" fill-rule="evenodd">
        <g id="首页01" transform="translate(-476.000000, -895.000000)">
            <g id="政务信息资源分类" transform="translate(0.000000, 360.000000)">
                <g id="card" transform="translate(385.000000, 503.000000)">
                    <g id="ico-11" transform="translate(91.053231, 32.001058)">
                        <path d="M23.8636724,47.9132453 C16.449965,47.9237903 10.6166909,45.8158518 6.36384997,41.5904486 C2.11100906,37.3655746 -0.0100846925,31.5694052 0,24.2034924 C7.42759286,24.2072329 13.260867,26.3146421 17.4998585,30.5262853 C21.7308599,34.7294607 23.8519537,40.5108115 23.8636724,47.8703377 C23.8615417,40.5245716 25.9826355,34.7432208 30.2274863,30.5262853 C34.4803272,26.3008821 40.3136014,24.1934728 47.7273088,24.2034924 C47.7241128,31.5831653 45.603019,37.3788054 41.3634949,41.5904486 C37.1245034,45.8020917 31.2912292,47.909501 23.8636724,47.9132453 Z" id="路径" fill="#3D3E49"></path>
                        <path d="M23.8636724,47.9132056 C30.4261724,41.3872228 33.7068897,34.4018649 33.7068897,26.9566028 C33.7068897,19.5113407 30.4256397,6.52598286 23.8636724,0 C17.3017051,6.5016381 14.0204551,19.486996 14.0204551,26.9566028 C14.0204551,34.4262097 17.3017051,41.4115675 23.8636724,47.9132056 Z" id="路径" fill="#0080FF"></path>
                        <path d="M33.6938483,27.7678267 C33.4636963,34.9098087 30.1872888,41.6247771 23.8636724,47.9132056 C17.540991,41.6486535 14.2641229,34.9350166 14.0335447,27.7718216 C15.2890232,28.5585797 16.443906,29.4771454 17.4998585,30.5262853 C21.6301218,34.6293851 23.7497531,40.2364037 23.859248,47.3473412 L23.8634696,47.8216461 L23.8671312,47.3483007 C23.9637501,40.250156 26.0837034,34.6428175 30.2274863,30.5262853 C31.2400675,29.5202369 32.3422424,28.6342562 33.534011,27.8683355 Z" id="合并形状" fill="#FFFFFF"></path>
                    </g>
                </g>
            </g>
        </g>
    </g>
</svg>