<?xml version="1.0" encoding="UTF-8"?>
<svg width="48px" height="48px" viewBox="0 0 48 48" version="1.1" xmlns="http://www.w3.org/2000/svg" xmlns:xlink="http://www.w3.org/1999/xlink">
    <title>ico-03</title>
    <g id="页面-1" stroke="none" stroke-width="1" fill="none" fill-rule="evenodd">
        <g id="首页01" transform="translate(-936.000000, -595.000000)" fill-rule="nonzero">
            <g id="政务信息资源分类" transform="translate(0.000000, 360.000000)">
                <g id="card" transform="translate(845.000000, 203.000000)">
                    <g id="ico-03" transform="translate(91.000000, 32.000000)">
                        <path d="M28.1279481,25.7653512 L36.0100451,22.1729622 C36.6837736,21.9423459 37.3445457,21.9423459 38.0182742,22.1729622 L45.8993085,25.7653512 C47.6778161,26.6567204 48.0500065,27.7910877 47.9946385,29.7419686 C48.0052161,30.2225368 47.9993453,30.6644335 47.9840103,30.9332124 C47.4987557,38.8865603 43.0676952,45.5168756 37.0383009,48 L37.013603,47.9897102 L36.990069,48 C30.9618388,45.5168756 26.5307783,38.8865604 26.0455237,30.9332124 C25.9088244,28.6179477 25.9465294,26.8608771 28.1279481,25.7653512 Z M36.9711406,25.3492921 L36.9711406,44.5608275 L36.9923971,44.5712304 L37.0111737,44.5633717 L37.0276727,44.5712304 C41.3974943,42.5918546 44.6342456,35.6229931 44.9569388,32.0055581 C45.1171214,29.0081691 45.3032672,28.9254548 43.5530004,28.2020017 L37.4988575,25.4565437 C37.2573437,25.3880769 37.094833,25.3564158 36.9711406,25.3492921 L36.9711406,25.3492921 Z" id="形状" fill="#3D3E49"></path>
                        <path d="M8.4903525,24.624056 L12.0851541,24.624056 C13.0139531,25.8239241 14.7612533,26.6285184 16.762454,26.6285184 C18.7647552,26.6285184 20.5109548,25.8239241 21.4408545,24.624056 L23.4398061,24.624056 C23.4275561,25.2856059 23.3886532,32.8797837 24.8149831,37.4474113 C26.078645,41.4941164 28.9167896,45.6995522 29.8654589,46.9039188 C30.2073584,47.4534622 29.8120087,48 29.6238085,48 L3.40995096,48 C1.53459995,48 -3.55271368e-14,46.0685319 -3.55271368e-14,43.7079918 L-3.55271368e-14,35.3134388 C-3.55271368e-14,29.4346923 3.81975184,24.624056 8.4903525,24.624056 Z M16.5063045,21.73722 C21.7002579,21.73722 25.9354092,16.8550114 25.9354092,10.868919 C25.9354092,4.88215249 21.7002579,1.95399252e-14 16.5063045,1.95399252e-14 C11.3123033,1.95399252e-14 7.07605138,4.88220864 7.07605138,10.868919 C7.07605138,16.8550114 11.3123033,21.73722 16.5063045,21.73722 Z" id="合并形状" fill="#0080FF"></path>
                    </g>
                </g>
            </g>
        </g>
    </g>
</svg>