<?xml version="1.0" encoding="UTF-8"?>
<svg width="48px" height="48px" viewBox="0 0 48 48" version="1.1" xmlns="http://www.w3.org/2000/svg" xmlns:xlink="http://www.w3.org/1999/xlink">
    <title>ico-05</title>
    <g id="页面-1" stroke="none" stroke-width="1" fill="none" fill-rule="evenodd">
        <g id="首页修改01" transform="translate(-1396.000000, -770.000000)">
            <g id="政务信息资源分类" transform="translate(0.000000, 534.000000)">
                <g id="card" transform="translate(1305.000000, 203.000000)">
                    <g id="ico-05" transform="translate(91.000000, 33.000000)">
                        <rect id="矩形" fill="#D8D8D8" opacity="0" x="0" y="0" width="48" height="48"></rect>
                        <polygon id="路径" fill="#3D3E49" fill-rule="nonzero" points="5.4939759 3 42.5060241 3 42.5060241 29.1676265 5.4939759 29.1676265"></polygon>
                        <path d="M48,10.500227 L48,44 L0,44 L0,10.500227 L48,10.500227 Z M27.4027952,27.1460083 L33.7139277,17.4810911 L28.107759,17.4810911 L24,25.993872 L20.0003855,17.4810911 L14.2860723,17.4810911 L20.6371084,27.2501135 L16.3535422,27.2501135 L16.3535422,29.3915399 L21.6069398,29.3915399 L21.6069398,30.960097 L16.3535422,30.960097 L16.3535422,33.2050471 L21.6069398,33.2050471 L21.6069398,37.0191358 L26.4474217,37.0191358 L26.4474217,33.2050471 L31.6464578,33.2050471 L31.6464578,30.960097 L26.4474217,30.960097 L26.4474217,29.3915399 L31.6464578,29.3915399 L31.6464578,27.1460083 L27.4027952,27.1460083 Z" id="形状" fill="#0080FF" fill-rule="nonzero"></path>
                        <polygon id="路径" fill="#FFFFFF" fill-rule="nonzero" points="33.7139277 17.4810911 27.4027952 27.1460083 31.6464578 27.1460083 31.6464578 29.3915399 26.4474217 29.3915399 26.4474217 30.960097 31.6464578 30.960097 31.6464578 33.2050471 26.4474217 33.2050471 26.4474217 37.0191358 21.6069398 37.0191358 21.6069398 33.2050471 16.3535422 33.2050471 16.3535422 30.960097 21.6069398 30.960097 21.6069398 29.3915399 16.3535422 29.3915399 16.3535422 27.2501135 20.6371084 27.2501135 14.2860723 17.4810911 20.0003855 17.4810911 24 25.993872 28.107759 17.4810911"></polygon>
                    </g>
                </g>
            </g>
        </g>
    </g>
</svg>