<?xml version="1.0" encoding="UTF-8"?>
<svg width="48px" height="48px" viewBox="0 0 48 48" version="1.1" xmlns="http://www.w3.org/2000/svg" xmlns:xlink="http://www.w3.org/1999/xlink">
    <title>ico-16</title>
    <g id="页面-1" stroke="none" stroke-width="1" fill="none" fill-rule="evenodd">
        <g id="首页01" transform="translate(-476.000000, -1045.000000)">
            <g id="政务信息资源分类" transform="translate(0.000000, 360.000000)">
                <g id="card" transform="translate(385.000000, 653.000000)">
                    <g id="ico-16" transform="translate(91.000000, 32.000000)">
                        <path d="M38.9879518,10 L41.5421687,12.1301059 L38.263,16.507 L41.663,19.205 L45.060241,14.7927383 L47.6144578,16.9228442 L44.323,21.315 L48,24.2329803 L42.6506024,31.01059 C41.9277108,31.7367625 40.9156626,32.172466 39.5180723,32.2208774 C38.1686747,32.2692889 37.1566265,31.8819969 36.4819277,31.01059 L33.9759036,34.4478063 L31.086,32.181 L31.373494,32.4145235 L24,42 L24,35.6580938 L28.3,29.994 L25.8313253,28.0574887 L28.4819277,24.6686838 C27.0843373,23.8940999 26.3614457,22.7322239 26.3614457,21.1346445 C26.3614457,20.698941 26.3614457,19.4402421 27.2771084,18.1331316 C28.7710843,15.9062027 30.3614457,13.7276854 32.0963855,11.6459909 L35.603,14.396 L38.9879518,10 Z" id="合并形状" fill="#3D3E49"></path>
                        <path d="M6.36246334,0 L18.1571847,0 C19.3395895,0 20.3530792,0.968534759 20.3530792,2.22193269 L20.3530792,5.29845491 C20.3530792,6.49488023 19.3958944,7.52038761 18.1571847,7.52038761 L6.36246334,7.52038761 C5.18005863,7.52038761 4.16656892,6.55185285 4.16656892,5.29845491 L4.16656892,2.22193269 C4.16656892,0.968534759 5.18005863,0 6.36246334,0 Z" id="路径" fill="#0080FF"></path>
                        <path d="M3.82873902,5.9821265 L20.5782991,5.9821265 C22.7178886,5.9821265 24.4070381,7.6913055 24.4070381,9.85626558 L24.4070381,44.1178492 C24.4070381,46.2828092 22.7178886,47.9919882 20.5782991,47.9919882 L3.82873902,47.9919882 C1.68914956,48.0489609 0,46.3397819 0,44.1748218 L0,9.9132382 C0,7.74827812 1.68914956,5.9821265 3.82873902,5.9821265 Z" id="路径" fill="#0080FF"></path>
                        <path d="M4.61700881,29.0770739 L19.7337243,33.9197478 L19.7337243,39.4460932 C19.7337243,41.1552722 18.3260997,42.579588 16.6369501,42.579588 L7.77008797,42.579588 C6.0809384,42.579588 4.67331377,41.1552722 4.67331377,39.4460932 L4.67331377,29.0770739 L4.61700881,29.0770739 Z M4.84222873,16.315204 L19.7337243,20.8730148 L19.7337243,30.9571708 L4.84222873,26.4563328 L4.84222873,16.315204 Z" id="形状" fill="#FFFFFF" fill-rule="nonzero"></path>
                    </g>
                </g>
            </g>
        </g>
    </g>
</svg>