<?xml version="1.0" encoding="UTF-8"?>
<svg width="48px" height="48px" viewBox="0 0 48 48" version="1.1" xmlns="http://www.w3.org/2000/svg" xmlns:xlink="http://www.w3.org/1999/xlink">
    <title>ico-10</title>
    <g id="页面-1" stroke="none" stroke-width="1" fill="none" fill-rule="evenodd">
        <g id="首页01" transform="translate(-1396.000000, -745.000000)" fill-rule="nonzero">
            <g id="政务信息资源分类" transform="translate(0.000000, 360.000000)">
                <g id="card" transform="translate(1305.000000, 353.000000)">
                    <g id="ico-10" transform="translate(91.000000, 32.000000)">
                        <path d="M0.0324649934,44.6573883 L5.64890885,44.6573883 L5.64890885,42.2739783 L7.17476354,40.0838178 L9.38238309,40.0838178 L9.38238309,8.4707679 L0,8.4707679 L0,4.5735705 L1.88296962,4.5735705 L10.2589379,1.51378742 L10.9731678,0 L12.9210674,0 L13.6352972,1.3527462 L25.5174848,4.54136226 L31.4910436,4.54136226 L33.6012682,5.99073319 L33.6012682,8.4707679 L29.8677939,8.4707679 L29.8677939,12.5612148 L30.2573738,12.5612148 L30.2573738,14.3970846 L32.9844333,16.0074967 L33.3740132,16.0074967 L33.3740132,20.8065249 L25.4525548,20.8065249 L25.4525548,16.0074967 L25.8421347,16.0074967 L28.5691942,14.3970846 L28.5691942,12.5612148 L28.9587741,12.5612148 L28.9587741,8.4707679 L14.544317,8.4707679 L14.544317,9.147141 L17.0441215,9.147141 L18.7972312,11.2084685 L18.7972312,16.039705 L14.544317,16.039705 L14.544317,40.0516095 L16.7844016,40.0516095 L18.3102563,42.2417701 L18.3102563,44.62518 L21.3619657,44.62518 L21.3619657,31.8462299 L24.9655799,31.8462299 L24.9655799,34.0655098 L32.0754135,34.0655098 L32.0754135,30.7542386 L28.2120793,30.7542386 L28.2120793,28.4996616 L32.1403435,28.4996616 L32.1403435,26.696 L36.4257226,26.696 L36.4257226,28.4996616 L43.5355561,28.4996616 L43.5355561,24.186846 L38.6658071,24.186846 L38.6658071,21.9000607 L47.9183303,21.9000607 C47.9183303,32.1744902 47.9507952,47.9426291 47.9507952,47.9426291 L0.0973949802,47.9426291 L0.0973949802,44.6573883 L0.0324649934,44.6573883 Z M29.7379339,14.9446247 L29.1535641,14.9446247 L27.3355244,16.0074967 L31.5235086,16.0074967 L29.7379339,14.9446247 Z M14.1547371,2.25457701 L15.3559419,4.54136226 L22.6930304,4.54136226 L14.1547371,2.25457701 Z M4.09058917,4.5735705 L8.79801321,4.5735705 L9.77196301,2.51224295 L4.09058917,4.5735705 Z M0.0324649934,9.17934924 L0.0324649934,12.2713406 L5.81123382,12.2713406 L5.81123382,9.17934924 L0.0324649934,9.17934924 Z M36.4257226,39.7295271 L43.5355561,39.7295271 L43.5355561,36.4167115 L36.4257226,36.4167115 L36.4257226,39.7295271 Z M36.4257226,34.097718 L43.5355561,34.097718 L43.5355561,30.7864469 L36.4257226,30.7864469 L36.4257226,34.097718 Z M24.9655799,36.4167115 L24.9655799,39.7295271 L32.0754135,39.7295271 L32.0754135,36.4167115 L24.9655799,36.4167115 Z" id="形状" fill="#0080FF"></path>
                        <path d="M21.3619657,44.62518 L21.3619657,31.8462299 L24.9655799,31.8462299 L24.9655799,34.0655098 L32.0754135,34.0655098 L32.0754135,30.7542386 L28.2120793,30.7542386 L28.2120793,28.4996616 L32.1403435,28.4996616 L32.1403435,26.696 L36.4257226,26.696 L36.4257226,28.4996616 L43.5355561,28.4996616 L43.5355561,24.186846 L38.6658071,24.186846 L38.6658071,21.9000607 L47.9183303,21.9000607 C47.9183303,32.1744902 47.9507952,47.9426291 47.9507952,47.9426291 L21.3619657,47.9426291 L21.3619657,44.62518 Z M36.4257226,39.7295271 L43.5355561,39.7295271 L43.5355561,36.4167115 L36.4257226,36.4167115 L36.4257226,39.7295271 Z M36.4257226,34.097718 L43.5355561,34.097718 L43.5355561,30.7864469 L36.4257226,30.7864469 L36.4257226,34.097718 Z M24.9655799,36.4167115 L24.9655799,39.7295271 L32.0754135,39.7295271 L32.0754135,36.4167115 L24.9655799,36.4167115 Z" id="形状" fill="#3D3E49"></path>
                    </g>
                </g>
            </g>
        </g>
    </g>
</svg>