<?xml version="1.0" encoding="UTF-8"?>
<svg width="48px" height="48px" viewBox="0 0 48 48" version="1.1" xmlns="http://www.w3.org/2000/svg" xmlns:xlink="http://www.w3.org/1999/xlink">
    <title>ico-06</title>
    <g id="页面-1" stroke="none" stroke-width="1" fill="none" fill-rule="evenodd">
        <g id="首页01" transform="translate(-476.000000, -745.000000)">
            <g id="政务信息资源分类" transform="translate(0.000000, 360.000000)">
                <g id="card" transform="translate(385.000000, 353.000000)">
                    <g id="ico-06" transform="translate(91.029809, 32.041672)">
                        <path d="M28.501196,45.0353466 L28.501196,8.71536649 L29.9442781,8.71536649 C30.7427047,8.71536649 31.3873603,8.0664765 31.3873603,7.26280541 L31.3873603,1.45256108 C31.3873603,0.648889991 30.7427047,0 29.9442781,0 L1.44308215,0 C0.644655552,0 0,0.648889991 0,1.45256108 L0,7.26280541 C0,8.0664765 0.644655552,8.71536649 1.44308215,8.71536649 L2.88616431,8.71536649 L2.96304983,45.0353466 L1.44308215,45.0353466 C0.644655552,45.0353466 0,45.6842366 0,46.4879077 C0,47.2915788 0.644655552,47.9404688 1.44308215,47.9404688 L44.3750997,47.9404688 C45.1735263,47.9404688 45.8181818,47.2915788 45.8181818,46.4879077 C45.8181818,45.6901898 45.1735263,45.0353466 44.3750997,45.0353466 L28.501196,45.0353466 Z" id="路径" fill="#0080FF"></path>
                        <path d="M41.6900377,37.6296664 C45.532443,36.8855265 48.1545405,33.4922485 47.7602872,29.7834553 C47.3660339,26.074662 44.0805896,23.2528835 40.1630883,23.2528835 C36.2455871,23.2528835 32.9601428,26.074662 32.5658895,29.7834553 C32.1716362,33.4922485 34.7937337,36.8855265 38.636139,37.6296664 L38.636139,45.0353466 L41.6900377,45.0353466 L41.6900377,37.6296664 Z" id="路径" fill="#3D3E49"></path>
                        <polygon id="路径" fill="#FFFFFF" points="4.36407108 5.81024433 2.90938072 5.81024433 2.90938072 2.90512216 28.7304607 2.90512216 28.7304607 5.81024433"></polygon>
                        <polygon id="路径" fill="#3D3E49" points="12.2695872 33.0219521 19.5908425 33.0219521 19.5908425 44.8805655 12.2695872 44.8805655"></polygon>
                        <path d="M18.911192,24.6935384 L21.8205728,24.6935384 C22.6254219,24.6935384 23.2752631,24.0446484 23.2752631,23.2409773 C23.2752631,22.4373062 22.6254219,21.7884162 21.8205728,21.7884162 L18.911192,21.7884162 C18.1063429,21.7884162 17.4565017,22.4373062 17.4565017,23.2409773 C17.4565017,24.0446484 18.1063429,24.6935384 18.911192,24.6935384 Z M9.81926861,24.6935384 L12.7286493,24.6935384 C13.5334985,24.6935384 14.1833397,24.0446484 14.1833397,23.2409773 C14.1833397,22.4373062 13.5334985,21.7884162 12.7286493,21.7884162 L9.81926861,21.7884162 C9.01441944,21.7884162 8.36457825,22.4373062 8.36457825,23.2409773 C8.36457825,24.0446484 9.01441944,24.6935384 9.81926861,24.6935384 Z M18.911192,15.9781719 L21.8205728,15.9781719 C22.6254219,15.9781719 23.2752631,15.3292819 23.2752631,14.5256108 C23.2752631,13.7219397 22.6254219,13.0730497 21.8205728,13.0730497 L18.911192,13.0730497 C18.1063429,13.0730497 17.4565017,13.7219397 17.4565017,14.5256108 C17.4565017,15.3292819 18.1063429,15.9781719 18.911192,15.9781719 Z M9.81926861,15.9781719 L12.7286493,15.9781719 C13.5334985,15.9781719 14.1833397,15.3292819 14.1833397,14.5256108 C14.1833397,13.7219397 13.5334985,13.0730497 12.7286493,13.0730497 L9.81926861,13.0730497 C9.01441944,13.0730497 8.36457825,13.7219397 8.36457825,14.5256108 C8.36457825,15.3292819 9.01441944,15.9781719 9.81926861,15.9781719 Z" id="形状" fill="#FFFFFF" fill-rule="nonzero"></path>
                    </g>
                </g>
            </g>
        </g>
    </g>
</svg>