<?xml version="1.0" encoding="UTF-8"?>
<svg width="48px" height="48px" viewBox="0 0 48 48" version="1.1" xmlns="http://www.w3.org/2000/svg" xmlns:xlink="http://www.w3.org/1999/xlink">
    <title>ico-07</title>
    <g id="页面-1" stroke="none" stroke-width="1" fill="none" fill-rule="evenodd">
        <g id="首页01" transform="translate(-706.000000, -745.000000)" fill-rule="nonzero">
            <g id="card" transform="translate(615.000000, 713.000000)">
                <g id="ico-07" transform="translate(91.019680, 32.017173)">
                    <path d="M7.10268536,16.0579764 C7.60257762,16.5461369 7.94189107,16.5461369 8.44178333,16.0579764 L8.53982516,15.9707979 C8.47728819,16.3238025 8.46256177,16.7222492 8.46256172,17.0928065 C8.46256172,17.0928065 8.48475227,30.2775579 8.47285008,30.2384441 L12.5314991,30.2384441 L12.5314991,17.1577516 C12.5314991,14.6576597 13.107646,14.1460955 14.5748439,12.3804872 L20.8688868,6.84377542 C22.8849979,5.070366 24.5490864,4.98435769 26.4806716,6.9939487 L32.8184904,12.6172539 C34.5953471,14.2229374 34.576586,16.8455082 34.576586,17.1577516 L34.576586,27.9949247 L38.4690077,27.9949247 C38.4784891,27.8541128 38.5053195,27.7179818 38.5053195,27.5746346 L38.5053195,17.0551657 C38.5053195,16.8018215 38.4857515,16.553353 38.4560969,16.3078101 C38.9483233,16.5872883 39.5791397,16.5416512 40.0005581,16.1285773 L40.4554641,15.6823482 C40.9579789,15.189507 40.9579789,14.3906634 40.4554641,13.8978221 L35.494669,9.46498106 L35.5539782,3.80540026 C35.5539782,3.03105728 34.9046781,2.40332827 34.1037258,2.40332827 L33.1281492,2.40332827 C32.3271969,2.40332827 31.6778968,3.03105728 31.6778968,3.80540026 L31.6778968,6.05429326 L25.9620183,0.946647828 C25.2031019,0.396272661 24.8708491,0.00289678478 23.7074598,0.0198644158 C22.4423976,-0.122312596 21.5693008,0.528698156 21.0694086,1.01705371 L6.6499984,13.8480894 C6.15010615,14.3362499 6.15010615,15.1278774 6.6499984,15.616233 L7.10268536,16.0579764 Z M21.7080926,29.67745 L27.5095055,27.9949247 L27.5095055,16.1428145 L21.7080926,16.1428145 L21.7080926,29.67745 Z" id="形状" fill="#3D3E49"></path>
                    <path d="M33.8684885,31.0883786 C28.3166417,29.5386688 24.4414561,32.3824039 22.9914448,32.3824039 L11.5917546,32.3824039 C9.77914256,32.3824039 7.72381721,36.1671596 11.5917546,37.3669853 L21.0571823,37.3669853 C21.0571823,37.3669853 20.9167259,39.5671207 19.0439743,39.5671207 L9.68354603,39.5671207 C9.68354603,39.5671207 5.87378928,35.4917701 5.25358723,34.8471953 C3.89545047,33.1555035 2.51282688,34.6878557 2.51282688,34.6878557 C2.51282688,34.6878557 -1.82310257,34.4274904 0.896305276,38.6859744 C0.29197066,38.0864516 8.0866139,46.825559 8.08661385,46.825559 L22.7502987,46.825559 C26.25446,46.825559 32.8208445,42.4853573 40.0722722,47.9436671 C40.6156836,47.3433641 47.9679971,39.646303 47.9679971,39.646303 C47.9679971,39.6463029 34.6565722,31.3727326 33.8684885,31.0883786 Z" id="路径" fill="#0080FF"></path>
                </g>
            </g>
        </g>
    </g>
</svg>