<?xml version="1.0" encoding="UTF-8"?>
<svg width="48px" height="48px" viewBox="0 0 48 48" version="1.1" xmlns="http://www.w3.org/2000/svg" xmlns:xlink="http://www.w3.org/1999/xlink">
    <title>ico-17</title>
    <g id="页面-1" stroke="none" stroke-width="1" fill="none" fill-rule="evenodd">
        <g id="首页修改01" transform="translate(-706.000000, -1219.000000)" fill-rule="nonzero">
            <g id="政务信息资源分类" transform="translate(0.000000, 534.000000)">
                <g id="card" transform="translate(615.000000, 653.000000)">
                    <g id="ico-17" transform="translate(91.000000, 32.000000)">
                        <path d="M0,24 C0,37.254834 10.745166,48 24,48 C37.254834,48 48,37.254834 48,24 C48,10.745166 37.254834,0 24,0 C10.745166,0 0,10.745166 0,24 Z" id="路径" fill="#3D3E49"></path>
                        <path d="M8.4,24 C8.4,32.6156421 15.3843579,39.6 24,39.6 C32.6156421,39.6 39.6,32.6156421 39.6,24 C39.6,15.3843579 32.6156421,8.4 24,8.4 C15.3843579,8.4 8.4,15.3843579 8.4,24 Z" id="路径" fill="#0080FF"></path>
                        <path d="M47.1007229,17.4760482 L24,24 L30.5239518,0.899277108 C34.349494,1.97609639 37.9604819,4.01927711 40.9706024,7.02939759 C43.9807229,10.0395181 46.0239036,13.650506 47.1007229,17.4760482 L47.1007229,17.4760482 Z" id="路径" fill="#FFFFFF"></path>
                        <path d="M47.0301687,17.2296867 C47.0070361,17.1516145 46.9839036,17.0741205 46.9601928,16.9960482 C46.9573012,16.9873735 46.954988,16.9781205 46.9520964,16.9688675 C46.9283855,16.8925301 46.9046747,16.8156145 46.8803855,16.7392771 C46.8688193,16.7022651 46.857253,16.665253 46.8451084,16.628241 L46.829494,16.5796627 C46.8225542,16.5582651 46.8156145,16.5368675 46.8086747,16.5160482 C46.8040482,16.5015904 46.7994217,16.4877108 46.7947952,16.473253 C46.770506,16.3992289 46.7456386,16.3252048 46.7201928,16.2511807 C46.6374065,16.0076594 46.5506479,15.7655066 46.4599518,15.5248193 C46.4379759,15.4664096 46.4154217,15.408 46.3928675,15.3495904 C46.3483373,15.2327711 46.3020723,15.1165301 46.2552289,15.0002892 C46.2320964,14.9424578 46.2083855,14.8846265 46.1840964,14.8267952 C46.1123855,14.6527229 46.0389398,14.4798072 45.9626024,14.3080482 C45.8960964,14.1571084 45.8278554,14.0073253 45.7584578,13.8581205 C45.7185542,13.7725301 45.6780723,13.6875181 45.637012,13.602506 C45.6150361,13.556241 45.5924819,13.5099759 45.5699277,13.4637108 C45.5138313,13.3497831 45.4571566,13.2358554 45.3999036,13.1230843 C44.6061475,11.5657893 43.645105,10.0995984 42.5337831,8.75045783 C42.5146988,8.72674699 42.4956145,8.70361446 42.4759518,8.68048193 C42.441253,8.63884337 42.4059759,8.59720482 42.3712771,8.55556627 C42.2359518,8.39479518 42.0983133,8.23518072 41.9577831,8.0773012 C41.8941687,8.00559036 41.8299759,7.93387952 41.7652048,7.86274699 C41.7062169,7.7979759 41.6472289,7.73378313 41.5870843,7.66959036 C41.386988,7.4533012 41.1811084,7.23990361 40.9706024,7.02939759 C40.7600964,6.81889157 40.5466988,6.61301205 40.3304096,6.41291566 C40.2662169,6.35277108 40.2020241,6.29378313 40.137253,6.23479518 C40.0661205,6.1700241 39.9944096,6.10583133 39.9226988,6.04221687 C39.7648193,5.90168675 39.6052048,5.76404819 39.4444337,5.62872289 C39.4027952,5.5940241 39.3611566,5.55874699 39.3195181,5.52404819 C39.2963855,5.50438554 39.273253,5.4853012 39.2495422,5.46621687 C37.9004016,4.35489502 36.4342107,3.3938525 34.8769157,2.60009639 C34.7641446,2.54284337 34.6502169,2.48616867 34.5362892,2.43007229 C34.4900241,2.40751807 34.443759,2.38496386 34.397494,2.36298795 C34.3124819,2.32192771 34.2274699,2.28144578 34.1418795,2.24154217 C33.9926747,2.17214458 33.8428916,2.10390361 33.6919518,2.03739759 C33.5201928,1.96106024 33.3472771,1.88761446 33.1732048,1.81590361 C33.1153735,1.79161446 33.0575422,1.76790361 32.9997108,1.74477108 C32.8834699,1.69792771 32.7672289,1.65166265 32.6504096,1.60713253 C32.592,1.58457831 32.5335904,1.5620241 32.4751807,1.54004819 C32.12656,1.40866281 31.7748449,1.28563963 31.4203373,1.17108434 C31.4162799,1.16921453 31.4120064,1.16785477 31.4076145,1.16703614 C31.3954699,1.16298795 31.3839036,1.15893976 31.371759,1.15489157 C31.334747,1.14274699 31.2977349,1.13118072 31.2607229,1.11961446 C31.1843855,1.0953253 31.1074699,1.07161446 31.0311325,1.04790361 C31.0218795,1.04501205 31.0126265,1.0426988 31.0039518,1.03980723 C30.9258795,1.01609639 30.8483855,0.992963855 30.7703133,0.969831325 C30.6881928,0.946120482 30.6060723,0.922409639 30.5239518,0.899277108 L28.2407711,8.98351807 C33.4473253,10.4506988 37.5493012,14.5526747 39.0164819,19.7592289 L47.1007229,17.4760482 C47.0775904,17.3939277 47.0538795,17.3118072 47.0301687,17.2296867 L47.0301687,17.2296867 Z" id="路径" fill="#0080FF"></path>
                    </g>
                </g>
            </g>
        </g>
    </g>
</svg>