<?xml version="1.0" encoding="UTF-8"?>
<svg width="48px" height="48px" viewBox="0 0 48 48" version="1.1" xmlns="http://www.w3.org/2000/svg" xmlns:xlink="http://www.w3.org/1999/xlink">
    <title>ico-004</title>
    <g id="页面-1" stroke="none" stroke-width="1" fill="none" fill-rule="evenodd">
        <g id="首页02" transform="translate(-1166.000000, -595.000000)">
            <g id="政务信息资源分类" transform="translate(0.000000, 360.000000)">
                <g id="03" transform="translate(1075.000000, 203.000000)">
                    <g id="ico-004" transform="translate(91.000000, 32.000000)">
                        <path d="M33.117661,26.2330876 C33.1990742,25.6037728 33.2967701,24.9795883 33.3846964,24.3519836 C33.4270313,24.0373262 33.4547118,23.7209587 33.4905336,23.4063013 L33.6745275,21.952721 C33.7103493,21.6722655 33.7461712,21.3883898 33.7754799,21.1062242 C33.8161865,20.6838309 33.8454953,20.2597274 33.8894585,19.8373341 C33.9122542,19.6116016 33.9578456,19.3875792 33.979013,19.1618467 C34.0246044,18.696701 33.8422388,18.2777279 33.7233755,17.845074 C33.6842971,17.6911655 33.6273078,17.537257 33.6077687,17.3816384 C33.6028839,17.3320456 33.6956949,17.2208895 33.7429146,17.2208895 C34.6058949,17.2106289 35.4672469,17.2140491 36.3285989,17.2140491 C36.4523471,17.2140491 36.4979385,17.2448308 36.4523471,17.3901888 C36.3546512,17.6962957 36.279751,18.0058228 36.1983378,18.3136399 C36.1657725,18.4367667 36.1250658,18.5598935 36.1055267,18.6864405 C36.0371396,19.1173843 36.0957571,19.5414877 36.1804269,19.9690114 C36.2423009,20.2716981 36.2618401,20.5812252 36.2895206,20.8890422 C36.3285989,21.337087 36.3513946,21.7868418 36.4034991,22.2331765 C36.4832841,22.8864326 36.5826082,23.5362685 36.6689062,24.1878146 C36.7096129,24.4785306 36.7438064,24.7692467 36.7698587,25.0599627 C36.8121935,25.499457 36.8431306,25.9406614 36.8838372,26.3784456 C36.9082612,26.6469305 36.9424547,26.9137052 36.9831613,27.1787699 C36.9896744,27.2300727 37.054805,27.271115 37.1345899,27.3651702 C37.2550815,26.8812134 37.3511492,26.4639503 37.4618712,26.0501075 C37.5725932,25.626004 37.6995978,25.2070309 37.8152046,24.7846375 C37.8949896,24.4905013 37.9617484,24.1912347 38.0366486,23.8953884 C38.1229466,23.5738906 38.2141294,23.254103 38.2971709,22.9308951 C38.3753277,22.6367588 38.4404582,22.3392024 38.5202432,22.0450661 C38.6016564,21.7286986 38.691211,21.4140412 38.7758808,21.0976737 C38.8507809,20.8069577 38.9240529,20.5094012 39.0022095,20.2169751 C39.0885076,19.8852167 39.1813187,19.5568786 39.2676167,19.2234102 C39.3441451,18.9207234 39.4092757,18.6146165 39.4874324,18.3136399 C39.5688456,17.9972724 39.663285,17.6843251 39.7479548,17.3713778 C39.8244832,17.0840819 39.8912421,16.7950759 39.9661422,16.50778 C39.9987075,16.3761028 40.0019641,16.199963 40.0833773,16.1281391 C40.1810732,16.0426344 40.3748367,15.9879113 40.4871869,16.0289536 C41.0082316,16.2239044 41.5129937,16.4616075 42.0275253,16.6719491 C42.5583396,16.8891311 43.0956669,17.0909223 43.6281095,17.302974 C44.0514583,17.4722734 44.4748071,17.6432828 44.8948994,17.8194226 C45.4371115,18.0468651 45.9548997,18.31535 46.4287247,18.6761799 C46.8553301,19.0028079 47.1907526,19.4046802 47.3812596,19.907448 C47.4675576,20.1297602 48.0000003,22.2622481 48.0000003,26.3151721 C48.0000003,29.0072639 48.0000003,31.6993556 48.0000003,34.3914474 C48.0000003,35.4960169 47.1045698,36.3914474 46.0000003,36.3914474 L24.0004736,36.3914474 C22.8959041,36.3914474 22.0004736,35.4960169 22.0004736,34.3914474 C22.0004736,34.3878719 22.0004832,34.3842964 22.0005023,34.380721 L22.0470894,25.6944078 L22.0470894,25.6944078 C22.0584873,25.6465252 22.0829112,25.6003526 22.0829112,25.5541801 C22.1236179,25.0308912 22.1512984,24.5076022 22.2001463,23.9860234 C22.2441094,23.5413988 22.3141248,23.0984843 22.3694858,22.6555698 L22.3776271,22.5820358 C22.4150772,22.060457 22.4085642,21.5286176 22.5013753,21.0172993 C22.5909298,20.5196618 22.5144014,19.9912426 22.8384261,19.527807 C23.164079,19.0712117 23.5483495,18.696701 23.9993788,18.3974345 C24.6865065,17.9391292 25.4680735,17.6894554 26.2268448,17.3867686 C26.824418,17.1473554 27.4122215,16.8840009 28.0081664,16.634327 C28.5080437,16.4256955 29.0128057,16.2187741 29.519196,16.0255334 C29.7536662,15.9331883 29.9669688,16.1024876 30.0207016,16.3538716 C30.0923452,16.6787895 30.1981824,16.9985772 30.2812239,17.3234951 C30.3577524,17.6176314 30.4228829,17.9151878 30.4994114,18.2110342 C30.5824529,18.5342421 30.6785205,18.8540297 30.7631903,19.1789477 C30.8364622,19.4645335 30.9048493,19.7535394 30.9813777,20.0408353 C31.100241,20.4957205 31.2256174,20.9471854 31.3444807,21.4037807 C31.4210092,21.6893664 31.487768,21.9766623 31.5594117,22.2622481 C31.647338,22.5957165 31.7417773,22.9240547 31.8280753,23.255813 C31.9046038,23.5516594 31.9681061,23.8492158 32.0462628,24.1450622 C32.1309326,24.46827 32.2237437,24.7880577 32.3067852,25.1112656 C32.3849419,25.4071119 32.4549573,25.7029583 32.5282292,26.0005147 C32.6291816,26.4109374 32.7268775,26.8230702 32.8359712,27.2317828 C32.847369,27.2830856 32.9222692,27.3121572 33.0004259,27.380561 C33.0427608,26.9615878 33.0704413,26.5939175 33.117661,26.2330876 Z M28.5687293,4.81748258 C28.7155714,4.08479775 29.0526407,3.424234 29.4647997,2.7980917 C30.0584602,1.88463688 30.8874274,1.14159715 31.8676701,0.644293306 C32.3182083,0.414817071 32.7921078,0.227957849 33.3027177,0.152558507 C33.6815035,0.0984676714 34.0586207,0.00339894215 34.4374065,0 C34.8312102,-0.00315750338 35.23002,0.0607680135 35.6188177,0.137806473 C35.9825856,0.209927578 36.3480222,0.309913661 36.6900975,0.447599402 C37.633091,0.824342492 38.4628975,1.43074257 39.1013111,2.20964905 C39.5802165,2.78661787 39.9573337,3.41112106 40.2309939,4.08807596 C40.3895166,4.47654644 40.4679436,4.89779925 40.5563826,5.30921736 C40.633141,5.68129668 40.7232486,6.06321069 40.7200013,6.44020737 C40.703135,6.96252305 40.651855,7.48321787 40.5663946,7.99900667 C40.5246781,8.30388225 40.4345705,8.60056224 40.3628181,8.90052046 C40.2276566,9.47421104 39.9690143,9.99872815 39.6920168,10.5183279 C39.219786,11.4034506 38.5806892,12.1541657 37.7847384,12.7885035 C37.2696988,13.2047288 36.6799899,13.5227147 36.0459947,13.7260779 C35.4769816,13.9063806 34.8996253,14.0309534 34.3039137,13.9932538 C33.3529119,13.9359999 32.4352111,13.6279658 31.647407,13.1015747 C30.9398952,12.6311484 30.3208223,12.0672925 29.8619408,11.3657509 C29.5366443,10.8813267 29.2440022,10.3764909 28.9858943,9.85448596 C28.7739745,9.40864641 28.6338071,8.92674632 28.4936396,8.45304179 C28.4202186,8.21536997 28.408538,7.96130699 28.3768334,7.7154396 C28.3334483,7.37122525 28.2950691,7.03028914 28.2400033,6.55494549 C28.3334483,6.05501513 28.4419112,5.43542927 28.5687293,4.81748258 Z" id="形状" fill="#0080FF" fill-rule="nonzero"></path>
                        <path d="M1.8,20.8815789 L35.7,20.8815789 C36.6941125,20.8815789 37.5,21.6874664 37.5,22.6815789 L37.5,46.0486842 C37.5,47.0427968 36.6941125,47.8486842 35.7,47.8486842 L1.8,47.8486842 C0.80588745,47.8486842 2.55377612e-15,47.0427968 0,46.0486842 L0,22.6815789 C-1.21743675e-16,21.6874664 0.80588745,20.8815789 1.8,20.8815789 Z" id="Rectangle" fill="#3D3E49"></path>
                        <path d="M4.5,26.1776316 L16.5,26.1776316 L16.5,27.6907895 L4.5,27.6907895 L4.5,26.1776316 Z M4.5,30.7171053 L16.5,30.7171053 L16.5,32.2302632 L4.5,32.2302632 L4.5,30.7171053 Z M4.5,35.2565789 L16.5,35.2565789 L16.5,36.7697368 L4.5,36.7697368 L4.5,35.2565789 Z M4.5,39.7960526 L29.25,39.7960526 L29.25,41.3092105 L4.5,41.3092105 L4.5,39.7960526 Z" id="Combined-Shape" fill="#FFFFFF" fill-rule="nonzero"></path>
                        <path d="M22.5,20.8815789 L35.7,20.8815789 C36.6941125,20.8815789 37.5,21.6945356 37.5,22.6973684 L37.5,36.3914474 L27.9,36.3914474 C24.9176624,36.3914474 22.5,33.9525774 22.5,30.9440789 L22.5,20.8815789 Z" id="Combined-Shape" fill="#FFFFFF"></path>
                        <g id="time-circle-fill" transform="translate(25.000000, 23.605263)">
                            <rect id="Rectangle" fill="#000000" opacity="0" x="0.2" y="0" width="9.23076924" height="9.3117409"></rect>
                            <circle id="椭圆形" fill="#0080FF" fill-rule="nonzero" cx="1.5" cy="4.89473684" r="1.5"></circle>
                            <circle id="椭圆形-copy-3" fill="#0080FF" fill-rule="nonzero" cx="5.5" cy="4.89473684" r="1.5"></circle>
                            <circle id="椭圆形-copy-4" fill="#0080FF" fill-rule="nonzero" cx="9.5" cy="4.89473684" r="1.5"></circle>
                        </g>
                    </g>
                </g>
            </g>
        </g>
    </g>
</svg>