<?xml version="1.0" encoding="UTF-8"?>
<svg width="48px" height="48px" viewBox="0 0 48 48" version="1.1" xmlns="http://www.w3.org/2000/svg" xmlns:xlink="http://www.w3.org/1999/xlink">
    <title>ico-09</title>
    <g id="页面-1" stroke="none" stroke-width="1" fill="none" fill-rule="evenodd">
        <g id="首页01" transform="translate(-1166.000000, -745.000000)" fill-rule="nonzero">
            <g id="政务信息资源分类" transform="translate(0.000000, 360.000000)">
                <g id="card" transform="translate(1075.000000, 353.000000)">
                    <g id="ico-09" transform="translate(91.000000, 32.000000)">
                        <path d="M43.2,0 C40.549012,0 38.4,2.26211795 38.4,5.05263158 L38.4,44.2105263 C38.4,46.4087254 36.6644819,48 34.8271807,48 L7.2,48 L7.2,5.05263158 C7.2,2.00583386 9.6,0 12,0 L43.2,0 Z" id="路径" fill="#0080FF"></path>
                        <path d="M38.4,5.05263158 C38.4,2.26211795 40.549012,0 43.2,0 C45.850988,0 48,2.26211795 48,5.05263158 L48,10.1052632 L38.4,10.1052632 L38.4,5.05263158 Z" id="路径" fill="#3D3E49"></path>
                        <path d="M36.3996145,47.6061382 C35.9107277,47.8614687 35.3729251,47.9959688 34.8271807,47.9993912 L36.6135904,47.9993912 L3.6,47.9993912 C1.61175904,48 0,46.3034115 0,44.2105263 L0,40.4210526 L31.2,40.4210526 L31.2,44.2105263 C31.2,46.3034115 32.811759,48 34.8,48 C35.3748434,48 35.9173012,47.8581611 36.3996145,47.6061382 Z" id="路径" fill="#3D3E49"></path>
                        <path d="M21.6,12.6315789 L33.6,12.6315789 L33.6,17.6842105 L21.6,17.6842105 L21.6,12.6315789 Z M12,22.7368421 L33.6,22.7368421 L33.6,27.7894737 L12,27.7894737 L12,22.7368421 Z" id="形状" fill="#FFFFFF"></path>
                    </g>
                </g>
            </g>
        </g>
    </g>
</svg>