<?xml version="1.0" encoding="UTF-8"?>
<svg width="48px" height="48px" viewBox="0 0 48 48" version="1.1" xmlns="http://www.w3.org/2000/svg" xmlns:xlink="http://www.w3.org/1999/xlink">
    <title>ico-02</title>
    <g id="页面-1" stroke="none" stroke-width="1" fill="none" fill-rule="evenodd">
        <g id="首页01" transform="translate(-706.000000, -595.000000)" fill-rule="nonzero">
            <g id="政务信息资源分类" transform="translate(0.000000, 360.000000)">
                <g id="card" transform="translate(615.000000, 203.000000)">
                    <g id="ico-02" transform="translate(91.000000, 32.000000)">
                        <path d="M34.9151258,29.570215 C34.9151258,29.570215 36.279505,48.7530911 17.3824164,47.8548939 C-0.995538471,49.8985923 0.00977670536,29.6787638 0.00977670536,29.6787638 C15.7583637,28.8890584 17.3824164,43.2972714 17.3824164,43.2972714 C17.3824164,43.2972714 18.216571,29.6003643 34.9151258,29.570215" id="形状" fill="#3D3E49"></path>
                        <path d="M47.1892595,2.21854127 L47.2500988,2.23652805 L42.7481488,7.52961019 L42.7481488,29.1420154 C41.6047854,40.8856149 35.4953122,45.4732725 29.6399672,47.1191488 C38.1025519,40.0476592 37.1966805,27.188822 37.1966805,27.188822 C26.2704498,27.2068088 20.4261955,31.5955839 17.2996088,36.0689256 C16.4323418,34.7244278 15.3165987,33.374277 13.9079098,32.1261655 L13.9079098,17.482811 C16.0346201,0.0119340881 31.7334052,0 31.7334052,0 L47.2002437,0 C47.9349545,0.24108 48.5590241,0.82596452 47.1892062,2.21854127 L47.1892595,2.21854127 Z" id="路径" fill="#0080FF"></path>
                        <path d="M34.7383665,5.8237208 C33.2744903,5.8237208 32.0868171,7.13195952 32.0868171,8.74157679 C32.0868171,10.3511941 33.2743836,11.6594328 34.7383665,11.6594328 C36.2022428,11.6594328 37.3953014,10.3511941 37.3953014,8.74157679 C37.3953014,7.13184532 36.2022428,5.8237208 34.7383665,5.8237208" id="路径" fill="#FFFFFF"></path>
                    </g>
                </g>
            </g>
        </g>
    </g>
</svg>