<?xml version="1.0" encoding="UTF-8"?>
<svg width="48px" height="48px" viewBox="0 0 48 48" version="1.1" xmlns="http://www.w3.org/2000/svg" xmlns:xlink="http://www.w3.org/1999/xlink">
    <title>ico-002</title>
    <g id="页面-1" stroke="none" stroke-width="1" fill="none" fill-rule="evenodd">
        <g id="首页02" transform="translate(-706.000000, -595.000000)">
            <g id="政务信息资源分类" transform="translate(0.000000, 360.000000)">
                <g id="05" transform="translate(615.000000, 203.000000)">
                    <g id="ico-002" transform="translate(91.000000, 32.000000)">
                        <path d="M8.8,11 L46.2,11 C47.1941125,11 48,11.8058875 48,12.8 L48,35.2 C48,36.1941125 47.1941125,37 46.2,37 L8.8,37 C7.80588745,37 7,36.1941125 7,35.2 L7,12.8 C7,11.8058875 7.80588745,11 8.8,11 Z" id="Rectangle" fill="#0080FF"></path>
                        <path d="M1.8,0 L24.2,0 C25.1941125,1.1391939e-15 26,0.80588745 26,1.8 L26,46.2 C26,47.1941125 25.1941125,48 24.2,48 L1.8,48 C0.80588745,48 -9.88479349e-16,47.1941125 0,46.2 L0,1.8 C-1.21743675e-16,0.80588745 0.80588745,-2.70396435e-15 1.8,0 Z" id="Rectangle" fill="#3D3E49"></path>
                        <path d="M26,11 L26,37 L8.824,37 C7.81663265,37 7,36.2017876 7,35.2171429 L7,12.7828571 C7,11.7982124 7.81663265,11 8.824,11 L26,11 Z" id="Combined-Shape" fill="#FFFFFF"></path>
                        <path d="M17.2417791,23.625 C15.6053799,23.625 14.2788161,22.2818542 14.2788161,20.625 C14.2788161,18.9681458 15.6053799,17.625 17.2417791,17.625 C18.8781784,17.625 20.204742,18.9681458 20.204742,20.625 C20.204742,22.2818542 18.8781784,23.625 17.2417791,23.625 Z M11.2222222,29.625 C12.0130158,27.0192482 14.4089158,25.125 17.2417791,25.125 C20.0746424,25.125 22.4705423,27.0192482 23.2613359,29.625 L11.2222222,29.625 Z" id="Combined-Shape" fill="#0080FF" fill-rule="nonzero"></path>
                        <path d="M28.6296296,18.375 L42.7037037,18.375 L42.7037037,19.875 L28.6296296,19.875 L28.6296296,18.375 Z M28.6296296,22.875 L42.7037037,22.875 L42.7037037,24.375 L28.6296296,24.375 L28.6296296,22.875 Z M28.6296296,27.375 L42.7037037,27.375 L42.7037037,28.875 L28.6296296,28.875 L28.6296296,27.375 Z" id="Shape" fill="#FFFFFF" fill-rule="nonzero"></path>
                    </g>
                </g>
            </g>
        </g>
    </g>
</svg>