<?xml version="1.0" encoding="UTF-8"?>
<svg width="48px" height="48px" viewBox="0 0 48 48" version="1.1" xmlns="http://www.w3.org/2000/svg" xmlns:xlink="http://www.w3.org/1999/xlink">
    <title>ico-003</title>
    <g id="页面-1" stroke="none" stroke-width="1" fill="none" fill-rule="evenodd">
        <g id="首页02" transform="translate(-936.000000, -595.000000)" fill-rule="nonzero">
            <g id="政务信息资源分类" transform="translate(0.000000, 360.000000)">
                <g id="04" transform="translate(845.000000, 203.000000)">
                    <g id="ico-003" transform="translate(91.000000, 32.000000)">
                        <path d="M39,0 L39,43 L0,43 L0,0 L39,0 Z M25,35 L7,35 L7,37 L25,37 L25,35 Z M25,30 L7,30 L7,32 L25,32 L25,30 Z M25,25 L7,25 L7,27 L25,27 L25,25 Z M25,20 L7,20 L7,22 L25,22 L25,20 Z M12.5,5 C9.46243388,5 7,7.46243388 7,10.5 C7,13.5375661 9.46243388,16 12.5,16 C15.5375661,16 18,13.5375661 18,10.5 C18,7.46243388 15.5375661,5 12.5,5 Z M12.5,8 L15,10.5 L12.5,13 L10,10.5 L12.5,8 Z" id="合并形状" fill="#0080FF"></path>
                        <path d="M23,13 L48,13 L48,40 C48,44.418278 44.418278,48 40,48 L23,48 L23,13 Z" id="矩形" fill="#3D3E49"></path>
                        <path d="M29.6935484,31.5 C30.6288693,31.5 31.3870968,30.7164983 31.3870968,29.75 C31.3870968,28.7835017 30.6288693,28 29.6935484,28 C28.7582274,28 28,28.7835017 28,29.75 C28,30.7164983 28.7582274,31.5 29.6935484,31.5 Z M35.5,31.5 C36.4353209,31.5 37.1935484,30.7164983 37.1935484,29.75 C37.1935484,28.7835017 36.4353209,28 35.5,28 C34.5646791,28 33.8064516,28.7835017 33.8064516,29.75 C33.8064516,30.7164983 34.5646791,31.5 35.5,31.5 Z M41.3064516,31.5 C42.2417726,31.5 43,30.7164983 43,29.75 C43,28.7835017 42.2417726,28 41.3064516,28 C40.3711307,28 39.6129032,28.7835017 39.6129032,29.75 C39.6129032,30.7164983 40.3711307,31.5 41.3064516,31.5 Z M29.6935484,37.5 C30.6288693,37.5 31.3870968,36.7164983 31.3870968,35.75 C31.3870968,34.7835017 30.6288693,34 29.6935484,34 C28.7582274,34 28,34.7835017 28,35.75 C28,36.7164983 28.7582274,37.5 29.6935484,37.5 Z M35.5,37.5 C36.4353209,37.5 37.1935484,36.7164983 37.1935484,35.75 C37.1935484,34.7835017 36.4353209,34 35.5,34 C34.5646791,34 33.8064516,34.7835017 33.8064516,35.75 C33.8064516,36.7164983 34.5646791,37.5 35.5,37.5 Z M41.3064516,37.5 C42.2417726,37.5 43,36.7164983 43,35.75 C43,34.7835017 42.2417726,34 41.3064516,34 C40.3711307,34 39.6129032,34.7835017 39.6129032,35.75 C39.6129032,36.7164983 40.3711307,37.5 41.3064516,37.5 Z M29.6935484,43.5 C30.6288693,43.5 31.3870968,42.7164983 31.3870968,41.75 C31.3870968,40.7835017 30.6288693,40 29.6935484,40 C28.7582274,40 28,40.7835017 28,41.75 C28,42.7164983 28.7582274,43.5 29.6935484,43.5 Z M35.5,43.5 C36.4353209,43.5 37.1935484,42.7164983 37.1935484,41.75 C37.1935484,40.7835017 36.4353209,40 35.5,40 C34.5646791,40 33.8064516,40.7835017 33.8064516,41.75 C33.8064516,42.7164983 34.5646791,43.5 35.5,43.5 Z M41.3064516,43.5 C42.2417726,43.5 43,42.7164983 43,41.75 C43,40.7835017 42.2417726,40 41.3064516,40 C40.3711307,40 39.6129032,40.7835017 39.6129032,41.75 C39.6129032,42.7164983 40.3711307,43.5 41.3064516,43.5 Z" id="合并形状" fill="#FFFFFF"></path>
                        <rect id="矩形" fill="#FFFFFF" x="27" y="17" width="17" height="8"></rect>
                    </g>
                </g>
            </g>
        </g>
    </g>
</svg>