<?xml version="1.0" encoding="UTF-8"?>
<svg width="48px" height="48px" viewBox="0 0 48 48" version="1.1" xmlns="http://www.w3.org/2000/svg" xmlns:xlink="http://www.w3.org/1999/xlink">
    <title>ico-13</title>
    <g id="页面-1" stroke="none" stroke-width="1" fill="none" fill-rule="evenodd">
        <g id="首页修改01" transform="translate(-936.000000, -1069.000000)" fill-rule="nonzero">
            <g id="政务信息资源分类" transform="translate(0.000000, 534.000000)">
                <g id="card" transform="translate(845.000000, 503.000000)">
                    <g id="ico-13" transform="translate(91.000000, 32.000000)">
                        <path d="M43.1744458,0 C45.8130253,0 47.9716065,2.15858114 47.9716065,4.79716067 L47.9709006,20.1592277 L47.9998417,20.1599335 L47.9998417,27.4650859 C47.8939597,27.4333213 47.7880777,27.4064979 47.6807839,27.3832038 C46.5118465,27.1262634 45.2949094,27.2632042 44.1436191,27.5434386 C42.378919,27.988143 40.7222187,28.7886109 39.1763413,29.7401372 C37.8274046,28.9093164 36.395174,28.1970835 34.8782379,27.7297909 C33.7601239,27.3895568 32.5848337,27.1749692 31.412367,27.2709689 C30.5194288,27.3436745 29.6194318,27.6309677 28.9276693,28.2196716 C28.2535538,28.782258 27.8264965,29.599667 27.65285,30.4537819 C27.411439,31.6234251 27.5519091,32.8368329 27.8363788,33.9852997 C28.2839067,35.7429409 29.0808452,37.3918767 30.0267245,38.931401 C29.0406101,40.554925 28.2126128,42.2998604 27.7989671,44.1633837 C27.5624973,45.2631448 27.470027,46.4221998 27.7432026,47.5240785 C27.7827318,47.6850191 27.8314376,47.8438422 27.8893198,47.9991358 L20.1599335,47.9998417 L20.1592277,47.9709006 L4.79716067,47.9709006 C2.15858114,47.9709006 0,45.8130253 0,43.1744458 L0,4.79716067 C0,2.15858114 2.15858114,0 4.79716067,0 L43.1744458,0 Z M40.5478663,41.7598622 C40.2891205,41.8846749 40.014242,41.9728166 39.731163,42.0217438 C39.077963,42.136597 38.40521,42.0453177 37.8062282,41.7605681 L40.5478663,41.7598622 Z M19.1886426,28.782258 L9.59432133,28.782258 C8.27123108,28.7861346 7.19961762,29.8577481 7.19574097,31.1808383 C7.19961762,32.5039286 8.27123108,33.575542 9.59432133,33.5794186 L19.1886426,33.5794186 C20.5117328,33.575542 21.5833462,32.5039286 21.5872229,31.1808383 C21.5833462,29.8577481 20.5117328,28.7861347 19.1886426,28.782258 L19.1886426,28.782258 Z M23.9858033,19.1879367 L9.59432133,19.1879367 C8.27123105,19.1918133 7.19961759,20.2634268 7.19574097,21.5865171 C7.19961762,22.9096073 8.27123108,23.9812207 9.59432133,23.9850974 L23.9858033,23.9850974 C25.3088935,23.9812207 26.3805069,22.9096073 26.3843836,21.5865171 C26.3805069,20.2634268 25.3088935,19.1918134 23.9858033,19.1879367 L23.9858033,19.1879367 Z M38.3772852,9.59361543 L9.59432133,9.59361543 C8.27123108,9.59749205 7.19961762,10.6691055 7.19574097,11.9921957 C7.19961759,13.315286 8.27123105,14.3868995 9.59432133,14.3907761 L38.3772852,14.3907761 C39.7003755,14.3868994 40.7719889,13.315286 40.7758655,11.9921957 C40.7719888,10.6691055 39.7003754,9.59749209 38.3772852,9.59361543 L38.3772852,9.59361543 Z" id="形状" fill="#0080FF"></path>
                        <path d="M30.7488398,30.4135467 C31.2930733,29.9497835 32.0024827,29.7231961 32.7069509,29.6660198 C33.630242,29.5904906 34.5563566,29.7591959 35.4372949,30.0274304 C36.6323498,30.3951939 37.760346,30.9563685 38.8234013,31.6114252 C40.0417503,30.8617806 41.3462166,30.2314297 42.7368002,29.8806073 C43.6438561,29.6596669 44.603147,29.5516672 45.5236145,29.7542548 C46.2062005,29.9010779 46.8541984,30.2596649 47.2883146,30.8151925 C47.7965482,31.4533081 47.9927829,32.2862464 47.9999218,33.0895379 C48.0061946,34.3572984 47.6341959,35.5947061 47.138668,36.7502317 C46.8211729,37.4765791 46.4517467,38.1791021 46.0332599,38.8523424 C46.7137283,39.972574 47.2946675,41.1633936 47.6511369,42.4283307 C47.8770185,43.2379751 48.0125475,44.0829135 47.9454889,44.9250283 C47.8974891,45.5179675 47.7351366,46.1109067 47.4090201,46.6120815 C47.1197873,47.0573419 46.7120201,47.4130381 46.2316122,47.639137 C45.7014963,47.8925479 45.109263,47.9927829 44.5255002,47.9991358 C43.5944444,48.0069004 42.6760945,47.7993717 41.7986857,47.497961 C40.7546891,47.1379622 39.7643394,46.6346697 38.8234013,46.0593775 C37.7702283,46.703846 36.654232,47.2572559 35.4725889,47.6207841 C34.6325916,47.8756068 33.7544769,48.0393709 32.8742445,47.9906652 C32.1450704,47.951136 31.4031905,47.7379602 30.830016,47.2706676 C30.3147235,46.8591395 29.9716658,46.2591415 29.8156664,45.6231436 C29.600373,44.7549112 29.6730786,43.8415024 29.8594309,42.9746818 C30.1848416,41.5064513 30.8377806,40.1321029 31.6142486,38.8530483 C30.8688393,37.6403465 30.241312,36.3401154 29.8890779,34.9558847 C29.664608,34.0509465 29.5537848,33.095185 29.7443725,32.1733056 C29.8806073,31.500602 30.2173121,30.8561335 30.7488398,30.4135467 M39.0132831,36.0055283 C37.8562273,36.0824998 36.9085217,36.954052 36.735121,38.1006272 C36.5617202,39.2472025 37.2093227,40.3600188 38.2918736,40.7756941 C39.3744246,41.1913695 40.6003844,40.7979591 41.2389228,39.8299863 C41.7549653,39.0467272 41.7829545,38.038796 41.3111743,37.2281061 C40.839394,36.4174162 39.9492238,35.9438071 39.0132831,36.0055283 L39.0132831,36.0055283 Z" id="形状" fill="#3D3E49"></path>
                    </g>
                </g>
            </g>
        </g>
    </g>
</svg>