<?xml version="1.0" encoding="UTF-8"?>
<svg width="48px" height="44px" viewBox="0 0 48 44" version="1.1" xmlns="http://www.w3.org/2000/svg" xmlns:xlink="http://www.w3.org/1999/xlink">
    <title>ico-01</title>
    <g id="页面-1" stroke="none" stroke-width="1" fill="none" fill-rule="evenodd">
        <g id="首页01" transform="translate(-476.000000, -597.000000)" fill-rule="nonzero">
            <g id="政务信息资源分类" transform="translate(0.000000, 360.000000)">
                <g id="card" transform="translate(385.000000, 203.000000)">
                    <g id="ico-01" transform="translate(91.000000, 34.000000)">
                        <polygon id="路径" fill="#3D3E49" points="48 19.5435485 48 39.1411287 43.7676279 39.1411287 43.7676279 44 36.5893953 39.1411287 19.1787907 39.1411287 19.1787907 19.5435485"></polygon>
                        <polygon id="路径" fill="#0080FF" points="0 0 0 26.9675034 6 26.9675034 6 33.0270158 15.2143256 26.9675034 39.5893953 26.9675034 39.5893953 0"></polygon>
                        <polygon id="路径" fill="#FFFFFF" points="11.3302326 4.25826633 16.3093953 4.25826633 19.7944186 11.7743595 23.3737674 4.25826633 28.2591628 4.25826633 22.759814 12.7912929 26.4574884 12.7912929 26.4574884 14.7739717 21.9270698 14.7739717 21.9270698 16.1588894 26.4574884 16.1588894 26.4574884 18.1409995 21.9270698 18.1409995 21.9270698 21.508596 17.7097674 21.508596 17.7097674 18.1409995 13.131907 18.1409995 13.131907 16.1588894 17.7097674 16.1588894 17.7097674 14.7739717 13.131907 14.7739717 13.131907 12.8834311 16.8647442 12.8834311"></polygon>
                    </g>
                </g>
            </g>
        </g>
    </g>
</svg>