<?xml version="1.0" encoding="UTF-8"?>
<svg width="48px" height="31px" viewBox="0 0 48 31" version="1.1" xmlns="http://www.w3.org/2000/svg" xmlns:xlink="http://www.w3.org/1999/xlink">
    <title>ico-04</title>
    <g id="页面-1" stroke="none" stroke-width="1" fill="none" fill-rule="evenodd">
        <g id="首页01" transform="translate(-1166.000000, -603.000000)" fill-rule="nonzero">
            <g id="政务信息资源分类" transform="translate(0.000000, 360.000000)">
                <g id="card" transform="translate(1075.000000, 203.000000)">
                    <g id="ico-04" transform="translate(91.000000, 40.000000)">
                        <path d="M15.4285714,0 C6.90760672,0 0,6.92755936 0,15.4731369 C0,24.0187145 6.90760672,30.9462738 15.4285714,30.9462738 C23.9495361,30.9462738 30.8571429,24.0187145 30.8571429,15.4731369 C30.8571429,6.92755936 23.9495361,0 15.4285714,0 L15.4285714,0 Z" id="路径" fill="#0080FF"></path>
                        <path d="M32.5714286,0.0537261698 C24.0504639,0.0537261698 17.1428571,6.98128553 17.1428571,15.5268631 C17.1428571,24.0724406 24.0504639,31 32.5714286,31 C41.0923933,31 48,24.0724406 48,15.5268631 C48,6.98128553 41.0923933,0.0537261698 32.5714286,0.0537261698 L32.5714286,0.0537261698 Z" id="路径" fill="#3D3E49"></path>
                        <path d="M23.9598214,28.3674177 C19.8476786,25.5881629 17.1428571,20.8742288 17.1428571,15.5268631 C17.1428571,10.1445754 19.8830357,5.40431542 24.0401786,2.63258232 C28.1523214,5.41183709 30.8571429,10.1257712 30.8571429,15.4731369 C30.8571429,20.8554246 28.1169643,25.5956846 23.9598214,28.3674177 Z" id="路径" fill="#FFFFFF"></path>
                    </g>
                </g>
            </g>
        </g>
    </g>
</svg>