<?xml version="1.0" encoding="UTF-8"?>
<svg width="48px" height="48px" viewBox="0 0 48 48" version="1.1" xmlns="http://www.w3.org/2000/svg" xmlns:xlink="http://www.w3.org/1999/xlink">
    <title>ico-08</title>
    <g id="页面-1" stroke="none" stroke-width="1" fill="none" fill-rule="evenodd">
        <g id="首页01" transform="translate(-936.000000, -745.000000)">
            <g id="政务信息资源分类" transform="translate(0.000000, 360.000000)">
                <g id="card" transform="translate(845.000000, 353.000000)">
                    <g id="ico-08" transform="translate(91.025098, 32.039695)">
                        <path d="M0,17.114951 C0,26.5682873 7.66996078,34.2299021 17.1335948,34.2299021 C26.5972288,34.2299021 34.2671895,26.5682873 34.2671895,17.114951 C34.2671895,7.6616148 26.5972288,0 17.1335948,0 C7.66996078,0 0,7.6616148 0,17.114951 Z" id="路径" fill="#3D3E49"></path>
                        <path d="M19.7638693,14.8351861 L19.7638693,16.7739891 L15.4202353,16.7739891 L15.4202353,18.3718303 L19.7638693,18.3718303 L19.7638693,20.3106333 L15.4202353,20.3106333 C15.4202353,20.9925571 15.5340131,21.6811665 15.7615686,22.1357824 C15.9891242,22.5903983 16.2166797,23.0516997 16.5580131,23.2790076 C16.8993464,23.6199695 17.3544575,23.7336235 17.8162614,23.9609314 C18.2713725,24.0745854 18.8469542,24.1882394 19.4158431,24.1882394 C19.8709542,24.1882394 20.2122876,24.1882394 20.6740915,24.0745854 C21.1292026,23.9609314 21.4705359,23.9609314 21.8185621,23.7336235 L22.2736732,26.8156518 C21.8185621,26.9293058 21.2429804,27.0429597 20.6740915,27.0429597 C20.1052026,27.1566137 19.5296209,27.1566137 18.960732,27.1566137 C17.9300392,27.1566137 16.9060392,27.0429597 15.9891242,26.7019978 C15.0722092,26.4746899 14.2757647,26.020074 13.7068758,25.4451186 C13.0242092,24.8768487 12.5624052,24.1882394 12.1072941,23.2790076 C11.7659608,22.4834298 11.5384052,21.4538585 11.5384052,20.3106333 L9.36993464,20.3106333 L9.36993464,18.3718303 L11.5384052,18.3718303 L11.5384052,16.7739891 L9.36993464,16.7739891 L9.36993464,14.8351861 L11.5384052,14.8351861 C11.652183,13.6919608 11.8797386,12.7827291 12.2210719,11.8668118 C12.676183,11.0712339 13.1379869,10.2689706 13.8206536,9.70070076 C14.5033203,9.1324309 15.3064575,8.67112949 16.2166797,8.44382155 C17.1335948,8.10285963 18.1575948,7.98920566 19.1882876,7.98920566 C19.6433987,7.98920566 20.2189804,7.98920566 20.6740915,8.10285963 C21.1292026,8.2165136 21.7047843,8.2165136 22.1598954,8.44382155 L21.7047843,11.5258498 C21.363451,11.4121959 21.0221176,11.2985419 20.5603137,11.1848879 C20.1052026,11.0712339 19.7638693,11.0712339 19.3020654,11.0712339 C18.7331765,11.0712339 18.1575948,11.1848879 17.7024837,11.2985419 C17.2473725,11.4121959 16.7855686,11.6395038 16.5580131,11.9804657 C16.2166797,12.3214276 15.9891242,12.6623896 15.7615686,13.123691 C15.5340131,13.5783069 15.4202353,14.1532622 15.4202353,14.8351861 L19.7638693,14.8351861 L19.7638693,14.8351861 Z" id="路径" fill="#FFFFFF"></path>
                        <path d="M13.7068758,30.8069119 C13.7068758,40.2602481 21.3768366,47.9218629 30.8404706,47.9218629 C40.3041046,47.9218629 47.9740654,40.2602481 47.9740654,30.8069119 C47.9740654,21.3535756 40.3041046,13.6919608 30.8404706,13.6919608 C21.3768366,13.6919608 13.7068758,21.3535756 13.7068758,30.8069119 L13.7068758,30.8069119 Z" id="路径" fill="#0080FF"></path>
                        <path d="M29.0133333,27.3839217 C29.1271111,27.6112296 29.2408889,27.8385375 29.4684444,28.0658455 C29.696,28.2931534 29.9235556,28.5204614 30.2648889,28.6341153 C30.6062222,28.8614233 31.0613333,28.9750773 31.5231373,29.2023852 C32.3195817,29.5433471 33.122719,29.884309 33.8053856,30.2319565 C34.4880523,30.5729184 35.063634,31.0275343 35.5187451,31.4888357 C35.9738562,31.9434516 36.4356601,32.518407 36.6632157,33.0866768 C36.8907712,33.6549467 37.1183268,34.45721 37.1183268,35.2527878 C37.1183268,36.0550511 37.004549,36.736975 36.7769935,37.3052448 C36.5494379,37.8735147 36.2081046,38.4484701 35.7463007,38.903086 C35.2911895,39.3577018 34.7156078,39.6986638 34.146719,39.9326572 C33.4640523,40.1599652 32.7746928,40.3872731 32.0920261,40.5009271 L32.0920261,43.008 L30.0373333,43.008 L30.0373333,40.5009271 C29.3546667,40.3872731 28.6653072,40.2736192 27.9826405,40.0463112 C27.2999739,39.8190033 26.7243922,39.4780413 26.269281,38.903086 C25.7003922,38.4484701 25.352366,37.7598607 25.0110327,37.0779369 C24.6696993,36.3960131 24.5559216,35.4800958 24.5559216,34.4505245 L28.3239739,34.4505245 C28.3239739,35.0187943 28.4377516,35.5937497 28.5515294,35.9347116 C28.6653072,36.3893275 28.8928627,36.6166355 29.2341961,36.9642829 C29.4617516,37.1915909 29.803085,37.4188988 30.1511111,37.5325528 C30.4924444,37.6462067 30.8337778,37.6462067 31.1818039,37.6462067 C31.636915,37.6462067 31.9782484,37.6462067 32.2124967,37.5325528 C32.5538301,37.4188988 32.7813856,37.3052448 33.0089412,37.0779369 C33.2364967,36.8506289 33.3502745,36.623321 33.4640523,36.3960131 C33.5778301,36.1687051 33.5778301,35.8277432 33.5778301,35.4800958 C33.5778301,35.1391338 33.5778301,34.7981719 33.4640523,34.5641785 C33.3502745,34.3368705 33.2364967,33.9959086 33.0089412,33.7686007 C32.7813856,33.5412927 32.5538301,33.3139848 32.2124967,33.2003308 C31.8711634,32.9730229 31.4160523,32.8593689 30.9542484,32.6320609 C30.1578039,32.291099 29.3546667,31.9501371 28.672,31.6024897 C27.9893333,31.2615277 27.4137516,30.8069119 26.9586405,30.3456104 C26.5035294,29.8909946 26.0417255,29.3160392 25.8141699,28.7477693 C25.5866144,28.1794995 25.3590588,27.3772361 25.3590588,26.5816583 C25.3590588,25.8997345 25.4728366,25.2111251 25.7003922,24.6428553 C25.9279477,24.0745854 26.269281,23.49963 26.731085,23.0450141 C27.1861961,22.5903983 27.7617778,22.2494363 28.3306667,21.9017889 C28.8995556,21.674481 29.7026928,21.447173 30.3853595,21.333519 L30.3853595,18.5924527 L32.4400523,18.5924527 L32.4400523,21.333519 C33.122719,21.447173 33.8120784,21.674481 34.4947451,22.0154429 C35.063634,22.3564048 35.6392157,22.6973667 35.980549,23.2723221 C36.4356601,23.726938 36.7769935,24.4155473 37.0112418,25.0974712 C37.2387974,25.779395 37.3525752,26.5816583 37.3525752,27.3772361 L33.5845229,27.3772361 C33.5845229,26.3476649 33.3569673,25.5520871 32.9018562,25.0974712 C32.4467451,24.6428553 31.8711634,24.3018934 31.1884967,24.3018934 C30.8471634,24.3018934 30.5058301,24.4155473 30.1578039,24.5292013 C29.9302484,24.6428553 29.7026928,24.7565092 29.4751373,24.9838172 C29.2475817,25.2111251 29.1338039,25.4384331 29.1338039,25.665741 C29.0200261,25.893049 29.0200261,26.2340109 29.0200261,26.5816583 C28.8995556,26.8156518 29.0133333,27.1566137 29.0133333,27.3839217 L29.0133333,27.3839217 Z" id="路径" fill="#FFFFFF"></path>
                    </g>
                </g>
            </g>
        </g>
    </g>
</svg>