<svg xmlns="http://www.w3.org/2000/svg" width="30" height="30" viewBox="0 0 30 30">
  <g id="组_31" data-name="组 31" transform="translate(-1711 -399)">
    <path id="删除_数字面板编辑态" data-name="删除／数字面板编辑态" d="M176.246,174.885l-5.2-5.2a1,1,0,0,0-1.418,1.418l5.195,5.2-5.2,5.2a1,1,0,0,0,1.418,1.418l5.2-5.195,5.2,5.2a1,1,0,0,0,1.418-1.418l-5.195-5.2,5.2-5.2a1,1,0,0,0-1.418-1.418l-5.2,5.195Z" transform="translate(1726.15 164.818) rotate(45)" fill="#5abd8c"/>
    <g id="椭圆_26" data-name="椭圆 26" transform="translate(1711 399)" fill="none" stroke="#5abd8c" stroke-width="2">
      <circle cx="15" cy="15" r="15" stroke="none"/>
      <circle cx="15" cy="15" r="14" fill="none"/>
    </g>
  </g>
</svg>
