<?xml version="1.0" standalone="no"?><!DOCTYPE svg PUBLIC "-//W3C//DTD SVG 1.1//EN" "http://www.w3.org/Graphics/SVG/1.1/DTD/svg11.dtd"><svg t="1590141861648" class="icon" viewBox="0 0 1024 1024" version="1.1" xmlns="http://www.w3.org/2000/svg" p-id="2679" width="45" height="45" xmlns:xlink="http://www.w3.org/1999/xlink"><defs><style type="text/css"></style></defs><path d="M748.8 25.6H76.8C38.4 25.6 0 57.6 0 102.4v800c0 38.4 32 76.8 76.8 76.8h576c-25.6-25.6-44.8-51.2-57.6-83.2S576 832 576 793.6s6.4-70.4 19.2-102.4c12.8-38.4 32-70.4 51.2-89.6 25.6-25.6 51.2-44.8 83.2-57.6s64-19.2 96-19.2V102.4c0-44.8-32-76.8-76.8-76.8z m-563.2 192h192c19.2 0 38.4 19.2 38.4 38.4s-19.2 38.4-38.4 38.4h-192c-19.2 0-38.4-19.2-38.4-38.4s19.2-38.4 38.4-38.4z m268.8 518.4H185.6c-19.2 0-38.4-19.2-38.4-38.4s19.2-38.4 38.4-38.4h268.8c19.2 0 38.4 19.2 38.4 38.4s-19.2 38.4-38.4 38.4zM640 512H185.6c-19.2 0-38.4-12.8-38.4-38.4 0-19.2 19.2-38.4 38.4-38.4H640c19.2 0 38.4 19.2 38.4 38.4 0 25.6-12.8 38.4-38.4 38.4z" fill="#1F3365" p-id="2680"></path><path d="M832 595.2c-102.4 0-185.6 83.2-185.6 185.6s83.2 185.6 185.6 185.6 185.6-83.2 185.6-185.6c6.4-102.4-76.8-185.6-185.6-185.6z m121.6 166.4l-128 121.6c-6.4 6.4-12.8 6.4-19.2 6.4s-12.8 0-19.2-6.4l-70.4-70.4c-12.8-12.8-12.8-32 0-38.4 12.8-12.8 32-12.8 38.4 0l51.2 51.2 108.8-102.4c12.8-12.8 32-12.8 38.4 0 12.8 6.4 12.8 25.6 0 38.4z" fill="#1F3365" p-id="2681"></path></svg>