<svg xmlns="http://www.w3.org/2000/svg" width="24.267" height="28.21" viewBox="0 0 24.267 28.21">
  <defs>
    <style>
      .cls-1 {
        fill: #fff;
      }
    </style>
  </defs>
  <path id="部门_1_" data-name="部门 (1)"  d="M125.612,42.473h-7.439V37.112a.633.633,0,0,0-.632-.632H102.6a.633.633,0,0,0-.632.632V64.056a.633.633,0,0,0,.632.632h15.551v0h7.452a.633.633,0,0,0,.632-.632V43.1a.629.629,0,0,0-.628-.632Zm-11.5,13.771a.38.38,0,0,1-.379.379h-7.329a.38.38,0,0,1-.379-.379v-3.29a.38.38,0,0,1,.379-.379h7.326a.38.38,0,0,1,.379.379v3.29Zm0-6.069a.38.38,0,0,1-.379.379h-7.329a.38.38,0,0,1-.379-.379v-3.29a.38.38,0,0,1,.379-.379h7.326a.38.38,0,0,1,.379.379v3.29Zm0-6.06a.38.38,0,0,1-.379.379h-7.329a.38.38,0,0,1-.379-.379v-3.29a.38.38,0,0,1,.379-.379h7.326a.38.38,0,0,1,.379.379v3.29Zm10.1,12.122a.38.38,0,0,1-.379.379h-3.278a.38.38,0,0,1-.379-.379V52.96a.38.38,0,0,1,.379-.379h3.278a.38.38,0,0,1,.379.379v3.278Zm0-6.075a.38.38,0,0,1-.379.379h-3.278a.38.38,0,0,1-.379-.379V46.884a.38.38,0,0,1,.379-.379h3.278a.38.38,0,0,1,.379.379Z" transform="translate(-101.973 -36.48)"/>
</svg>
