<svg xmlns="http://www.w3.org/2000/svg" width="27" height="31" viewBox="0 0 27 31">
  <g id="组_375" data-name="组 375" transform="translate(-1663 -431)">
    <g id="矩形_176" data-name="矩形 176" transform="translate(1663 435)" fill="#fff" stroke="#5abd8c" stroke-width="2">
      <path d="M3,0H9A0,0,0,0,1,9,0V24a0,0,0,0,1,0,0H3a3,3,0,0,1-3-3V3A3,3,0,0,1,3,0Z" stroke="none"/>
      <path d="M3,1H7A1,1,0,0,1,8,2V22a1,1,0,0,1-1,1H3a2,2,0,0,1-2-2V3A2,2,0,0,1,3,1Z" fill="none"/>
    </g>
    <g id="矩形_177" data-name="矩形 177" transform="translate(1681 435)" fill="#fff" stroke="#5abd8c" stroke-width="2">
      <path d="M0,0H6A3,3,0,0,1,9,3V21a3,3,0,0,1-3,3H0a0,0,0,0,1,0,0V0A0,0,0,0,1,0,0Z" stroke="none"/>
      <path d="M2,1H6A2,2,0,0,1,8,3V21a2,2,0,0,1-2,2H2a1,1,0,0,1-1-1V2A1,1,0,0,1,2,1Z" fill="none"/>
    </g>
    <line id="直线_56" data-name="直线 56" y2="28" transform="translate(1676.5 432.5)" fill="none" stroke="#5abd8c" stroke-linecap="round" stroke-width="3"/>
  </g>
</svg>
