<svg xmlns="http://www.w3.org/2000/svg" width="83.206" height="81.191" viewBox="0 0 83.206 81.191">
  <defs>
    <style>
      .cls-1 {
        fill: #172853;
      }
    </style>
  </defs>
  <path id="删_除" data-name="删 除" class="cls-1" d="M181.432,196.39a5.077,5.077,0,0,1-5.07,5.07H139.829a5.077,5.077,0,0,1-5.07-5.07V142.566h46.674V196.39ZM144.9,133.466a1.027,1.027,0,0,1,1.04-1.04h24.377a1.027,1.027,0,0,1,1.04,1.04v3.055H144.9Zm51.744,3.055H177.4v-3.055a7.1,7.1,0,0,0-7.086-7.086H145.939a7.1,7.1,0,0,0-7.086,7.086v3.055H119.547a3.055,3.055,0,1,0,0,6.11h9.1V196.39a11.18,11.18,0,0,0,11.181,11.181h36.533a11.18,11.18,0,0,0,11.181-11.181V142.566h9.1a3.052,3.052,0,0,0,3.055-3.055A3,3,0,0,0,196.643,136.521ZM158.1,192.3a3.052,3.052,0,0,0,3.055-3.055v-32.5a3.055,3.055,0,1,0-6.11,0v32.5A3.052,3.052,0,0,0,158.1,192.3m-14.236,0a3.052,3.052,0,0,0,3.055-3.055v-32.5a3.055,3.055,0,1,0-6.11,0v32.5a3.138,3.138,0,0,0,3.055,3.055m28.472,0a3.052,3.052,0,0,0,3.055-3.055v-32.5a3.055,3.055,0,1,0-6.11,0v32.5a3.052,3.052,0,0,0,3.055,3.055" transform="translate(-116.492 -126.38)"/>
</svg>
