<svg xmlns="http://www.w3.org/2000/svg" width="28.999" height="28.999" viewBox="0 0 28.999 28.999">
  <defs>
    <style>
      .cls-1 {
        fill: #36dc5d;
      }
    </style>
  </defs>
  <g id="详情" transform="translate(-64.594 -63.413)">
    <path id="路径_13" data-name="路径 13" class="cls-1" d="M275.573,270.815h8.861a1.043,1.043,0,1,0,0-2.061h-8.861a1.043,1.043,0,1,0,0,2.061Zm0,6.646h8.861a1.043,1.043,0,1,0,0-2.061h-8.861a1.043,1.043,0,1,0,0,2.061Zm-4.519-6.469a1.119,1.119,0,1,0-1.119-1.119A1.107,1.107,0,0,0,271.054,270.992Zm4.519,13.114h8.861a1.043,1.043,0,1,0,0-2.061h-8.861a1.043,1.043,0,1,0,0,2.061Z" transform="translate(-198.695 -198.695)"/>
    <path id="路径_14" data-name="路径 14" class="cls-1" d="M89.062,63.413H69.124a4.536,4.536,0,0,0-4.53,4.531V87.881a4.536,4.536,0,0,0,4.53,4.53H89.062a4.536,4.536,0,0,0,4.531-4.53V67.944a4.536,4.536,0,0,0-4.531-4.531ZM66.655,67.654a2.182,2.182,0,0,1,2.18-2.18H89.352a2.182,2.182,0,0,1,2.18,2.18V88.171a2.182,2.182,0,0,1-2.18,2.18H68.834a2.182,2.182,0,0,1-2.18-2.18V67.654Z" transform="translate(0 0)"/>
    <path id="路径_15" data-name="路径 15" class="cls-1" d="M271.054,476.336a1.119,1.119,0,1,0-1.119-1.119A1.107,1.107,0,0,0,271.054,476.336Zm0,6.646a1.119,1.119,0,1,0-1.119-1.119A1.107,1.107,0,0,0,271.054,482.982Z" transform="translate(-198.695 -397.393)"/>
  </g>
</svg>
