<svg xmlns="http://www.w3.org/2000/svg" width="17.805" height="17.792" viewBox="0 0 17.805 17.792">
  <defs>
    <style>
      .cls-1 {
        fill: #fff;
      }
    </style>
  </defs>
  <g id="下载_1_" data-name="下载 (1)" transform="translate(-127.8 -128.42)">
    <path id="路径_29" data-name="路径 29" class="cls-1" d="M145.6,145.434a.778.778,0,0,1-.778.778H128.578a.778.778,0,0,1,0-1.556h16.249A.778.778,0,0,1,145.6,145.434Zm-8.9-2.194a.778.778,0,0,1-.778-.778V129.2a.778.778,0,0,1,1.556,0v13.265A.778.778,0,0,1,136.7,143.24Z"/>
    <path id="路径_30" data-name="路径 30" class="cls-1" d="M233.5,455.676a.778.778,0,0,1-1.1,0l-5.838-5.838a.778.778,0,1,1,1.1-1.1l5.838,5.838a.778.778,0,0,1,0,1.1Z" transform="translate(-96.247 -312.669)"/>
    <path id="路径_31" data-name="路径 31" class="cls-1" d="M478.389,455.675a.778.778,0,0,1,0-1.1l5.838-5.839a.778.778,0,0,1,1.1,1.1l-5.839,5.838a.778.778,0,0,1-1.1,0Z" transform="translate(-342.238 -312.668)"/>
  </g>
</svg>
