<svg id="下载" xmlns="http://www.w3.org/2000/svg" width="22.333" height="22.333" viewBox="0 0 22.333 22.333">
  <defs>
    <style>
      .cls-1 {
        fill: #4d4d4d;
      }
    </style>
  </defs>
  <path id="路径_79" data-name="路径 79" class="cls-1" d="M5.583,1.4H2.792A1.4,1.4,0,0,0,1.406,2.628l-.01.163v16.75a1.4,1.4,0,0,0,1.232,1.386l.163.01h16.75a1.4,1.4,0,0,0,1.386-1.232l.01-.163V2.792a1.4,1.4,0,0,0-1.232-1.386l-.163-.01H16.75V0h2.792a2.792,2.792,0,0,1,2.792,2.792v16.75a2.792,2.792,0,0,1-2.792,2.792H2.792A2.792,2.792,0,0,1,0,19.542V2.792A2.792,2.792,0,0,1,2.792,0H5.583ZM4.885,0h1.4a.7.7,0,0,1,0,1.4h-1.4a.7.7,0,1,1,0-1.4ZM16.052,0h1.4a.7.7,0,0,1,0,1.4h-1.4a.7.7,0,0,1,0-1.4Z"/>
  <path id="路径_80" data-name="路径 80" class="cls-1" d="M292.808,128a.7.7,0,0,1,.687.572l.011.126v10.878l3-3a.7.7,0,0,1,1.068.891l-.08.1-4.187,4.187-.018.015a.706.706,0,0,1-.054.046l.073-.061a.7.7,0,0,1-.317.181l-.031.007-.046.008-.042,0-.029,0h-.029l-.028,0h-.032l-.04,0,.1.007a.7.7,0,0,1-.4-.124l-.025-.018a.713.713,0,0,1-.056-.046l-.017-.015-4.187-4.187a.7.7,0,0,1,.891-1.068l.1.08,3,3V128.7A.7.7,0,0,1,292.808,128Z" transform="translate(-281.641 -125.208)"/>
</svg>
