<svg xmlns="http://www.w3.org/2000/svg" width="24.895" height="24.894" viewBox="0 0 24.895 24.894">
  <defs>
    <style>
      .cls-1 {
        fill: #5ABD8C;
      }
    </style>
  </defs>
  <g id="编_辑_2_" data-name="编 辑 (2)" transform="translate(-78.989 -78.894)">
    <path id="路径_34" data-name="路径 34" class="cls-1" d="M335.14,107.585a1.272,1.272,0,0,0,1.833,0l14.307-14.307a1.3,1.3,0,0,0,0-1.86,1.272,1.272,0,0,0-1.833,0L335.14,105.725A1.3,1.3,0,0,0,335.14,107.585Z" transform="translate(-248.41 -11.785)"/>
    <path id="路径_35" data-name="路径 35" class="cls-1" d="M102.57,89.372a1.313,1.313,0,0,0-1.313,1.313v10.478H81.615V81.52H92.093a1.331,1.331,0,0,0,1.313-1.313,1.308,1.308,0,0,0-1.286-1.313H80.3a1.313,1.313,0,0,0-1.313,1.313v22.268a1.308,1.308,0,0,0,1.313,1.313H102.57a1.308,1.308,0,0,0,1.313-1.313V90.685a1.313,1.313,0,0,0-1.313-1.313Z" transform="translate(0)"/>
  </g>
</svg>
