<svg xmlns="http://www.w3.org/2000/svg" xmlns:xlink="http://www.w3.org/1999/xlink" width="112" height="112" viewBox="0 0 112 112">
  <defs>
    <filter id="椭圆_51" x="0" y="0" width="112" height="112" filterUnits="userSpaceOnUse">
      <feOffset dy="3" input="SourceAlpha"/>
      <feGaussianBlur stdDeviation="3" result="blur"/>
      <feFlood flood-color="#e65555" flood-opacity="0.588"/>
      <feComposite operator="in" in2="blur"/>
      <feComposite in="SourceGraphic"/>
    </filter>
  </defs>
  <g id="组_358" data-name="组 358" transform="translate(-660 -612)">
    <g transform="matrix(1, 0, 0, 1, 660, 612)" filter="url(#椭圆_51)">
      <circle id="椭圆_51-2" data-name="椭圆 51" cx="47" cy="47" r="47" transform="translate(9 6)" fill="#e65555"/>
    </g>
    <path id="错" d="M28.251.891,16.482,12.662,4.714.893A2.742,2.742,0,1,0,.821,4.755L12.606,16.541.821,28.326a2.742,2.742,0,0,0,3.89,3.865L16.482,20.422,28.251,32.2a2.742,2.742,0,1,0,3.891-3.865L20.357,16.542,32.134,4.757A2.739,2.739,0,1,0,28.252.891Z" transform="translate(701.058 649.954)" fill="#fff"/>
  </g>
</svg>
