<svg xmlns="http://www.w3.org/2000/svg" width="28.311" height="30" viewBox="0 0 28.311 30">
  <defs>
    <style>
      .cls-1 {
        fill: #1f3365;
      }
    </style>
  </defs>
  <g id="关系" transform="translate(-132.094 -119.467)">
    <path id="路径_36" data-name="路径 36" class="cls-1" d="M316.629,797.867H316.3l-.326.163a11.332,11.332,0,0,1-11.576,0h-.489a.94.94,0,0,0-.978.978,1.409,1.409,0,0,0,.489.978,12.289,12.289,0,0,0,6.685,1.956,11.9,11.9,0,0,0,6.685-1.956,1.179,1.179,0,0,0,.652-.978.824.824,0,0,0-.815-1.141Z" transform="translate(-164.311 -652.476)"/>
    <path id="路径_37" data-name="路径 37" class="cls-1" d="M160.307,140.988a3.371,3.371,0,0,0-1.63-2.283,2.732,2.732,0,0,0-1.793-.489,3.318,3.318,0,0,0-2.446.978l-3.1-1.793a6.934,6.934,0,0,0,.326-1.793,5.555,5.555,0,0,0-4.4-5.38V126.8a3.877,3.877,0,0,0,2.609-3.587,3.763,3.763,0,0,0-3.587-3.75,3.761,3.761,0,0,0-.978,7.337v3.587a5.586,5.586,0,0,0-4.4,5.38,6.934,6.934,0,0,0,.326,1.793l-3.1,1.793a3.6,3.6,0,0,0-2.446-.978,3.964,3.964,0,0,0-1.793.489,3.371,3.371,0,0,0-1.63,2.283,3.288,3.288,0,0,0,.326,2.772,3.572,3.572,0,0,0,3.261,1.793,3.964,3.964,0,0,0,1.793-.489,3.633,3.633,0,0,0,1.63-4.076l2.609-1.793a5.725,5.725,0,0,0,4.076,1.957,4.947,4.947,0,0,0,4.076-1.957l3.1,1.63a4.1,4.1,0,0,0,1.63,4.076,4.624,4.624,0,0,0,2.12.652h.489a3.283,3.283,0,0,0,2.609-1.793,4.715,4.715,0,0,0,.326-2.935Zm-4.891.163a2.536,2.536,0,0,1,1.3-.978h.163a1.2,1.2,0,0,1,.978.326,1.52,1.52,0,0,1,.326,2.12,1.663,1.663,0,0,1-1.3.815,1.568,1.568,0,0,1-1.793-1.3A2.317,2.317,0,0,1,155.415,141.152Zm-5.87-5.38a3.424,3.424,0,1,1-3.424-3.424A3.343,3.343,0,0,1,149.546,135.771Zm-3.424-10.761a1.63,1.63,0,1,1,0-3.261,1.753,1.753,0,0,1,1.63,1.63A1.634,1.634,0,0,1,146.122,125.01Zm-9.783,18.261c-.326.163-.489.326-.815.326a1.712,1.712,0,0,1-1.467-.815,1.732,1.732,0,0,1-.163-1.3c.163-.489.326-.815.815-.978a1.47,1.47,0,0,1,.815-.163,1.712,1.712,0,0,1,1.467.815,1.732,1.732,0,0,1,.163,1.3A1.964,1.964,0,0,1,136.339,143.271Z"/>
    <path id="路径_38" data-name="路径 38" class="cls-1" d="M168.246,233.382a11.713,11.713,0,0,1,5.87,10.109v.163c0,.326,0,.489.163.652a3.564,3.564,0,0,0,.815.489h.163q.734,0,.978-.978v-.326a13.5,13.5,0,0,0-6.848-11.739.6.6,0,0,0-.489-.163h-.326a.874.874,0,0,0-.652.489,1.47,1.47,0,0,0-.163.815.521.521,0,0,0,.489.489Zm-17.772,11.25a.847.847,0,0,0,.652-.326,1.236,1.236,0,0,0,.326-.652v-.163a11.451,11.451,0,0,1,5.87-9.946c.163-.163.489-.326.489-.652a1.47,1.47,0,0,0-.163-.815c-.163-.326-.326-.489-.652-.489a.74.74,0,0,0-.815,0,13.761,13.761,0,0,0-6.848,11.9v.489A1.373,1.373,0,0,0,150.475,244.632Z" transform="translate(-16.581 -107.72)"/>
  </g>
</svg>
