<svg xmlns="http://www.w3.org/2000/svg" width="16.659" height="16.111" viewBox="0 0 16.659 16.111">
  <defs>
    <style>
      .cls-1 {
        fill: #2e4ea1;
      }
    </style>
  </defs>
  <g id="审核_笔记_记事本_写字" data-name="审核 笔记 记事本 写字" transform="translate(-41.833 -57.307)">
    <path id="路径_5" data-name="路径 5" class="cls-1" d="M288,86.346v.009a.13.13,0,0,1-.011.027l-.007.009a.092.092,0,0,0-.013.02L287.12,89.5a.455.455,0,0,0,.447.58.42.42,0,0,0,.12-.016l3.11-.837h.014a.05.05,0,0,0,.031-.019l8.218-8.218a1.259,1.259,0,0,0,.357-.895,1.535,1.535,0,0,0-.46-1.078l-.777-.777a1.55,1.55,0,0,0-1.082-.46,1.263,1.263,0,0,0-.895.357Zm8.076-6.647.849-.849a.456.456,0,0,1,.613.036l.777.777a.492.492,0,0,1,.146.339.386.386,0,0,1-.107.27l-.865.862ZM289.3,86.474l6.026-6.025,1.414,1.439-6.02,6.014Zm-1.082,2.5.488-1.79,1.3,1.3Z" transform="translate(-240.925 -20.113)"/>
    <path id="路径_6" data-name="路径 6" class="cls-1" d="M57.9,63.442a.5.5,0,0,0-.5.505v7.665a.792.792,0,0,1-.793.792H43.636a.792.792,0,0,1-.793-.792V59.1a.794.794,0,0,1,.793-.792h8.35a.5.5,0,0,0,0-1h-8.44a1.714,1.714,0,0,0-1.713,1.713V71.7a1.714,1.714,0,0,0,1.713,1.713H56.684A1.714,1.714,0,0,0,58.4,71.7V63.943a.5.5,0,0,0-.5-.5Z"/>
  </g>
</svg>
