<svg xmlns="http://www.w3.org/2000/svg" width="33.231" height="38.632" viewBox="0 0 33.231 38.632">
  <defs>
    <style>
      .cls-1 {
        fill: #2e4ea1;
      }
    </style>
  </defs>
  <path id="部门_1_" data-name="部门 (1)" class="cls-1" d="M134.344,44.687H124.156V37.345a.867.867,0,0,0-.865-.865H102.838a.867.867,0,0,0-.865.865v36.9a.867.867,0,0,0,.865.865h21.3v0h10.2a.867.867,0,0,0,.865-.865V45.552a.861.861,0,0,0-.861-.865ZM118.6,63.545a.52.52,0,0,1-.519.519H108.044a.52.52,0,0,1-.519-.519V59.039a.52.52,0,0,1,.519-.519h10.032a.52.52,0,0,1,.519.519v4.506Zm0-8.311a.52.52,0,0,1-.519.519H108.044a.52.52,0,0,1-.519-.519V50.728a.52.52,0,0,1,.519-.519h10.032a.52.52,0,0,1,.519.519v4.506Zm0-8.3a.52.52,0,0,1-.519.519H108.044a.52.52,0,0,1-.519-.519V42.43a.52.52,0,0,1,.519-.519h10.032a.52.52,0,0,1,.519.519v4.506Zm13.837,16.6a.52.52,0,0,1-.519.519h-4.488a.52.52,0,0,1-.519-.519V59.047a.52.52,0,0,1,.519-.519h4.488a.52.52,0,0,1,.519.519v4.488Zm0-8.32a.52.52,0,0,1-.519.519h-4.488a.52.52,0,0,1-.519-.519V50.728a.52.52,0,0,1,.519-.519h4.488a.52.52,0,0,1,.519.519Z" transform="translate(-101.973 -36.48)"/>
</svg>
