<svg xmlns="http://www.w3.org/2000/svg" width="25.928" height="25.892" viewBox="0 0 25.928 25.892">
  <defs>
    <style>
      .cls-1 {
        fill: #fff;
      }
    </style>
  </defs>
  <g id="上_传" data-name="上 传" transform="translate(-9.589 -6.371)">
    <path id="路径_56" data-name="路径 56" class="cls-1" d="M29.242,8.2A12.988,12.988,0,1,0,15.888,30.48a9.988,9.988,0,0,0,1.247.623.9.9,0,0,0,.385.1.882.882,0,0,0,.813-.531.808.808,0,0,0,0-.672.867.867,0,0,0-.487-.526c-.385-.195-.721-.385-1.057-.575a11.172,11.172,0,0,1-5.075-6.872,10.953,10.953,0,0,1,1.247-8.4v-.049a11.25,11.25,0,0,1,9.555-5.357,10.919,10.919,0,0,1,5.718,1.563,11.314,11.314,0,0,1,4.607,13.783,15.585,15.585,0,0,1-.765,1.539,11.08,11.08,0,0,1-4.948,4.417.906.906,0,0,0-.433,1.2.9.9,0,0,0,.818.531,1.149,1.149,0,0,0,.385-.1A12.985,12.985,0,0,0,29.242,8.2Z"/>
    <path id="路径_57" data-name="路径 57" class="cls-1" d="M353.349,272.523a1,1,0,0,0-.862.526.945.945,0,0,0,0,1.008,1.071,1.071,0,0,0,.862.487,1.023,1.023,0,0,0,.867-.531.974.974,0,0,0,0-1.008A1.081,1.081,0,0,0,353.349,272.523Zm3.94-13.257-3.122-3.7a.76.76,0,0,0-.385-.385.809.809,0,0,0-.487-.146.906.906,0,0,0-.487.146c-.146.1-.292.19-.336.336l-3.171,3.794a.9.9,0,0,0-.146.911.911.911,0,0,0,.721.58h.195a1.037,1.037,0,0,0,.721-.336l1.583-1.948v8.766a.974.974,0,0,0,.487.813.794.794,0,0,0,.487.146,1,1,0,0,0,.974-.974v-8.766l1.588,1.875a1.018,1.018,0,0,0,.721.336h.141a.94.94,0,0,0,.721-.623A.838.838,0,0,0,357.289,259.266Z" transform="translate(-330.785 -242.281)"/>
  </g>
</svg>
