<svg xmlns="http://www.w3.org/2000/svg" width="20" height="17.927" viewBox="0 0 20 17.927">
  <defs>
    <style>
      .cls-1 {
        fill: #fff;
      }
    </style>
  </defs>
  <g id="导入" transform="translate(-63.2 -109.736)">
    <path id="路径_27" data-name="路径 27" class="cls-1" d="M264.779,117.86a.78.78,0,0,0-1.435.611l2.019,4.751a.779.779,0,0,0,1.023.412l5.114-2.173a.78.78,0,1,0-.611-1.435l-3.394,1.442c1.442-3.481,4.842-8.573,10.453-10.2a.781.781,0,1,0-.435-1.5,15.279,15.279,0,0,0-4.55,2.208,18.409,18.409,0,0,0-3.481,3.227,22.022,22.022,0,0,0-3.43,5.66Z" transform="translate(-195.622 0)"/>
    <path id="路径_28" data-name="路径 28" class="cls-1" d="M82.422,224.384a.781.781,0,0,0-.78.78v6.2H64.76V218.96h5.994a.78.78,0,1,0,0-1.56H63.98a.781.781,0,0,0-.78.78v13.968a.781.781,0,0,0,.78.78H82.42a.781.781,0,0,0,.78-.78v-6.984A.777.777,0,0,0,82.422,224.384Z" transform="translate(0 -105.265)"/>
  </g>
</svg>
