<svg xmlns="http://www.w3.org/2000/svg" width="26.688" height="30.5" viewBox="0 0 26.688 30.5">
  <defs>
    <style>
      .cls-1 {
        fill: #1f3365;
      }
    </style>
  </defs>
  <g id="权限" transform="translate(-170.509 -116.513)">
    <path id="路径_59" data-name="路径 59" class="cls-1" d="M196.881,120.333a.955.955,0,0,0-.737-.24c-.072.009-7.427.714-11.633-3.315a.954.954,0,0,0-1.324,0c-4.141,4.022-11.553,3.317-11.628,3.309a.952.952,0,0,0-1.05.947v7.149c0,15.466,12.989,18.766,13.121,18.8a.928.928,0,0,0,.446,0c.132-.031,13.121-3.333,13.121-18.8v-7.148A.951.951,0,0,0,196.881,120.333Zm-1.591,7.856c0,13.024-9.776,16.4-11.438,16.884-1.666-.481-11.438-3.864-11.438-16.884v-6.14c2.257.066,7.631-.159,11.441-3.308,3.846,3.145,9.19,3.367,11.434,3.308Z" transform="translate(0 0)"/>
    <path id="路径_60" data-name="路径 60" class="cls-1" d="M390.485,285.211a4.945,4.945,0,1,0-5.6,4.878v5.786a.953.953,0,0,0,1.906,0v-1.906H388.7a.953.953,0,0,0,0-1.906H386.79v-2.086a4.94,4.94,0,0,0,3.694-4.765Zm-7.982,0a3.039,3.039,0,1,1,3.038,3.039A3.042,3.042,0,0,1,382.5,285.211Z" transform="translate(-201.985 -157.439)"/>
  </g>
</svg>
