<svg xmlns="http://www.w3.org/2000/svg" width="27.214" height="27.211" viewBox="0 0 27.214 27.211">
  <defs>
    <style>
      .cls-1 {
        fill: #fff;
      }
    </style>
  </defs>
  <g id="目录管理" transform="translate(-65 -64.9)">
    <path id="路径_3" data-name="路径 3"  d="M78.607,64.9A13.606,13.606,0,1,0,92.214,78.5,13.6,13.6,0,0,0,78.607,64.9Zm0,23.81A10.206,10.206,0,1,1,88.813,78.5,10.218,10.218,0,0,1,78.607,88.71Z"/>
    <path id="路径_4" data-name="路径 4"  d="M306.5,311.4h3.115v3.4H306.5Zm4.322,0h8.212v3.4h-8.212Zm-4.322-4.7h3.115v3.4H306.5Zm4.322,0h8.212v3.4h-8.212ZM306.5,302h3.115v3.4H306.5Zm4.322,0h8.212v3.4h-8.212Z" transform="translate(-234.16 -229.894)"/>
  </g>
</svg>
