<svg xmlns="http://www.w3.org/2000/svg" width="26.02" height="26.02" viewBox="0 0 26.02 26.02">
  <defs>
    <style>
      .cls-1 {
        fill: #fff;
      }
    </style>
  </defs>
  <path id="知识目录编辑"  d="M25.647,3.976l-2.7,2.693-3.6-3.591,2.7-2.693a1.276,1.276,0,0,1,1.8,0l1.8,1.8a1.266,1.266,0,0,1,0,1.794ZM6.74,15.643l3.6,3.591-4.8,1.2ZM22.047,7.568l-10.8,10.769-3.6-3.591,10.8-10.769ZM2.558,3.889V23.481h19.61V12.237L24.727,9.68V24.756a1.279,1.279,0,0,1-1.278,1.278H1.28A1.279,1.279,0,0,1,0,24.756V2.608A1.279,1.279,0,0,1,1.28,1.326H16.444L13.886,3.882H2.558Z" transform="translate(0 -0.014)"/>
</svg>
