<?xml version="1.0" standalone="no"?><!DOCTYPE svg PUBLIC "-//W3C//DTD SVG 1.1//EN" "http://www.w3.org/Graphics/SVG/1.1/DTD/svg11.dtd"><svg t="1591005125497" class="icon" viewBox="0 0 1024 1024" version="1.1" xmlns="http://www.w3.org/2000/svg" p-id="5743" width="128" height="128" xmlns:xlink="http://www.w3.org/1999/xlink"><defs><style type="text/css"></style></defs><path d="M581.290667 0a42.666667 42.666667 0 0 1 28.117333 10.538667l314.709333 275.370666a42.666667 42.666667 0 0 1 14.549334 32.128V469.333333a85.333333 85.333333 0 0 1 85.333333 85.333334v213.333333a85.333333 85.333333 0 0 1-85.333333 85.333333v42.666667a128 128 0 0 1-120.490667 127.786667L810.666667 1024H213.333333a128 128 0 0 1-127.786666-120.490667L85.333333 896v-42.666667a85.333333 85.333333 0 0 1-85.333333-85.333333v-213.333333a85.333333 85.333333 0 0 1 85.333333-85.333334V128A128 128 0 0 1 205.824 0.213333L213.333333 0h367.957334zM853.333333 853.333333H170.666667v42.666667a42.666667 42.666667 0 0 0 37.674666 42.368L213.333333 938.666667h597.333334a42.666667 42.666667 0 0 0 42.368-37.674667L853.333333 896v-42.666667z m-338.432-316.842666h-100.266666V810.666667h100.266666c44.501333 0 77.952-12.288 100.992-36.864 21.845333-23.424 33.024-56.832 33.024-100.224 0-43.776-11.136-77.184-33.024-100.224-23.04-24.576-56.490667-36.864-100.992-36.864z m338.432 0h-162.218666V810.666667h44.928v-121.344H853.333333v-38.4h-117.248v-76.032H853.333333v-38.4z m-576.512 0H170.666667V810.666667h37.418666v-105.216H276.053333c66.816 0 100.224-28.416 100.224-84.864 0-56.064-33.450667-84.096-99.498666-84.096z m229.589334 38.4c34.218667 0 59.136 7.68 74.88 23.424 15.36 15.36 23.04 40.704 23.04 75.264 0 33.792-7.68 58.752-23.04 74.88-15.744 15.744-40.704 23.808-74.88 23.808h-46.848v-197.376h46.848z m-233.045334 0c19.541333 0 34.133333 3.456 43.349334 10.752 9.216 6.912 14.208 18.432 14.208 34.944 0 16.512-4.565333 28.416-13.824 35.712-9.216 6.912-23.808 10.752-43.776 10.752h-65.28v-92.16h65.28zM512 85.333333H213.333333a42.666667 42.666667 0 0 0-42.368 37.674667L170.666667 128v341.333333h682.666666V384h-213.333333a128 128 0 0 1-127.146667-113.066667l-0.64-7.424L512 256V85.333333z m85.333333 18.474667V256a42.666667 42.666667 0 0 0 37.674667 42.368L640 298.666667h167.338667L597.333333 103.808z" fill="#CA0607" p-id="5744"></path></svg>