<svg xmlns="http://www.w3.org/2000/svg" width="27.619" height="29" viewBox="0 0 27.619 29">
  <defs>
    <style>
      .cls-1 {
        fill: #1f3365;
      }
    </style>
  </defs>
  <g id="业务_" data-name="业务 " transform="translate(-192 -179.2)">
    <path id="路径_49" data-name="路径 49" class="cls-1" d="M194.762,596.912a1.05,1.05,0,0,0-1.05,1.049v5.524a1.049,1.049,0,0,0,1.05,1.049h22.1a1.049,1.049,0,0,0,1.05-1.049v-5.524a1.05,1.05,0,0,0-1.05-1.049h-5.446a5.858,5.858,0,0,1-11.2,0Zm6.9-1.712a4.143,4.143,0,0,0,8.286,0h6.9a2.762,2.762,0,0,1,2.762,2.762v5.524a2.762,2.762,0,0,1-2.762,2.762h-22.1A2.762,2.762,0,0,1,192,603.486v-5.524a2.762,2.762,0,0,1,2.762-2.762Z" transform="translate(0 -398.048)"/>
    <path id="路径_50" data-name="路径 50" class="cls-1" d="M323.692,198.533V181.962a1.01,1.01,0,0,0-.964-1.05H306.676a1.01,1.01,0,0,0-.963,1.05v16.571H304V181.962a2.719,2.719,0,0,1,2.676-2.762H322.73a2.719,2.719,0,0,1,2.675,2.762v16.571Zm0,0V181.962a1.01,1.01,0,0,0-.964-1.05H306.676a1.01,1.01,0,0,0-.963,1.05v16.571H304V181.962a2.719,2.719,0,0,1,2.676-2.762H322.73a2.719,2.719,0,0,1,2.675,2.762v16.571Z" transform="translate(-107.167)"/>
    <path id="路径_51" data-name="路径 51" class="cls-1" d="M384,307.2h13.81v1.712H384Z" transform="translate(-183.714 -122.476)"/>
    <path id="路径_52" data-name="路径 52" class="cls-1" d="M384,403.2h13.81v1.712H384Z" transform="translate(-183.714 -214.333)"/>
    <path id="路径_53" data-name="路径 53" class="cls-1" d="M228.272,246.377H226.56V232.43c0-2.185,1.4-3.374,3.825-3.374v1.712c-1.534,0-2.113.49-2.113,1.663v13.948Z" transform="translate(-33.069 -47.704)"/>
  </g>
</svg>
