<svg xmlns="http://www.w3.org/2000/svg" width="24.551" height="29.817" viewBox="0 0 24.551 29.817">
  <defs>
    <style>
      .cls-1 {
        fill: #1f3365;
      }
    </style>
  </defs>
  <g id="审核_2_" data-name="审核 (2)" transform="translate(-85.76 -1.024)">
    <path id="路径_45" data-name="路径 45" class="cls-1" d="M108.644,5.019h-4.557v.015h-1.346a4.862,4.862,0,0,0-9.574,0H91.8V5.019h-4.37A1.688,1.688,0,0,0,85.76,6.725V29.137a1.686,1.686,0,0,0,1.667,1.7h21.218a1.688,1.688,0,0,0,1.667-1.7V6.725a1.691,1.691,0,0,0-1.667-1.706ZM93.167,6.944h.958a1.447,1.447,0,0,0,.766-.381,1.145,1.145,0,0,0,.192-.764,2.872,2.872,0,0,1,5.743,0v.189a.7.7,0,0,0,.192.572,1.451,1.451,0,0,0,.766.383h.958V9.618H93.165V6.944ZM108.4,28.933H87.668v-22h3.584v3.642a.9.9,0,0,0,.958.955H103.7a.9.9,0,0,0,.958-.955V6.944h1.915V6.927H108.4V28.935Z" transform="translate(0 0)"/>
    <path id="路径_46" data-name="路径 46" class="cls-1" d="M326.14,515.608l-5.472,5.283-2.189-2.037a.928.928,0,0,0-1.338,0l-.03.03a.92.92,0,0,0,.03,1.308l3.062,2.863a.961.961,0,0,0,1.152,0l6.127-6.112a.947.947,0,1,0-1.343-1.336Z" transform="translate(-224.357 -499.304)"/>
  </g>
</svg>
