<svg xmlns="http://www.w3.org/2000/svg" width="23.245" height="21.238" viewBox="0 0 23.245 21.238">
  <defs>
    <style>
      .cls-1 {
        fill: #fff;
      }
    </style>
  </defs>
  <path id="日志" d="M13.667,60.475V58.031H9.738v2.444h3.929Zm8.851-14.82H17.433v-.733a.726.726,0,0,0-1.453,0v.733H7.264v-.733a.726.726,0,0,0-1.453,0v.733H.727A.73.73,0,0,0,0,46.388V64.711a.73.73,0,0,0,.727.733H22.518a.73.73,0,0,0,.727-.733V46.388a.73.73,0,0,0-.727-.733ZM14.495,61.908h-.829v-.615H9.738v.624H8.911V54.137h5.584v7.77Zm7.3-11.489a.365.365,0,0,1-.363.366H1.816a.365.365,0,0,1-.363-.366V47.487a.365.365,0,0,1,.363-.366h4v.733a.727.727,0,1,0,1.453.035q0-.018,0-.035V47.12h8.717v.733a.727.727,0,1,0,1.453.035q0-.018,0-.035V47.12h4a.365.365,0,0,1,.363.366v2.932Zm-8.125,6.8V54.946H9.738v2.268h3.929Z" transform="translate(0 -44.206)"/>
</svg>
