<svg xmlns="http://www.w3.org/2000/svg" width="27.463" height="27.461" viewBox="0 0 27.463 27.461">
  <defs>
    <style>
      .cls-1 {
        fill: #fff;
      }
    </style>
  </defs>
  <path id="首页-选中" d="M221.754,207.045a2.2,2.2,0,0,0-2.959,0l-11.966,11.362a1.1,1.1,0,1,0,1.478,1.64l.19-.181v11.858a2.208,2.208,0,0,0,2.208,2.21h6.424v-6.646a1.554,1.554,0,0,1,1.555-1.556h3.023a1.554,1.554,0,0,1,1.555,1.556v6.646h6.577a2.208,2.208,0,0,0,2.208-2.21V220.01a1.1,1.1,0,1,0,1.515-1.6l-11.809-11.361Z" transform="translate(-206.464 -206.473)"/>
</svg>
