<?xml version="1.0" standalone="no"?><!DOCTYPE svg PUBLIC "-//W3C//DTD SVG 1.1//EN" "http://www.w3.org/Graphics/SVG/1.1/DTD/svg11.dtd"><svg t="1592375193133" class="icon" viewBox="0 0 1024 1024" version="1.1" xmlns="http://www.w3.org/2000/svg" p-id="2970" width="40" height="40" xmlns:xlink="http://www.w3.org/1999/xlink"><defs><style type="text/css"></style></defs><path d="M429.62179 34.863813c5.976654 0 12.949416 1.992218 17.83035 5.080156 3.785214 2.490272 11.754086 8.964981 20.320623 15.738521 36.158755 29.086381 96.722179 77.696498 155.094163 91.442802 54.985214 13.447471 111.763424 15.439689 140.750195 15.439689 14.44358 0 24.803113-0.697276 28.787548-0.996109h4.183658c8.267704 0 15.937743 2.888716 21.715175 8.068482l0.099611 0.099611c5.57821 5.179767 9.164202 13.34786 9.164202 20.918288v160.672373c0 44.924514-2.490272 88.354864-7.271595 129.593775-19.224903-3.785214-38.748638-5.677821-58.371985-5.677821C593.880156 475.24358 457.214008 611.909728 457.214008 779.953307c0 66.141634 20.918288 128.896498 59.567315 180.992997-46.418677 21.615564-79.290272 27.293385-80.983658 27.492607l-1.394552 0.199221-0.796887 0.199222c-0.796887 0.099611-2.390661 0.099611-3.685603 0.099611-1.195331 0-2.789105 0-3.585993-0.099611l-0.697276-0.199222-1.195331-0.199221c-2.789105-0.498054-28.189883-5.279377-64.846692-20.719067-48.311284-20.320623-93.136187-49.108171-132.980545-85.565758C171.031907 831.950195 126.804669 768 95.128405 692.29572 55.184436 596.768872 34.863813 482.017121 34.863813 351.327626V190.655253c0-7.470817 3.486381-15.140856 9.164203-20.02179l0.498054-0.398444 0.498055-0.398443c6.076265-5.57821 12.949416-8.168093 21.814786-8.168094H70.026459c3.984436 0.298833 14.44358 0.996109 29.684047 0.996109 29.285603 0 86.661479-1.992218 141.746303-15.539299C292.557198 134.972763 352.024903 97.618677 413.385214 39.147082c5.677821-2.789105 11.256031-4.283268 16.236576-4.283269m0-34.863813c-12.550973 0-25.101946 3.884825-36.75642 10.658366-2.888716 1.992218-82.278599 84.171206-159.676265 102.599222-51.299611 12.550973-106.484047 14.543191-133.57821 14.54319-17.431907 0-28.090272-0.996109-28.98677-0.996109H66.7393c-17.431907 0-32.971206 5.777432-45.522179 17.431907C7.76965 155.891051 0 173.223346 0 190.655253v160.672373c0 592.385992 401.631128 668.787549 418.066926 671.676265 3.884825 0.996109 7.76965 0.996109 11.554864 0.996109 3.884825 0 7.76965 0 11.654475-0.996109 6.175875-0.996109 61.659144-11.455253 130.390661-51.399222-49.307393-48.908949-79.788327-116.644358-79.788327-191.551751 0-149.017899 120.828016-269.845914 269.845915-269.845914 30.680156 0 60.06537 5.179767 87.557976 14.543191 8.367315-52.29572 13.049027-109.870817 13.049028-173.422569V190.655253c0-17.431907-7.76965-34.863813-20.320623-46.418677-12.550973-11.654475-29.086381-17.431907-45.522179-17.431907h-4.880934c-0.996109 0-11.654475 0.996109-28.090272 0.996109-28.090272 0-81.28249-1.992218-132.582101-14.54319-65.842802-15.439689-142.343969-88.056031-164.557199-102.599222C455.819455 3.884825 442.272374 0 429.62179 0z" p-id="2971" fill="#5abd8c"></path><path d="M245.640467 266.558755l0.199222 0.398443 0.398443 0.697277 0.398444 0.697276c14.642802 25.101946 41.736965 40.641245 70.723735 40.641245s56.080934-15.5393 70.723736-40.641245l0.398443-0.697276 0.398444-0.697277 0.199222-0.398443c0.597665 0.199222 1.09572 0.498054 1.693385 0.697276h0.199222c0.597665 0.199222 1.09572 0.498054 1.693385 0.697276l-0.099611 0.498055-0.199222 0.796887-0.199222 0.796887c-7.371206 28.090272 0.796887 58.272374 21.316732 78.792218 15.439689 15.439689 36.059144 24.006226 57.87393 24.006226 7.072374 0 14.045136-0.896498 20.918288-2.689494l0.796887-0.199222 0.796887-0.199222 0.498055-0.099611c0.298833 0.597665 0.498054 1.195331 0.796887 1.792996 0.199222 0.597665 0.498054 1.195331 0.697276 1.792996l-0.498054 0.199222-0.697277 0.398444-0.697276 0.398443c-25.002335 14.642802-40.541634 41.736965-40.541634 70.723736 0 29.086381 15.5393 56.180545 40.641245 70.823346l0.099611 0.099611c0.298833 0.996109 0.597665 1.693385 0.896498 2.689494v0.099611c-0.199222 0.597665-0.498054 1.09572-0.697276 1.693385l-0.498055-0.199222-0.796887-0.298832-0.796887-0.199222c-6.773541-1.792996-13.845914-2.689494-20.818677-2.689494-21.914397 0-42.434241 8.566537-57.87393 24.006225-20.519844 20.519844-28.687938 50.701946-21.316732 78.792218l0.199222 0.796887 0.298833 0.796888 0.099611 0.398443c-0.597665 0.298833-1.195331 0.498054-1.792996 0.796887-0.597665 0.199222-1.195331 0.498054-1.792997 0.697277l-0.199221-0.498055-0.398444-0.796887-0.398444-0.697276c-14.642802-25.002335-41.736965-40.541634-70.723735-40.541634s-56.080934 15.5393-70.723735 40.641245l-0.398444 0.697276-0.398443 0.796887-0.199222 0.398444c-0.597665-0.199222-1.195331-0.498054-1.693385-0.697277h-0.199222c-0.597665-0.199222-1.09572-0.498054-1.693386-0.697276l0.199222-0.498054 0.298833-0.796888 0.199222-0.796887c7.371206-28.090272-0.796887-58.172763-21.316732-78.692607-15.439689-15.439689-36.059144-24.006226-57.87393-24.006225-7.072374 0-14.045136 0.896498-20.918288 2.689494l-0.796887 0.199222-0.796887 0.298832-0.398444 0.099611c-0.298833-0.597665-0.498054-1.195331-0.796887-1.792996-0.199222-0.597665-0.498054-1.195331-0.697276-1.792996l0.498054-0.199222 0.697277-0.398443 0.697276-0.398444c25.002335-14.642802 40.641245-41.736965 40.641245-70.723735s-15.5393-56.080934-40.641245-70.723736l-0.697276-0.398443-0.697277-0.398444-0.398443-0.199222c0.199222-0.597665 0.498054-1.195331 0.697276-1.693385v-0.199222c0.199222-0.597665 0.498054-1.09572 0.697276-1.693385l0.398444 0.099611 0.896498 0.298833 0.896498 0.199221c6.773541 1.792996 13.746304 2.689494 20.719066 2.689495 21.914397 0 42.533852-8.566537 57.87393-24.006226 20.519844-20.519844 28.687938-50.701946 21.316732-78.692607l-0.199222-0.796887-0.199222-0.796887-0.199222-0.498055c0.597665-0.298833 1.195331-0.498054 1.792997-0.796887 0.298833-0.398444 0.896498-0.697276 1.494163-0.896498m4.48249-37.652918c-1.294942 0-2.689494 0.099611-3.984436 0.298832-5.279377 1.693385-10.459144 3.685603-15.63891 5.777432-5.179767 2.19144-10.259922 4.48249-15.140856 6.972763-8.367315 5.976654-12.550973 17.232685-9.363424 27.293385l2.988327 9.662257c4.084047 15.638911 0 32.971206-12.25214 45.223346-9.164202 9.164202-21.217121 13.746304-33.270039 13.746304-3.984436 0-8.068482-0.498054-11.953308-1.494164l-9.662257-3.087938c-2.291051-0.697276-4.582101-1.09572-6.972762-1.095719-7.968872 0-15.738521 3.984436-20.320623 10.459144-2.490272 4.980545-4.781323 10.0607-6.972762 15.140856-2.19144 5.179767-4.084047 10.459144-5.777432 15.63891-1.693385 10.160311 3.28716 21.11751 12.650583 25.898833l8.964981 4.681712c13.945525 8.168093 23.40856 23.308949 23.40856 40.641245S137.463035 477.136187 123.51751 485.30428l-8.964981 4.681712c-9.363424 4.880934-14.343969 15.738521-12.650583 25.898833 1.693385 5.279377 3.685603 10.459144 5.777431 15.63891 2.19144 5.179767 4.48249 10.259922 6.972763 15.240467 4.582101 6.474708 12.451362 10.459144 20.320623 10.459144 2.291051 0 4.681712-0.298833 6.972762-1.09572l9.562646-2.988326c3.984436-0.996109 7.968872-1.593774 12.052918-1.593775 12.052918 0 24.105837 4.582101 33.270039 13.746304 12.25214 12.25214 16.336187 29.584436 12.25214 45.223346l-3.087937 9.662257c-3.087938 10.0607 0.996109 21.316732 9.363424 27.293385 4.980545 2.490272 9.961089 4.781323 15.140856 6.972763s10.459144 4.084047 15.63891 5.777432c1.294942 0.199222 2.589883 0.298833 3.984436 0.298832 8.86537 0 17.730739-4.880934 21.914397-12.949416l4.681712-8.964981c8.168093-13.945525 23.308949-23.40856 40.641245-23.40856s32.473152 9.363424 40.641245 23.30895l4.681712 8.96498c4.283268 8.068482 13.049027 12.949416 21.914397 12.949416 1.294942 0 2.689494-0.099611 3.984436-0.298832 5.279377-1.693385 10.459144-3.685603 15.638911-5.777432 5.179767-2.19144 10.259922-4.48249 15.140856-6.972763 8.367315-5.976654 12.550973-17.232685 9.363424-27.293385l-2.988327-9.562646c-4.084047-15.638911-0.099611-33.070817 12.25214-45.322957 9.164202-9.164202 21.217121-13.746304 33.170428-13.746304 3.984436 0 8.068482 0.498054 11.953307 1.593775l9.662257 3.087937c2.291051 0.697276 4.582101 1.09572 6.873152 1.09572 7.968872 0 15.738521-3.984436 20.420233-10.459144 2.490272-4.880934 4.781323-9.961089 6.972763-15.240467 2.19144-5.179767 4.084047-10.359533 5.777432-15.63891 1.693385-10.160311-3.28716-21.11751-12.650584-25.898833l-8.96498-4.681712c-13.945525-8.168093-23.40856-23.308949-23.30895-40.641245 0-17.332296 9.363424-32.473152 23.30895-40.641245l8.96498-4.681712c9.363424-4.880934 14.343969-15.738521 12.650584-25.898833-1.693385-5.279377-3.685603-10.459144-5.777432-15.63891-2.19144-5.179767-4.48249-10.259922-6.972763-15.140856-4.582101-6.474708-12.451362-10.459144-20.320622-10.459144-2.291051 0-4.681712 0.298833-6.972763 1.095719l-9.662257 2.988327c-3.984436 0.996109-7.968872 1.593774-12.052918 1.593775-12.052918 0-24.105837-4.582101-33.270039-13.746304-12.25214-12.25214-16.336187-29.584436-12.25214-45.223346l2.988327-9.662257c3.187549-10.0607-0.996109-21.316732-9.363424-27.293385-4.980545-2.490272-9.961089-4.781323-15.140856-6.972763s-10.459144-4.084047-15.638911-5.777432c-1.294942-0.199222-2.589883-0.298833-3.984435-0.298832-8.86537 0-17.730739 4.880934-21.914397 12.949416l-4.681712 8.96498c-8.168093 13.945525-23.308949 23.40856-40.641246 23.408561s-32.473152-9.363424-40.641245-23.408561l-4.681712-8.96498c-3.984436-8.068482-12.750195-12.949416-21.715175-12.949416zM778.957198 1020.513619c-64.54786 0-125.210895-25.101946-170.832684-70.723736s-70.723735-106.284825-70.723736-170.832685 25.101946-125.210895 70.723736-170.832684 106.284825-70.723735 170.832684-70.723736 125.210895 25.101946 170.832685 70.723736 70.723735 106.284825 70.723736 170.832684-25.101946 125.210895-70.723736 170.832685-106.284825 70.723735-170.832685 70.723736z m0-448.249028c-113.954864 0-206.692607 92.737743-206.692607 206.692607S665.002335 985.649805 778.957198 985.649805 985.649805 892.912062 985.649805 778.957198 892.912062 572.264591 778.957198 572.264591z" p-id="2972" fill="#5abd8c"></path><path d="M729.649805 873.288716c-13.34786 0-26.795331-5.080156-36.955642-15.340078L647.570428 812.824903c-6.773541-6.773541-6.773541-17.83035 0-24.603891 6.773541-6.773541 17.83035-6.773541 24.603891 0l45.123735 45.123735c3.28716 3.28716 7.670039 5.080156 12.351751 5.080156s9.064591-1.792996 12.351751-5.080156l143.638911-143.738521c6.773541-6.773541 17.83035-6.773541 24.603891 0 6.773541 6.773541 6.773541 17.83035 0 24.603891L766.705058 858.048249c-10.259922 10.160311-23.607782 15.240467-37.055253 15.240467zM317.459922 370.154086c41.238911 0 74.708171 33.469261 74.708171 74.708171s-33.469261 74.708171-74.708171 74.708171-74.708171-33.469261-74.708171-74.708171 33.469261-74.708171 74.708171-74.708171m0-34.863814c-60.563424 0-109.571984 49.00856-109.571984 109.571985s49.00856 109.571984 109.571984 109.571984 109.571984-49.00856 109.571985-109.571984-49.108171-109.571984-109.571985-109.571985z" p-id="2973" fill="#5abd8c"></path></svg>