<?xml version="1.0" standalone="no"?><!DOCTYPE svg PUBLIC "-//W3C//DTD SVG 1.1//EN" "http://www.w3.org/Graphics/SVG/1.1/DTD/svg11.dtd"><svg t="1590469419136" class="icon" viewBox="0 0 1024 1024" version="1.1" xmlns="http://www.w3.org/2000/svg" p-id="1543" width="50" height="50" xmlns:xlink="http://www.w3.org/1999/xlink"><defs><style type="text/css"></style></defs><path d="M887.643614 285.973343l-0.066213-43.556023-35.845235-44.440868 0 0.758438L695.487874 3.24443c-0.716303-0.890864-1.559012-1.468722-2.41376-2.004444L692.050825 0 207.414824 0.710283c-39.517039 0.060194-71.49785 39.944413-71.425618 89.086394l1.233967 845.327546c0.072232 49.141981 32.167411 88.93591 71.690469 88.875716l608.249391-0.890864c39.517039-0.060194 71.49785-39.944413 71.425618-89.086394l-0.945038-645.117915M690.527929 60.133316l147.35973 184.354661-111.309837 0.162522c-19.74949 0.030097-35.809119-19.881916-35.845235-44.440868L690.527929 60.133316 690.527929 60.133316zM852.815649 934.076856c0.036116 24.558952-15.963319 44.5131-35.712809 44.543197l-608.25541 0.890864c-19.74949 0.030097-35.809119-19.881916-35.845235-44.440868L171.768228 89.742503c-0.036116-24.558952 15.963319-44.5131 35.712809-44.543197L654.72483 44.543197l0.228735 155.714589c0.072232 49.141981 32.167411 88.93591 71.690469 88.875716l125.226577-0.180581L852.815649 934.076856 852.815649 934.076856z" p-id="1544"></path><path d="M275.969212 207.17402l251.362075 0c6.934292 0 12.568405-3.24443 12.568405-7.241279l0-14.488578c0-4.002868-5.634112-7.247299-12.568405-7.247299L275.969212 178.196865c-6.940312 0-12.568405 3.24443-12.568405 7.247299l0 14.488578C263.400807 203.92959 269.0289 207.17402 275.969212 207.17402L275.969212 207.17402z" p-id="1545"></path><path d="M275.969212 279.60487l251.362075 0c6.934292 0 12.568405-3.24443 12.568405-7.241279l0-14.488578c0-3.996849-5.634112-7.247299-12.568405-7.247299L275.969212 250.627714c-6.940312 0-12.568405 3.24443-12.568405 7.247299l0 14.488578C263.400807 276.360439 269.0289 279.60487 275.969212 279.60487L275.969212 279.60487z" p-id="1546"></path><path d="M275.969212 352.041739l251.362075 0c6.934292 0 12.568405-3.24443 12.568405-7.247299l0-14.488578c0-3.996849-5.634112-7.241279-12.568405-7.241279L275.969212 323.064583c-6.940312 0-12.568405 3.24443-12.568405 7.241279l0 14.488578C263.400807 348.791289 269.0289 352.041739 275.969212 352.041739L275.969212 352.041739z" p-id="1547"></path><path d="M263.400807 446.196426l0 14.488578c0 4.002868 4.45432 7.247299 9.949987 7.247299l497.378967 0c5.495667 0 9.949987-3.24443 9.949987-7.247299l0-14.488578c0-3.996849-4.45432-7.241279-9.949987-7.241279l-497.378967 0C267.855127 438.961166 263.400807 442.199577 263.400807 446.196426L263.400807 446.196426z" p-id="1548"></path><path d="M770.729761 525.874574l-497.378967 0c-5.495667 0-9.949987 3.24443-9.949987 7.241279l0 14.488578c0 3.996849 4.45432 7.241279 9.949987 7.241279l497.378967 0c5.495667 0 9.949987-3.24443 9.949987-7.241279l0-14.488578C780.673728 529.119004 776.219409 525.874574 770.729761 525.874574L770.729761 525.874574z" p-id="1549"></path><path d="M171.768228 645.840238l681.047421 0 0 39.119762-681.047421 0 0-39.119762Z" p-id="1550"></path><path d="M268.047746 750.05326 404.073038 750.05326l0 35.760964-45.638719 0 0 109.0586-44.753874 0 0-109.0586-45.638719 0L268.041727 750.05326z" p-id="1551"></path><path d="M424.562909 750.05326l49.292465 0 25.636416 44.549216 24.95021-44.549216 48.792859 0-45.0729 70.137477 49.322561 74.682087-50.285658 0-28.597936-46.523563-28.597936 46.523563-49.990709 0 49.960613-75.470622L424.562909 750.05326z" p-id="1552"></path><path d="M591.75038 750.05326l136.031311 0 0 35.760964-45.638719 0 0 109.0586-44.753874 0 0-109.0586-45.638719 0L591.75038 750.05326z" p-id="1553"></path></svg>