<svg xmlns="http://www.w3.org/2000/svg" width="25.145" height="22.949" viewBox="0 0 25.145 22.949">
  <defs>
    <style>
      .cls-1 {
        fill: #fff;
      }
    </style>
  </defs>
  <path id="电脑"  d="M134.172,165.543H127.7v2.869h1.433a.718.718,0,1,1,0,1.436h-8.6a.717.717,0,1,1,0-1.433h1.433v-2.869h-7.191a2.87,2.87,0,0,1-2.869-2.869v-12.91a2.868,2.868,0,0,1,2.869-2.866h19.406a2.87,2.87,0,0,1,2.869,2.866v12.907A2.875,2.875,0,0,1,134.172,165.543Zm-20.839-4.3v1.436a1.432,1.432,0,0,0,1.433,1.433h19.406a1.437,1.437,0,0,0,1.436-1.433V161.24Zm0,0" transform="translate(-111.9 -146.9)"/>
</svg>
