<svg xmlns="http://www.w3.org/2000/svg" width="24.833" height="22.842" viewBox="0 0 24.833 22.842">
  <defs>
    <style>
      .cls-1 {
        fill: #fff;
      }
    </style>
  </defs>
  <path id="业务_2_" data-name="业务 (2)"  d="M89.236,106.752H84.322v-.708a1.544,1.544,0,0,0-1.544-1.544H74.253a1.544,1.544,0,0,0-1.544,1.544v.708H67.794a1.692,1.692,0,0,0-1.691,1.691v2.377a48.848,48.848,0,0,0,12.415,1.405,48.864,48.864,0,0,0,12.415-1.405v-2.377A1.7,1.7,0,0,0,89.236,106.752ZM66.1,112.575v13.076a1.691,1.691,0,0,0,1.691,1.691H89.236a1.692,1.692,0,0,0,1.691-1.691V112.575a52.488,52.488,0,0,1-12.415,1.344A52.608,52.608,0,0,1,66.1,112.575Zm16.353,5.554a1.128,1.128,0,0,1-1.127,1.127H75.708a1.127,1.127,0,0,1,0-2.255h5.615A1.129,1.129,0,0,1,82.453,118.129Z" transform="translate(-66.1 -104.5)"/>
</svg>
