<svg xmlns="http://www.w3.org/2000/svg" width="24.533" height="25.694" viewBox="0 0 24.533 25.694">
  <defs>
    <style>
      .cls-1 {
        fill: #fff;
      }
    </style>
  </defs>
  <path id="应用"  d="M200.811,123.14a1.747,1.747,0,0,1,1.258.508,1.668,1.668,0,0,1,.522,1.244v7.06a1.783,1.783,0,0,1-1.78,1.78h-7.06a1.673,1.673,0,0,1-1.244-.522,1.747,1.747,0,0,1-.508-1.258v-7.06a1.733,1.733,0,0,1,1.751-1.751Zm0,13.362a1.747,1.747,0,0,1,1.258.508,1.668,1.668,0,0,1,.522,1.244v7.089a1.673,1.673,0,0,1-.522,1.244,1.747,1.747,0,0,1-1.258.508h-7.06A1.733,1.733,0,0,1,192,145.342v-7.089a1.733,1.733,0,0,1,1.751-1.751Zm13.391,0a1.733,1.733,0,0,1,1.751,1.751v7.089a1.7,1.7,0,0,1-.508,1.244,1.682,1.682,0,0,1-1.244.508h-7.06a1.747,1.747,0,0,1-1.258-.508,1.668,1.668,0,0,1-.522-1.244v-7.089a1.673,1.673,0,0,1,.522-1.244,1.747,1.747,0,0,1,1.258-.508Zm1.824-9.9a1.635,1.635,0,0,1,.508,1.193,1.557,1.557,0,0,1-.508,1.168l-4.721,4.725a1.63,1.63,0,0,1-2.364,0l-4.721-4.725a1.587,1.587,0,0,1-.482-1.168,1.669,1.669,0,0,1,.482-1.193l4.725-4.725a1.69,1.69,0,0,1,2.364,0Z" transform="translate(-192 -121.4)"/>
</svg>
