<svg xmlns="http://www.w3.org/2000/svg" width="27.045" height="16.905" viewBox="0 0 27.045 16.905">
  <defs>
    <style>
      .cls-1 {
        fill: #fff;
      }
    </style>
  </defs>
  <path id="部门"  d="M13.523,221.8c2.485-.219,4.337-2.053,4.218-4.179v-.661c.07-1.943-1.72-3.566-4-3.626q-.11,0-.22,0c-2.28-.044-4.169,1.5-4.221,3.44q0,.093,0,.187v.661c-.119,2.126,1.734,3.962,4.22,4.179Zm-8.438.752a2.656,2.656,0,0,0,2.523-2.258v-1.2a2.3,2.3,0,0,0-2.318-2.341,2.454,2.454,0,0,0-2.748,1.976,1.934,1.934,0,0,0,0,.365v1.121a2.66,2.66,0,0,0,2.543,2.336Zm15.181,2.813a2.33,2.33,0,0,0-.09-.384,2.242,2.242,0,0,0-.487-.892,5.308,5.308,0,0,0-1.8-1.276,2.276,2.276,0,0,0-.992-.262c-.469,0-.865.308-1.551.83l-.63.477s-.7.815-1.19.815-1.172-.784-1.19-.815l-.631-.538a2.614,2.614,0,0,0-1.55-.769,1.994,1.994,0,0,0-.974.323,6.2,6.2,0,0,0-1.8,1.277,2.233,2.233,0,0,0-.54,1.168,3.289,3.289,0,0,0,0,.43v3.074c0,1,.449,1.413,1.694,1.413H18.661c1.244,0,1.695-.384,1.695-1.413v-3.074a3.365,3.365,0,0,0-.108-.445l.018.061Zm1.8-2.812a2.658,2.658,0,0,0,2.523-2.26v-1.2a2.3,2.3,0,0,0-2.318-2.341,2.453,2.453,0,0,0-2.747,1.976,1.934,1.934,0,0,0,0,.365v1.121a2.638,2.638,0,0,0,2.452,2.336h.09ZM2.02,224.088A3.1,3.1,0,0,0,0,226.715v1.414c0,1.03.415,1.414,1.694,1.414H5.067V225.3l-.847-.707c-.884-.645-1.641-.907-2.291-.584l.091.077Zm25.025,2.627a3.055,3.055,0,0,0-1.929-2.7c-.649-.306-1.406,0-2.308.6l-.847.707v4.225h3.372c1.279,0,1.694-.384,1.694-1.414.018-.015.018-1.4.018-1.413Z" transform="translate(0 -213.33)"/>
</svg>
