<?xml version="1.0" standalone="no"?><!DOCTYPE svg PUBLIC "-//W3C//DTD SVG 1.1//EN" "http://www.w3.org/Graphics/SVG/1.1/DTD/svg11.dtd"><svg t="1645435526556" class="icon" viewBox="0 0 1024 1024" version="1.1" xmlns="http://www.w3.org/2000/svg" p-id="6039" xmlns:xlink="http://www.w3.org/1999/xlink" width="20" height="20"><defs><style type="text/css"></style></defs><path d="M556.703 947.942c-1.749 0-3.462-0.182-5.101-0.401-15.959-2.186-28.676-14.921-30.935-30.971l-50.866-362.44-362.403-50.884c-16.032-2.186-28.785-14.921-31.044-30.953-2.259-15.978 6.486-31.7 21.279-38.295L896.77 79.155c4.7-2.04 9.619-3.097 14.648-3.097 9.874 0 19.057 3.771 25.87 10.585 10.64 10.549 13.7 26.836 7.615 40.518l-354.86 799.137c-5.903 13.136-18.984 21.644-33.34 21.644zM243.381 448.918l263.695 36.984c16.032 2.241 28.749 14.994 30.971 31.008l37.093 263.658 264.824-596.602-596.583 264.952z" p-id="6040" fill="#bfcbd9"></path></svg>