<?xml version="1.0" standalone="no"?><!DOCTYPE svg PUBLIC "-//W3C//DTD SVG 1.1//EN" "http://www.w3.org/Graphics/SVG/1.1/DTD/svg11.dtd"><svg t="1645434894693" class="icon" viewBox="0 0 1024 1024" version="1.1" xmlns="http://www.w3.org/2000/svg" p-id="1547" width="20" height="20" xmlns:xlink="http://www.w3.org/1999/xlink"><defs><style type="text/css"></style></defs><path d="M768 51.2a102.4 102.4 0 0 1 102.4 102.4v572.0064a102.4 102.4 0 0 1-30.0032 72.3968l-144.7936 144.7936a102.4 102.4 0 0 1-72.3968 30.0032H256a102.4 102.4 0 0 1-102.4-102.4V153.6a102.4 102.4 0 0 1 102.4-102.4h512z m0 102.4H256v716.8h307.2v-170.6496c0-18.8928 19.6608-34.1504 43.8784-34.1504H768V153.6z m-42.4448 614.4h-16.0768c-22.2208 0-40.5504 12.8-43.52 29.4912l-0.3584 4.608v25.856L725.5552 768zM448.3584 328.3968A42.3936 42.3936 0 0 1 460.8 358.4v409.6a51.2 51.2 0 0 1-102.4 0V460.8a42.3936 42.3936 0 0 1-30.0032-72.3968l60.0064-60.0064a42.3936 42.3936 0 0 1 59.9552 0zM614.4 204.8a51.2 51.2 0 0 1 51.2 51.2v256l30.0032 30.0032c6.656 6.656 10.8032 15.2064 12.032 24.4224l0.3584 5.5808c0 21.6064-16.1792 39.424-37.0688 42.0864L665.6 614.4h-51.2a51.2 51.2 0 0 1-51.2-51.2V256a51.2 51.2 0 0 1 51.2-51.2z" p-id="1548" fill="#bfcbd9"></path></svg>