<svg xmlns="http://www.w3.org/2000/svg" width="50.344" height="50.344" viewBox="0 0 50.344 50.344">
  <defs>
    <style>
      .cls-1 {
        fill: #2e4ea1;
      }
    </style>
  </defs>
  <path id="信息" class="cls-1" d="M25.2,0A25.172,25.172,0,1,0,50.377,25.172,25.172,25.172,0,0,0,25.2,0ZM29.15,34.432c-1.9,2.853-3.831,5.049-7.082,5.049-2.218-.36-3.131-1.95-2.651-3.569L23.6,22.059a.658.658,0,0,0-.379-.811c-.309-.107-.915.293-1.436.865l-2.528,3.042a13.914,13.914,0,0,1-.009-1.695c1.9-2.853,5.021-5.1,7.138-5.1A2.843,2.843,0,0,1,29,21.939l-4.21,13.92a.655.655,0,0,0,.394.735c.309.107.959-.293,1.483-.868L29.2,32.687a13.722,13.722,0,0,1-.044,1.745ZM28.591,16.34a2.814,2.814,0,0,1-2.9-2.881,2.9,2.9,0,0,1,5.794,0A2.812,2.812,0,0,1,28.591,16.34Z" transform="translate(-0.033)"/>
</svg>
