<svg xmlns="http://www.w3.org/2000/svg" width="40.053" height="36.842" viewBox="0 0 40.053 36.842">
  <defs>
    <style>
      .cls-1 {
        fill: #2e4ea1;
      }
    </style>
  </defs>
  <path id="业务_2_" data-name="业务 (2)" class="cls-1" d="M103.417,108.132H95.49V106.99A2.491,2.491,0,0,0,93,104.5H79.25a2.491,2.491,0,0,0-2.49,2.49v1.142H68.832A2.73,2.73,0,0,0,66.1,110.86v3.834a78.787,78.787,0,0,0,20.024,2.266,78.814,78.814,0,0,0,20.024-2.266V110.86A2.737,2.737,0,0,0,103.417,108.132ZM66.1,117.524v21.09a2.727,2.727,0,0,0,2.728,2.728h34.589a2.73,2.73,0,0,0,2.728-2.728v-21.09a84.658,84.658,0,0,1-20.024,2.168A84.852,84.852,0,0,1,66.1,117.524Zm26.375,8.957a1.82,1.82,0,0,1-1.818,1.818H81.6a1.818,1.818,0,0,1,0-3.637h9.056A1.821,1.821,0,0,1,92.475,126.482Z" transform="translate(-66.1 -104.5)"/>
</svg>
