<?xml version="1.0" standalone="no"?><!DOCTYPE svg PUBLIC "-//W3C//DTD SVG 1.1//EN" "http://www.w3.org/Graphics/SVG/1.1/DTD/svg11.dtd"><svg t="1645435313767" class="icon" viewBox="0 0 1024 1024" version="1.1" xmlns="http://www.w3.org/2000/svg" p-id="3745" xmlns:xlink="http://www.w3.org/1999/xlink" width="20" height="20"><defs><style type="text/css"></style></defs><path d="M256 288c0 34.336 22.816 61.312 50.24 63.808L310.4 352h403.2c16.384 0 31.84-8.64 42.272-23.84a69.76 69.76 0 0 0 11.84-33.824L768 288h64c0 27.84-8.288 54.528-23.424 76.48-11.168 16.192-25.6 29.184-42.048 38.08 0.96 4.32 1.472 8.832 1.472 13.44v128h64a32 32 0 0 1 0 64h-64v64c0 25.376-3.68 49.92-10.56 73.024 42.176 18.112 72.032 61.664 74.4 112.448L832 864h-64c0-28.32-15.52-51.648-36.384-60.352A255.936 255.936 0 0 1 512 928a255.872 255.872 0 0 1-219.584-124.32c-9.408 3.84-17.824 10.752-24.32 20.16a69.76 69.76 0 0 0-11.84 33.824L256 864H192c0-27.84 8.288-54.528 23.424-76.48a119.968 119.968 0 0 1 51.168-42.496A255.232 255.232 0 0 1 256 672v-64H192a32 32 0 0 1 0-64h64v-128c0-4.608 0.48-9.12 1.408-13.44-37.312-20.16-63.04-60.992-65.28-108.032L192 288h64z m448 128H320v256a192.064 192.064 0 0 0 160 189.344V576a32 32 0 0 1 64 0v285.344a192.064 192.064 0 0 0 159.872-182.144L704 672v-256zM512 96a224 224 0 0 1 223.872 216.32L736 320h-64a160 160 0 0 0-319.84-6.944L352 320H288a224 224 0 0 1 224-224z" fill="#bfcbd9" fill-opacity=".65" p-id="3746"></path></svg>