<?xml version="1.0" standalone="no"?><!DOCTYPE svg PUBLIC "-//W3C//DTD SVG 1.1//EN" "http://www.w3.org/Graphics/SVG/1.1/DTD/svg11.dtd"><svg t="1645435973718" class="icon" viewBox="0 0 1024 1024" version="1.1" xmlns="http://www.w3.org/2000/svg" p-id="8609" xmlns:xlink="http://www.w3.org/1999/xlink" width="20" height="20"><defs><style type="text/css"></style></defs><path d="M773.3 65.1H250.9c-53.26 0-96.59 43.33-96.59 96.59v701.28c0 53.26 43.33 96.59 96.59 96.59h522.4c53.26 0 96.59-43.33 96.59-96.59V161.69c-0.01-53.26-43.33-96.59-96.59-96.59z m51.86 797.87c0 28.61-23.26 51.86-51.86 51.86H250.9c-28.61 0-51.86-23.26-51.86-51.86V161.69c0-28.6 23.26-51.86 51.86-51.86h522.4c28.61 0 51.86 23.27 51.86 51.86v701.28z" p-id="8610" fill="#bfcbd9"></path><path d="M422.66 176.91c-41.59 0-76.7 28.4-86.54 67.08h-69.99v44.72h69.99c9.84 38.68 44.95 67.08 86.54 67.08s76.7-28.4 86.54-67.08h248.88v-44.72H509.2c-9.84-38.68-44.95-67.08-86.54-67.08z m38.68 111.81c-7.83 13.42-22.14 22.36-38.68 22.36s-30.86-8.95-38.68-22.36c-3.8-6.49-6.04-14.31-6.04-22.36 0-8.05 2.24-15.88 6.04-22.36 7.83-13.42 22.14-22.36 38.68-22.36s30.86 8.94 38.68 22.36c3.8 6.48 6.04 14.31 6.04 22.36 0 8.04-2.24 15.87-6.04 22.36zM422.66 422.88c-41.59 0-76.7 28.4-86.54 67.08h-69.99v44.72h69.99c9.84 38.68 44.95 67.08 86.54 67.08s76.7-28.4 86.54-67.08h248.88v-44.72H509.2c-9.84-38.68-44.95-67.08-86.54-67.08z m38.68 111.81c-7.83 13.42-22.14 22.36-38.68 22.36s-30.86-8.95-38.68-22.36c-3.8-6.49-6.04-14.31-6.04-22.36 0-8.05 2.24-15.88 6.04-22.36 7.83-13.42 22.14-22.36 38.68-22.36s30.86 8.94 38.68 22.36c3.8 6.48 6.04 14.31 6.04 22.36 0 8.05-2.24 15.88-6.04 22.36zM601.55 668.86c-41.59 0-76.7 28.4-86.54 67.08H266.13v44.72h248.88c9.84 38.69 44.95 67.08 86.54 67.08s76.7-28.4 86.54-67.08h69.99v-44.72h-69.99c-9.84-38.68-44.95-67.08-86.54-67.08z m38.68 111.81c-7.83 13.42-22.14 22.36-38.68 22.36-16.55 0-30.86-8.94-38.68-22.36-3.8-6.48-6.04-14.31-6.04-22.36 0-8.05 2.24-15.88 6.04-22.36 7.83-13.42 22.14-22.36 38.68-22.36 16.55 0 30.86 8.95 38.68 22.36 3.8 6.49 6.04 14.31 6.04 22.36 0 8.05-2.24 15.87-6.04 22.36z" p-id="8611" fill="#bfcbd9"></path></svg>