<?xml version="1.0" standalone="no"?><!DOCTYPE svg PUBLIC "-//W3C//DTD SVG 1.1//EN" "http://www.w3.org/Graphics/SVG/1.1/DTD/svg11.dtd"><svg t="1645435184559" class="icon" viewBox="0 0 1024 1024" version="1.1" xmlns="http://www.w3.org/2000/svg" p-id="3453" xmlns:xlink="http://www.w3.org/1999/xlink" width="20" height="20"><defs><style type="text/css"></style></defs><path d="M190 81.6c5.3-0.7 10.6-1 15.9-0.9h591.7c31.8-0.3 63.3 13.8 84.5 37.4 18.6 20.3 29.2 47.6 29.5 75.1v319.5c-0.5 6.3 1.2 12.9-1.9 18.8-4.8 11.4-19.6 16.7-30.5 11.1-38.8-19-82.6-27.7-125.7-25-36.8 2.2-73.1 12.7-105.4 30.5-52.9 29-94.6 77.6-115 134.3-22 60.3-19.6 129 6.7 187.5 5.8 13 12.7 25.4 20.6 37.3 1.5 2.3 3.2 4.4 4.5 6.8 3.4 6.9 3.1 15.6-1 22.2-3.8 6.3-10.9 10.6-18.3 10.7H203.5c-29.5-0.3-58.7-12.5-79.3-33.6-21.8-21.5-33.9-52.2-33.2-82.7V195.8c-0.3-23.1 6.6-46.2 19.7-65.2 17.7-26.7 47.4-45.1 79.3-49m81.1 189c-7.8 2.1-14.1 8.8-15.9 16.7-1.8 7.6 0.4 16.1 6.1 21.5 4.2 4.3 10.3 6.8 16.3 6.7h442.3c4.3 0 8.8 0.2 12.9-1.4 9.8-3.3 16.3-14 14.9-24.2-1-10.9-10.8-20.1-21.8-20.2H276.8c-1.9 0.1-3.9 0.4-5.7 0.9m4.3 185.6c-6.5 0.5-12.8 4-16.5 9.4-6.1 8.1-5.7 20.3 0.8 28 4.3 5.3 11 8.4 17.8 8.4h246.3c7.4 0 14.6-3.9 18.7-10.1 4.6-6.8 5.2-16.2 1.3-23.4-3.7-7.4-11.8-12.4-20.1-12.2-82.7-0.1-165.5-0.2-248.3-0.1z" p-id="3454" fill="#bfcbd9"></path><path d="M751.4 563.5c30.8-2.7 62.2 1.3 91.1 12.3 37.2 14 70.1 39.1 93.5 71.3 18.2 24.8 30.5 53.8 36 84 6.9 37.9 2.9 77.8-11.6 113.5-11.3 28.1-29 53.6-51.2 74.1C886 940 858 956 827.9 964.8c-37.2 10.9-77.6 11-114.9 0.3-30.1-8.7-58.2-24.4-81.3-45.6-31.2-28.4-53.4-66.6-62.2-107.9-7.3-33.5-6-68.8 3.6-101.7 9.7-33 27.9-63.5 52.4-87.7 33.4-33.4 78.8-54.6 125.9-58.7M725 702.7v90.7c0 3.3-0.3 6.7 1.1 9.8 2.8 8.3 10.8 14.6 19.6 15.2 31.7-0.3 63.4-0.1 95.1-0.2 7.6-0.4 14.6-5.2 18.2-11.8 5.4-9.6 2.5-22.8-6.5-29.2-5.5-4.4-12.8-4.8-19.5-4.6h-62.4v-67.4c0-4.9-1.2-9.8-4-13.8-5-7.5-14.7-11.4-23.5-9.4-9.8 1.8-17.7 10.7-18.1 20.7z" p-id="3455" fill="#bfcbd9"></path></svg>