<?xml version="1.0" standalone="no"?><!DOCTYPE svg PUBLIC "-//W3C//DTD SVG 1.1//EN" "http://www.w3.org/Graphics/SVG/1.1/DTD/svg11.dtd"><svg t="1645670146558" class="icon" viewBox="0 0 1024 1024" version="1.1" xmlns="http://www.w3.org/2000/svg" p-id="1439" width="20" height="20" xmlns:xlink="http://www.w3.org/1999/xlink"><defs><style type="text/css"></style></defs><path d="M297.6 124.8v112H832V124.8zM451.2 326.4v51.2h339.2v-51.2zM451.2 448v48h339.2V448zM451.2 569.6v51.2h339.2v-51.2zM451.2 691.2v51.2h339.2v-51.2z" fill="#bfcbd9" p-id="1440"></path><path d="M422.4 339.2l38.4-38.4-28.8-28.8-35.2 32c-35.2-35.2-86.4-51.2-137.6-38.4-73.6 19.2-115.2 99.2-99.2 172.8 19.2 73.6 99.2 118.4 172.8 99.2 73.6-19.2 118.4-96 99.2-169.6l-9.6-28.8z m-92.8 179.2c-64 16-131.2-22.4-147.2-86.4s22.4-131.2 86.4-147.2c44.8-12.8 89.6 3.2 118.4 32l-70.4 70.4L278.4 352l-28.8 28.8 35.2 38.4 32 28.8 28.8-28.8 60.8-64c3.2 6.4 6.4 9.6 6.4 16 19.2 64-19.2 128-83.2 147.2z" fill="#bfcbd9" p-id="1441"></path><path d="M265.6 89.6h601.6v793.6H265.6V544h12.8v320h572.8V105.6H278.4V256c-3.2 3.2-9.6 3.2-12.8 3.2V89.6z" fill="#bfcbd9" p-id="1442"></path></svg>