<?xml version="1.0" encoding="UTF-8"?>
<svg width="16px" height="16px" viewBox="0 0 16 16" version="1.1" xmlns="http://www.w3.org/2000/svg" xmlns:xlink="http://www.w3.org/1999/xlink">
    <title>ico_link</title>
    <g id="页面-1" stroke="none" stroke-width="1" fill="none" fill-rule="evenodd">
        <g id="部门需求" transform="translate(-755.000000, -1254.000000)" fill="#0080FF" fill-rule="nonzero">
            <g id="item_02" transform="translate(647.000000, 350.000000)">
                <g id="object-11" transform="translate(12.000000, 856.000000)">
                    <path d="M111.73408,52.1330957 L107.866968,48.2667633 C107.510923,47.9110789 106.934357,47.9110789 106.578312,48.2667633 L102.711772,52.1330957 C102.540531,52.303936 102.444283,52.5359717 102.444283,52.777961 C102.444283,53.0199503 102.540531,53.251986 102.711772,53.4228264 L103.355243,54.0662619 L107.222355,50.1999295 L109.800238,52.777675 L105.933127,56.6440074 L106.578312,57.2885868 C106.934357,57.6442712 107.510923,57.6442712 107.866968,57.2885868 L111.733508,53.4222544 C112.088831,53.0661088 112.088831,52.4892413 111.733508,52.1330957 L111.73408,52.1330957 Z M104.645042,57.9325943 L100.778502,61.7989266 L98.2000472,59.2211811 L102.067159,55.3548487 L101.421973,54.7102693 C101.065928,54.3545849 100.489362,54.3545849 100.133317,54.7102693 L96.2667772,58.5771736 C95.9110743,58.9333849 95.9110743,59.510693 96.2667772,59.8669043 L100.133317,63.7332367 C100.489362,64.0889211 101.065928,64.0889211 101.421973,63.7332367 L105.289085,59.8669043 C105.460326,59.696064 105.556574,59.4640283 105.556574,59.222039 C105.556574,58.9800497 105.460326,58.748014 105.289085,58.5771736 L104.645614,57.9337381 L104.645042,57.9331662 L104.645042,57.9325943 Z M101.421973,58.5760297 C101.592941,58.7473422 101.824945,58.8436015 102.066873,58.8436015 C102.308801,58.8436015 102.540804,58.7473422 102.711772,58.5760297 L106.578884,54.7096974 C106.74953,54.5391214 106.845416,54.3076431 106.845416,54.0662619 C106.845416,53.8248806 106.74953,53.5934023 106.578884,53.4228264 C106.407916,53.2515139 106.175912,53.1552546 105.933984,53.1552546 C105.692056,53.1552546 105.460053,53.2515139 105.289085,53.4228264 L101.421973,57.2891588 C101.251327,57.4597347 101.155441,57.691213 101.155441,57.9325943 C101.155441,58.1739755 101.251327,58.4054538 101.421973,58.5760297 L101.421973,58.5760297 Z" id="ico_link"></path>
                </g>
            </g>
        </g>
    </g>
</svg>