<?xml version="1.0" encoding="UTF-8"?>
<svg width="48px" height="48px" viewBox="0 0 48 48" version="1.1" xmlns="http://www.w3.org/2000/svg" xmlns:xlink="http://www.w3.org/1999/xlink">
    <title>02</title>
    <g id="页面-1" stroke="none" stroke-width="1" fill="none" fill-rule="evenodd">
        <g id="部门需求" transform="translate(-927.000000, -214.000000)" fill="#0080FF" fill-rule="nonzero">
            <g id="编组-5" transform="translate(661.000000, 214.000000)">
                <g id="编组-2备份" transform="translate(243.000000, 0.000000)">
                    <g id="02" transform="translate(23.000000, 0.000000)">
                        <path d="M37.4482759,19.9736154 C37.4482759,19.2758291 36.7510345,18.6564922 36.1303448,18.6564922 L9.23172415,18.6564922 C8.53241383,18.6564922 7.91172412,19.3542785 7.91172412,19.9736154 C7.91172412,20.5929523 8.60896552,21.2886741 9.23172415,21.2886741 L36.0517241,21.2886741 C36.7489655,21.3671234 37.4482759,20.6693372 37.4482759,19.9736154 Z M20.0689655,26.6314872 L9.54206898,26.6314872 C8.76620691,26.6314872 8.06896552,27.1723748 8.06896552,27.9465459 C8.06896552,28.6443321 8.76620691,29.263669 9.54206898,29.263669 L20.0689655,29.263669 C20.8448276,29.263669 21.5441379,28.5658828 21.5441379,27.9465459 C21.5441379,27.1723748 20.8448276,26.6314872 20.0689655,26.6314872 Z M20.0689655,34.682867 L9.54206898,34.682867 C8.76620691,34.682867 8.06896552,35.2237546 8.06896552,35.9979257 C8.06896552,36.695712 8.76620691,37.3150489 9.54206898,37.3150489 L20.0689655,37.3150489 C20.8448276,37.3150489 21.5441379,36.6193271 21.5441379,35.9999902 C21.5441379,35.225819 20.8448276,34.682867 20.0689655,34.682867 Z M9.23172415,10.6835617 C8.53448276,10.6835617 7.9137931,11.381348 7.9137931,12.0006849 C7.9137931,12.6964067 8.6110345,13.3157436 9.23379309,13.3157436 L36.0517241,13.3157436 C36.7489655,13.3157436 37.3696552,12.6179574 37.3696552,11.9986204 C37.4482759,11.3028986 36.7489655,10.6835617 36.0517241,10.6835617 L9.23172415,10.6835617 Z M37.4482759,26.6314872 C31.6303448,26.6314872 26.8965517,31.4313482 26.8965517,37.3150489 C26.8965517,43.1987495 31.5517241,47.9986106 37.4482759,47.9986106 C43.3448276,47.9986106 48,43.1987495 48,37.3150489 C48,31.4313482 43.2662069,26.6314872 37.4482759,26.6314872 Z M29.5344828,37.3914338 C29.5344828,32.9796905 33.1034483,29.4185033 37.4482759,29.4185033 C41.7931034,29.4185033 45.362069,32.9796905 45.362069,37.3934982 C45.362069,41.8052415 41.7931034,45.3664287 37.4482759,45.3664287 C33.1034483,45.3664287 29.5344828,41.8052415 29.5344828,37.3914338 Z M38.7682758,35.9979257 L38.7682758,33.3678083 C38.7682758,32.6700221 38.0689655,32.0506851 37.4482759,32.0506851 C36.7510345,32.0506851 36.1303448,32.7484714 36.1303448,33.3678083 L36.1303448,37.3934982 C36.1303448,38.08922 36.8275862,38.7085569 37.4482759,38.7085569 L41.4062069,38.7085569 C42.1034483,38.7085569 42.7241379,38.0128351 42.7241379,37.3934982 C42.7241379,36.695712 42.0268965,35.9999902 41.4062069,35.9999902 L38.7682758,35.9979257 Z" id="形状"></path>
                        <path d="M40,0 C43.3137085,0 46,2.6862915 46,6 L46,24 C45.9096995,24.6903018 45.2768964,25.1766989 44.5865947,25.0863984 C44.0282588,25.0133608 43.5860814,24.5788756 43.5032577,24.0219073 L43.5,24 L43.5,24 L43.5,6 C43.5,4.1314366 42.0357224,2.60487355 40.1920352,2.50517886 L40,2.5 L6,2.5 C4.1314366,2.5 2.60487355,3.9642776 2.50517886,5.8079648 L2.5,6 L2.5,42 C2.5,43.8685634 3.9642776,45.3951264 5.8079648,45.4948211 L6,45.5 L25,45.5 C25.6901192,45.5493947 26.209529,46.1488892 26.1601342,46.8390084 C26.1169085,47.4429368 25.6479481,47.9295241 25.0460248,47.994994 L25,48 L25,48 L6,48 C2.6862915,48 0,45.3137085 0,42 L0,6 C0,2.6862915 2.6862915,0 6,0 L40,0 Z" id="路径"></path>
                    </g>
                </g>
            </g>
        </g>
    </g>
</svg>