<?xml version="1.0" encoding="UTF-8"?>
<svg width="45px" height="48px" viewBox="0 0 45 48" version="1.1" xmlns="http://www.w3.org/2000/svg" xmlns:xlink="http://www.w3.org/1999/xlink">
    <title>01</title>
    <g id="页面-1" stroke="none" stroke-width="1" fill="none" fill-rule="evenodd">
        <g id="部门需求" transform="translate(-670.000000, -214.000000)">
            <g id="编组-5" transform="translate(661.000000, 214.000000)">
                <g id="01" transform="translate(9.000000, 0.000000)">
                    <rect id="矩形" fill="#DDE4FF" x="6" y="6" width="33" height="36" rx="4"></rect>
                    <path d="M33.2343052,23.580884 C33.1220481,23.6688183 33.0275158,23.7757508 32.9270752,23.8767124 L25.627139,31.253966 C24.3332279,32.5680953 23.0248146,33.8697401 21.7405715,35.1920115 C21.4064857,37.0614296 21.1040897,38.9384469 20.7818205,40.8105791 C22.640777,40.4990094 24.4959738,40.1668131 26.3543933,39.8525294 C30.0889571,36.0849246 33.8170755,32.3113489 37.5500279,28.5421156 C37.7154595,28.3787315 37.8814282,28.2055769 37.9727378,27.9868268 C38.1392436,27.6112062 38.1048682,27.1541649 37.8825024,26.8094842 C37.7879701,26.6564134 37.6520799,26.538082 37.5285433,26.4116086 C36.6954772,25.5697191 35.8629483,24.7283724 35.0304193,23.8864829 C34.9041972,23.7605523 34.7854947,23.6243084 34.6345652,23.528232 C34.2166894,23.2541158 33.6306964,23.2769136 33.2343052,23.580884 L33.2343052,23.580884 Z" id="路径" fill="#FFFFFF" fill-rule="nonzero"></path>
                    <path d="M5.92305843,0.00634922532 C16.8888076,-0.00667807858 27.8550939,0.00526361666 38.8208431,2.06250461e-05 C39.9444886,0.00634922532 41.0638372,0.332574627 42.0215141,0.926945368 C43.4249968,1.79380388 44.4670008,3.23874901 44.8359991,4.86064834 C44.9498676,5.35839991 45.0089503,5.86972159 44.9987451,6.38050046 C44.9976709,17.8141309 44.998208,29.2472184 44.998208,40.6808488 C44.9885399,41.3859517 45.0395659,42.0981109 44.905287,42.7950717 C44.616856,44.5125046 43.5732407,46.0725242 42.1219547,47.0072333 C41.1578325,47.6314583 40.0218333,47.9815671 38.8767031,47.998394 L6.37960657,47.998394 C5.31665508,48.0228202 4.24779532,47.768245 3.30999173,47.2601801 C1.79156633,46.4486876 0.634619635,44.9771451 0.20707573,43.2949945 C0.0480895549,42.6930245 -0.00991891452,42.0677139 0.00136051009,41.4462029 L0.00136051009,6.97595681 C0.00404608738,6.54171335 -0.0126044918,6.10584147 0.0351987839,5.67322642 C0.172700341,4.22339606 0.833352354,2.83273137 1.8635398,1.81551605 C2.93669649,0.736421048 4.41107842,0.0796278098 5.92305843,0.00634922532 M5.70713802,2.56404322 C4.74033019,2.70517235 3.84227315,3.24960509 3.25789153,4.03884259 C2.76535666,4.69020778 2.50109585,5.50821391 2.49841027,6.32676283 C2.4994845,18.1235293 2.49841027,29.9208386 2.4994845,41.7176051 C2.51076393,42.3874256 2.69123472,43.0567034 3.03713708,43.6299048 C3.5592133,44.5135902 4.44921361,45.1676694 5.44556279,45.3858768 C6.05142902,45.5275487 6.67663142,45.4575269 7.29216573,45.4743539 C17.8029781,45.4748967 28.3132534,45.4738111 38.8240658,45.4748967 C39.6635772,45.4596981 40.4939577,45.1454144 41.1390334,44.6031529 C41.9151652,43.9626438 42.4130713,42.9942809 42.4914901,41.9852076 C42.5119005,41.551507 42.4947128,41.1172635 42.5006211,40.6835629 L42.5006211,6.75937789 C42.4968613,6.43260968 42.5172717,6.10367026 42.4646344,5.77961607 C42.3389493,4.87747528 41.87703,4.02961491 41.1905965,3.43958661 C40.5374641,2.86855645 39.6829134,2.53690301 38.8192317,2.52496131 L6.16207481,2.52496131 C6.00953402,2.52658973 5.85753034,2.54233105 5.70713802,2.56404322 Z" id="形状" fill="#0080FF" fill-rule="nonzero"></path>
                    <path d="M10.107725,10.4830156 C18.2643603,10.4689027 26.4220699,10.48193 34.5792423,10.4765019 C34.782272,10.4716167 34.9912099,10.4748735 35.1845714,10.5476093 C35.5729059,10.6800536 35.8812102,11.0176778 35.9832621,11.4188102 C36.084777,11.7933452 36.0036725,12.2134758 35.7684159,12.5212458 C35.5417532,12.8241307 35.1722178,13.0168262 34.7951627,13.015208 C26.595021,13.0141122 18.3948794,13.014655 10.1947377,13.014655 C9.83057338,13.011941 9.47554007,12.8295587 9.25156292,12.5413296 C8.94272153,12.160281 8.89438114,11.591422 9.11996963,11.1577214 C9.31064562,10.784272 9.69307183,10.5204691 10.107725,10.4830156 Z M9.89287878,20.8489499 C9.98955956,20.8218096 10.0900002,20.8060683 10.1904407,20.8044399 C14.5781369,20.8038971 18.9663702,20.8038971 23.3540664,20.8038971 C23.6194014,20.8087823 23.8954788,20.7745857 24.1489973,20.8755473 C24.6533487,21.0503303 25.0180501,21.5763077 24.9793778,22.1196548 C24.9826004,22.7623351 24.4143323,23.3306513 23.7821474,23.3409645 C19.2521156,23.3420501 14.7220839,23.3415073 10.1920521,23.3415073 C9.82573935,23.3339081 9.47124314,23.1493546 9.247266,22.8578687 C8.98515365,22.5386997 8.9206998,22.0849153 9.03349405,21.6924678 C9.15649349,21.2902498 9.49111642,20.9613104 9.89287878,20.8489499 L9.89287878,20.8489499 Z M33.372881,20.8581775 C34.5384216,20.6638536 35.7802325,21.0584723 36.6149099,21.9057899 C37.5983683,22.9029214 38.5871979,23.8935393 39.5668965,24.8933849 C40.2635352,25.6429977 40.6384418,26.6868104 40.5686168,27.7132534 C40.5181279,28.6023669 40.1469812,29.4719394 39.5298355,30.1097345 C35.6980538,33.9815578 31.8668093,37.8539239 28.0350276,41.72629 C27.8900064,41.8701331 27.7557276,42.0308032 27.5741825,42.1295936 C27.3663188,42.2517246 27.1235427,42.2821216 26.8904346,42.3206607 C24.4234633,42.7473049 21.956492,43.1734063 19.4900578,43.6005933 C19.1565091,43.6581306 18.797716,43.5935369 18.52325,43.3883568 C18.1386753,43.1185831 17.9410168,42.6208315 18.0188985,42.1556482 C18.4604074,39.5453022 18.9013792,36.9338705 19.3450366,34.3235245 C19.3939141,34.0504939 19.5410837,33.8024324 19.7430392,33.6167933 C23.6210128,29.7010029 27.4952266,25.7824984 31.3721259,21.8661652 C31.9162239,21.3342169 32.6252163,20.9775945 33.372881,20.8581775 M33.2343052,23.580884 C33.1220481,23.6688183 33.0275158,23.7757508 32.9270752,23.8767124 L25.627139,31.253966 C24.3332279,32.5680953 23.0248146,33.8697401 21.7405715,35.1920115 C21.4064857,37.0614296 21.1040897,38.9384469 20.7818205,40.8105791 C22.640777,40.4990094 24.4959738,40.1668131 26.3543933,39.8525294 C30.0889571,36.0849246 33.8170755,32.3113489 37.5500279,28.5421156 C37.7154595,28.3787315 37.8814282,28.2055769 37.9727378,27.9868268 C38.1392436,27.6112062 38.1048682,27.1541649 37.8825024,26.8094842 C37.7879701,26.6564134 37.6520799,26.538082 37.5285433,26.4116086 C36.6954772,25.5697191 35.8629483,24.7283724 35.0304193,23.8864829 C34.9041972,23.7605523 34.7854947,23.6243084 34.6345652,23.528232 C34.2166894,23.2541158 33.6306964,23.2769136 33.2343052,23.580884 L33.2343052,23.580884 Z" id="形状" fill="#0080FF" fill-rule="nonzero"></path>
                    <path d="M33.1564235,24.9259532 C33.5818189,24.7973085 34.0759651,24.9183539 34.3858808,25.2429509 C34.9858387,25.8508918 35.5857967,26.4582898 36.1879031,27.0635166 C36.4580722,27.3267767 36.5891284,27.7235667 36.5440107,28.0986445 C36.5042641,28.4981485 36.2577281,28.8661698 35.9107515,29.0594081 C35.5299367,29.2749015 35.0379389,29.267845 34.6635695,29.0414956 C34.5061946,28.9519329 34.386955,28.8118894 34.2607329,28.6859588 C33.7144864,28.133384 33.16824,27.581352 32.6214565,27.0298628 C32.3609555,26.7725735 32.2277509,26.3931533 32.2615891,26.027846 C32.2975759,25.5197811 32.6692598,25.0600258 33.1564235,24.9259532 L33.1564235,24.9259532 Z M30.6765614,27.4168822 C31.0219267,27.3050646 31.4140209,27.359345 31.7196396,27.5558402 C31.8716433,27.6524593 31.9903458,27.7908744 32.1171051,27.9173478 C32.6187709,28.4243271 33.1198996,28.9318491 33.6226397,29.4382856 C33.7617526,29.5739866 33.9008655,29.7178298 33.9771359,29.9007549 C34.1903707,30.3507396 34.1065807,30.9223126 33.7708836,31.2887055 C33.3385056,31.7924279 32.5006055,31.8418231 32.0182758,31.3847819 C31.3979075,30.7627281 30.7829103,30.1352463 30.1625419,29.5131926 C29.8273819,29.1864244 29.711902,28.6571901 29.8655171,28.2148046 C29.9869052,27.8370128 30.2995064,27.5297855 30.6765614,27.4168822 L30.6765614,27.4168822 Z M10.2199821,30.943482 C12.0375808,30.9369683 13.8551795,30.9423964 15.6727782,30.9407679 C15.9945104,30.9385967 16.3226879,31.0395583 16.5633156,31.2610225 C16.9833399,31.6236158 17.1100992,32.2771522 16.862489,32.7749038 C16.6589222,33.2118613 16.1943173,33.4946623 15.718433,33.4903199 C13.9840872,33.4941195 12.2497414,33.4903199 10.5148585,33.4924911 C10.1990346,33.5028044 9.86602301,33.4838062 9.59155701,33.3090232 C9.07485194,33.0153661 8.84711498,32.327633 9.05659001,31.7723442 C9.22685561,31.2870771 9.71187087,30.946196 10.2199821,30.943482 Z" id="形状" fill="#0080FF" fill-rule="nonzero"></path>
                </g>
            </g>
        </g>
    </g>
</svg>