<?xml version="1.0" encoding="UTF-8"?>
<svg width="48px" height="48px" viewBox="0 0 48 48" version="1.1" xmlns="http://www.w3.org/2000/svg" xmlns:xlink="http://www.w3.org/1999/xlink">
    <title>03</title>
    <g id="页面-1" stroke="none" stroke-width="1" fill="none" fill-rule="evenodd">
        <g id="部门需求" transform="translate(-1188.000000, -214.000000)" fill-rule="nonzero">
            <g id="编组-5" transform="translate(661.000000, 214.000000)">
                <g id="编组-2备份-2" transform="translate(503.000000, 0.000000)">
                    <g id="03" transform="translate(24.000000, 0.000000)">
                        <path d="M22.6728488,26.1384477 L22.6344447,29.5153791 L11.9294102,29.5153791 C11.4777998,29.5153791 11.0685021,29.3261787 10.7720116,29.0211025 C10.4745332,28.7150098 10.2905037,28.2923124 10.2905037,27.8261177 C10.2905037,27.3604371 10.4745454,26.9381343 10.7720245,26.6323132 C11.068519,26.3275042 11.4778114,26.1384477 11.9294102,26.1384477 L11.9294102,26.1384477 L22.6728488,26.1384477 Z M29.7161757,16.9483917 C30.1679245,16.9483917 30.5774244,17.1375922 30.874021,17.4425499 C31.171568,17.7484847 31.3556004,18.1708849 31.3553489,18.6365922 C31.3553489,19.1023781 31.171292,19.5248935 30.8736672,19.8308615 C30.5771501,20.1356907 30.1677986,20.3247926 29.7159093,20.3247926 L29.7159093,20.3247926 L11.9294102,20.3247926 C11.4778486,20.3247926 11.0685904,20.1356349 10.7721049,19.8307446 C10.4745797,19.5247853 10.2905037,19.1023194 10.2905037,18.6365922 C10.2905037,18.170865 10.4745797,17.7483991 10.7721049,17.4424398 C11.0685904,17.1375495 11.4778486,16.9483917 11.9294102,16.9483917 L11.9294102,16.9483917 Z" id="形状" stroke="#FFFFFF" stroke-width="0.2" fill="#0080FF"></path>
                        <path d="M46.1522274,0.249999932 C46.5789705,0.250314746 46.9653312,0.422564205 47.2450696,0.701060182 C47.5244184,0.979168357 47.6974113,1.36325823 47.6977903,1.78718154 C47.6974114,2.21158005 47.5244236,2.59570477 47.2450726,2.87385632 C46.9653323,3.15239565 46.5789623,3.32469705 46.1524118,3.32507473 L46.1524118,3.32507473 L44.7789534,3.32507473 L44.7483201,23.2265628 L41.7620689,23.2265628 L41.7628802,22.2322842 L41.7639155,20.9551462 L41.7649623,19.6547705 L41.7660119,18.3405751 L41.766709,17.4614171 L41.7677444,16.1451159 L41.7687598,14.8401081 L41.7697466,13.5558115 L41.7706964,12.301643 L41.7718902,10.6925628 L41.7729827,9.17610985 L41.7739534,7.77460508 L41.7749646,6.21837383 L41.7759322,4.48299727 L41.7763409,3.369684 L6.1724192,3.32475885 L6.194183,32.4226045 C6.194183,32.7061492 6.18731483,32.9390699 6.1812361,33.1309389 C6.17552919,33.327266 6.17044644,33.562959 6.18556381,33.6893429 L6.18556381,33.6893429 L22.4844447,33.9276714 L22.4844447,37.0272352 L21.9747918,37.0241476 L16.0256117,47.7499316 L12.0306477,47.7480762 L17.9994521,37.092734 L3.17008322,37.0259014 L3.21455735,3.37863626 L1.79511199,3.32507473 C1.36897917,3.32507473 0.982594125,3.15246254 0.702739885,2.87376849 C0.42328008,2.59546725 0.25,2.21127332 0.25,1.78740475 C0.25,1.36356703 0.423258474,0.979455087 0.702690571,0.70122272 C0.982551944,0.42256292 1.36895844,0.25 1.79511199,0.25 L1.79511199,0.25 Z" id="路径" stroke="#FFFFFF" stroke-width="0.5" fill="#0080FF"></path>
                        <path d="M33.7840814,43.6374559 L36.1096694,47.896575 L31.8076378,47.8769291 L29.4758835,43.6374559 L33.7840814,43.6374559 Z M29.7161757,7.75860101 C30.1679803,7.75860101 30.5775316,7.94764943 30.8741416,8.25248518 C31.1716193,8.55821269 31.3556004,8.98036836 31.3553489,9.44600576 C31.3553489,9.91214227 31.1713268,10.3348314 30.8737371,10.6408994 C30.5772164,10.945868 30.1678352,11.1350019 29.7159093,11.1350019 L29.7159093,11.1350019 L11.9294102,11.1350019 C11.477812,11.1350019 11.0685242,10.9458122 10.7720349,10.6407825 C10.4745448,10.3347231 10.2905037,9.91208357 10.2905037,9.44600576 C10.2905037,8.98034846 10.4745283,8.55812724 10.7719843,8.25237518 C11.0684832,7.94760683 11.4777928,7.75860101 11.9294102,7.75860101 L11.9294102,7.75860101 Z" id="形状" stroke="#FFFFFF" stroke-width="0.2" fill="#0080FF"></path>
                        <path d="M45.5384137,24.5812652 C46.1895084,24.5812652 46.7798937,24.8450594 47.2075311,25.2710451 C47.5922546,25.6542826 47.8452721,26.1688267 47.8921215,26.7406981 L47.9,26.9333436 L47.9,39.8411697 C47.9,40.4892094 47.6351927,41.0767274 47.2077675,41.5022714 C46.8229197,41.8854254 46.306222,42.1373044 45.7320846,42.1838486 L45.5386801,42.1916568 L44.3252258,42.1916568 L44.3252264,45.7898794 C44.3259252,46.00119 44.2666621,46.2036347 44.1598705,46.377059 C44.0530225,46.5505747 43.8986001,46.6950382 43.7090041,46.7903294 C43.5505545,46.8700675 43.3742402,46.9130704 43.1962453,46.9130705 C43.004865,46.9134251 42.8173786,46.8651671 42.6510769,46.7738541 L42.5305928,46.6973832 L36.3166667,42.1911263 L26.4871584,42.1911263 C25.8359133,42.1911263 25.2453772,41.9274519 24.8176648,41.501668 C24.4329132,41.1186513 24.1799037,40.6044188 24.1331493,40.0329004 L24.1253058,39.840374 L24.1253058,26.9325479 C24.1253058,26.2843531 24.3901968,25.6966213 24.8177448,25.2709091 C25.2026786,24.887628 25.7194789,24.6356413 26.2937195,24.5890768 L26.4871584,24.5812652 L45.5384137,24.5812652 Z M45.63785,26.827221 L26.3833982,26.8315093 L26.3874557,39.9424958 L36.6851206,39.9424958 L36.827556,39.9515068 C37.0157539,39.9754243 37.1956452,40.046485 37.3499177,40.159066 L37.3499177,40.159066 L42.0673689,43.5802005 L42.0673689,41.067872 L42.0751158,40.9369739 C42.1054755,40.6793257 42.2233408,40.448249 42.3983002,40.2740408 C42.6025751,40.0706429 42.8846678,39.9447552 43.1962934,39.9443524 L43.1962934,39.9443524 L45.6419075,39.9402045 L45.63785,26.827221 Z" id="形状" stroke="#FFFFFF" stroke-width="0.2" fill="#0080FF"></path>
                        <path d="M42.0307211,38.2037649 C41.4612897,38.2044574 40.9998587,38.636773 40.9991195,39.1702741 L40.9991195,41 L37.1721526,38.3885603 C36.9959025,38.267537 36.7830697,38.2022923 36.564552,38.2022983 L28.0033544,38.2022983 L28,28.0033523 L43.9966456,28 C43.9970928,28 43.9973164,28.0002095 43.9973164,28.0006286 L44,38.2006221 L42.0307211,38.2037649 L42.0307211,38.2037649 Z" id="路径" fill="#DDE4FF"></path>
                        <path d="M30.5235632,31.2500097 C29.5384786,31.251325 28.7402802,32.0462149 28.7391063,33.0270703 C28.7391063,34.007106 29.5398344,34.8043962 30.5235632,34.8043962 C31.5075584,34.8043962 32.3082865,34.007106 32.3082865,33.0270703 C32.3082865,32.0472999 31.5075584,31.2500097 30.5235632,31.2500097 Z M41.5022753,31.2500097 C40.5169218,31.2508868 39.7183136,32.0459476 39.7172856,33.0270703 C39.7181668,34.0082967 40.516818,34.8035188 41.5022753,34.8043962 C42.4857378,34.8043962 43.2864658,34.007106 43.2864658,33.0270703 C43.2864658,32.0472999 42.4857378,31.2500097 41.5022753,31.2500097 L41.5022753,31.2500097 Z M36.0122533,31.2500097 C35.0285245,31.2500097 34.2280628,32.0472999 34.2280628,33.0270703 C34.2280628,34.007106 35.0285245,34.8043962 36.0122533,34.8043962 C36.9975026,34.8032265 37.7958296,34.0080898 37.7967102,33.0270703 C37.7959759,32.0460334 36.9975203,31.2508873 36.0122533,31.2500097 Z" id="形状" fill="#0080FF"></path>
                    </g>
                </g>
            </g>
        </g>
    </g>
</svg>