<?xml version="1.0" standalone="no"?><!DOCTYPE svg PUBLIC "-//W3C//DTD SVG 1.1//EN" "http://www.w3.org/Graphics/SVG/1.1/DTD/svg11.dtd"><svg t="1617176399079" class="icon" viewBox="0 0 1024 1024" version="1.1" xmlns="http://www.w3.org/2000/svg" p-id="1623" xmlns:xlink="http://www.w3.org/1999/xlink" width="200" height="200"><defs><style type="text/css"></style></defs><path d="M907.508 816.188h-711.914v-711.914c0-14.581-11.786-26.367-26.367-26.367s-26.367 11.786-26.367 26.367v79.102h-26.367c-14.581 0-26.367 11.786-26.367 26.367 0 14.554 11.786 26.367 26.367 26.367h26.367v158.203h-26.367c-14.581 0-26.367 11.786-26.367 26.367 0 14.554 11.786 26.367 26.367 26.367h26.367v158.203h-26.367c-14.581 0-26.367 11.786-26.367 26.367s11.786 26.367 26.367 26.367h26.367v158.203h-26.367c-14.581 0-26.367 11.786-26.367 26.367s11.786 26.367 26.367 26.367h26.367v26.367c0 14.554 11.786 26.367 26.367 26.367s26.367-11.813 26.367-26.367v-26.367h158.203v26.367c0 14.554 11.786 26.367 26.367 26.367s26.367-11.813 26.367-26.367v-26.367h158.203v26.367c0 14.554 11.786 26.367 26.367 26.367s26.367-11.813 26.367-26.367v-26.367h158.203v26.367c0 14.554 11.786 26.367 26.367 26.367s26.367-11.813 26.367-26.367v-26.367h79.102c14.581 0 26.367-11.786 26.367-26.367s-11.786-26.367-26.367-26.367v0zM854.773 236.109c-43.664 0-79.102 35.411-79.102 79.102 0 19.090 7.041 36.359 18.325 50.045l-81.685 136.107c-5.089-1.029-10.336-1.583-15.742-1.583-21.305 0-40.553 8.543-54.791 22.227l-78.021-39.022c0.396-3.19 0.976-6.276 0.976-9.571 0-43.69-35.438-79.102-79.102-79.102-43.664 0-79.102 35.411-79.102 79.102 0 16.217 4.903 31.245 13.289 43.823l-68.977 91.916c-7.462-2.32-15.214-3.902-23.414-3.902-43.664 0-79.102 35.411-79.102 79.102 0 43.664 35.438 79.102 79.102 79.102 43.664 0 79.102-35.438 79.102-79.102 0-16.217-4.93-31.271-13.289-43.822l68.95-91.943c7.462 2.32 15.214 3.929 23.44 3.929 21.278 0 40.553-8.57 54.791-22.253l78.021 39.050c-0.422 3.164-0.976 6.276-0.976 9.571 0 43.664 35.438 79.102 79.102 79.102 43.664 0 79.102-35.438 79.102-79.102 0-19.117-7.067-36.359-18.352-50.073l81.685-136.107c5.115 1.027 10.362 1.609 15.769 1.609 43.664 0 79.102-35.438 79.102-79.102 0-43.69-35.438-79.102-79.102-79.102v0z" p-id="1624"></path></svg>