<?xml version="1.0" standalone="no"?><!DOCTYPE svg PUBLIC "-//W3C//DTD SVG 1.1//EN" "http://www.w3.org/Graphics/SVG/1.1/DTD/svg11.dtd"><svg t="1617176759436" class="icon" viewBox="0 0 1024 1024" version="1.1" xmlns="http://www.w3.org/2000/svg" p-id="1396" xmlns:xlink="http://www.w3.org/1999/xlink" width="200" height="200"><defs><style type="text/css"></style></defs><path d="M211.328 580.949333l36.096 24.064-23.893333 16L469.333333 784.896v48.128l-268.032-178.688a40.064 40.064 0 0 1 0-66.645333l10.026667-6.741334zM597.333333 682.666667a42.666667 42.666667 0 0 1 42.666667 42.666666v42.666667a42.666667 42.666667 0 0 1-42.666667 42.666667h-42.666666a42.666667 42.666667 0 0 1-42.666667-42.666667v-42.666667a42.666667 42.666667 0 0 1 42.666667-42.666666h42.666666z m0 42.666666h-42.666666v42.666667h42.666666v-42.666667z m234.666667 0a21.333333 21.333333 0 1 1 0 42.666667h-128a21.333333 21.333333 0 1 1 0-42.666667h128zM211.328 460.8l36.096 24.064-23.893333 16L469.333333 664.746667v48.128L201.301333 534.186667a40.064 40.064 0 0 1 0-66.645334l10.026667-6.741333zM597.333333 512a42.666667 42.666667 0 0 1 42.666667 42.666667v42.666666a42.666667 42.666667 0 0 1-42.666667 42.666667h-42.666666a42.666667 42.666667 0 0 1-42.666667-42.666667v-42.666666a42.666667 42.666667 0 0 1 42.666667-42.666667h42.666666z m0 42.666667h-42.666666v42.666666h42.666666v-42.666666z m234.666667 0a21.333333 21.333333 0 1 1 0 42.666666h-128a21.333333 21.333333 0 1 1 0-42.666666h128z m-297.984-399.445334l288.256 192.170667a40.064 40.064 0 0 1 0 66.645333L739.242667 469.333333h-72.234667l132.992-88.618666-288.213333-192.170667-288.256 192.170667L469.333333 544.554667v48.170666L201.301333 414.037333a40.064 40.064 0 0 1 0-66.645333l288.256-192.170667a40.064 40.064 0 0 1 44.458667 0z" fill="#999999" p-id="1397"></path></svg>