<?xml version="1.0" standalone="no"?><!DOCTYPE svg PUBLIC "-//W3C//DTD SVG 1.1//EN" "http://www.w3.org/Graphics/SVG/1.1/DTD/svg11.dtd"><svg t="1617176303069" class="icon" viewBox="0 0 1024 1024" version="1.1" xmlns="http://www.w3.org/2000/svg" p-id="1360" xmlns:xlink="http://www.w3.org/1999/xlink" width="200" height="200"><defs><style type="text/css"></style></defs><path d="M510.577778 574.577778c-68.835556 0-133.594074-26.832593-182.328889-75.567408-48.734815-48.734815-75.567407-113.493333-75.567408-182.328889s26.832593-133.594074 75.567408-182.328888C376.888889 85.617778 441.647407 58.785185 510.577778 58.785185s133.594074 26.832593 182.328889 75.567408c48.734815 48.734815 75.567407 113.493333 75.567407 182.328888s-26.832593 133.594074-75.567407 182.328889C644.171852 547.745185 579.413333 574.577778 510.577778 574.577778z m0-458.903704c-110.838519 0-201.007407 90.168889-201.007408 201.007407s90.168889 201.007407 201.007408 201.007408 201.007407-90.168889 201.007407-201.007408-90.263704-201.007407-201.007407-201.007407zM796.065185 966.921481c-73.197037 0-132.740741-59.543704-132.740741-132.74074s59.543704-132.740741 132.740741-132.740741 132.740741 59.543704 132.740741 132.740741-59.543704 132.740741-132.740741 132.74074z m0-208.592592c-41.813333 0-75.851852 34.038519-75.851852 75.851852s34.038519 75.851852 75.851852 75.851852 75.851852-34.038519 75.851852-75.851852-34.038519-75.851852-75.851852-75.851852z" p-id="1361"></path><path d="M131.982222 941.605926c-15.739259 0-28.444444-12.705185-28.444444-28.444445 0-53.380741 10.42963-105.14963 31.099259-153.979259 19.911111-47.122963 48.45037-89.41037 84.764444-125.724444 36.314074-36.314074 78.601481-64.853333 125.724445-84.764445C393.860741 528.118519 445.62963 517.688889 499.105185 517.688889c15.739259 0 28.444444 12.705185 28.444445 28.444444s-12.705185 28.444444-28.444445 28.444445c-186.69037 0-338.678519 151.893333-338.678518 338.678518 0 15.644444-12.705185 28.34963-28.444445 28.34963zM797.297778 758.044444c-15.739259 0-28.444444-12.705185-28.444445-28.444444v-240.82963c0-15.739259 12.705185-28.444444 28.444445-28.444444s28.444444 12.705185 28.444444 28.444444v240.924445c0 15.644444-12.705185 28.34963-28.444444 28.349629z" p-id="1362"></path><path d="M900.551111 517.214815H797.297778c-15.739259 0-28.444444-12.705185-28.444445-28.444445s12.705185-28.444444 28.444445-28.444444h103.253333c15.739259 0 28.444444 12.705185 28.444445 28.444444s-12.705185 28.444444-28.444445 28.444445zM900.551111 620.373333H797.297778c-15.739259 0-28.444444-12.705185-28.444445-28.444444s12.705185-28.444444 28.444445-28.444445h103.253333c15.739259 0 28.444444 12.705185 28.444445 28.444445s-12.705185 28.444444-28.444445 28.444444z" p-id="1363"></path></svg>